<?xml version="1.0" encoding="UTF-8" standalone="no"?>
<!-- Generator: Adobe Illustrator 17.1.0, SVG Export Plug-In . SVG Version: 6.00 Build 0)  -->

<svg
   xmlns:dc="http://purl.org/dc/elements/1.1/"
   xmlns:cc="http://creativecommons.org/ns#"
   xmlns:rdf="http://www.w3.org/1999/02/22-rdf-syntax-ns#"
   xmlns:svg="http://www.w3.org/2000/svg"
   xmlns="http://www.w3.org/2000/svg"
   xmlns:xlink="http://www.w3.org/1999/xlink"
   xmlns:sodipodi="http://sodipodi.sourceforge.net/DTD/sodipodi-0.dtd"
   xmlns:inkscape="http://www.inkscape.org/namespaces/inkscape"
   version="1.1"
   id="Capa_1"
   x="0px"
   y="0px"
   viewBox="0 0 55.633881 54.599997"
   enable-background="new 0 0 70 70"
   xml:space="preserve"
   inkscape:version="0.91 r13725"
   sodipodi:docname="17-ok.svg"
   width="55.633881"
   height="54.599998"><metadata
     id="metadata4658"><rdf:RDF><cc:Work
         rdf:about=""><dc:format>image/svg+xml</dc:format><dc:type
           rdf:resource="http://purl.org/dc/dcmitype/StillImage" /><dc:title></dc:title></cc:Work></rdf:RDF></metadata><defs
     id="defs4656" /><sodipodi:namedview
     pagecolor="#ffffff"
     bordercolor="#666666"
     borderopacity="1"
     objecttolerance="10"
     gridtolerance="10"
     guidetolerance="10"
     inkscape:pageopacity="0"
     inkscape:pageshadow="2"
     inkscape:window-width="1855"
     inkscape:window-height="1056"
     id="namedview4654"
     showgrid="false"
     fit-margin-top="0"
     fit-margin-left="0"
     fit-margin-right="0"
     fit-margin-bottom="0"
     inkscape:zoom="13.128571"
     inkscape:cx="27.321179"
     inkscape:cy="28.617189"
     inkscape:window-x="65"
     inkscape:window-y="24"
     inkscape:window-maximized="1"
     inkscape:current-layer="Capa_1" /><g
     id="g4626"
     transform="translate(-7.5941101,-7.4)"><path
       d="M 52,62 C 41.3,62 30.1,57.1 21.4,48.6 L 21.3,48.5 C 12.3,39.7 7.4,28.5 7.6,17.7 l 0,-0.5 0.4,-0.4 c 0.8,-1 1.6,-1.9 2.3,-2.6 2.9,-2.8 6.3,-5 10.2,-6.5 0.2,-0.1 0.4,-0.1 0.6,-0.1 0.3,0 0.6,-0.1 1,-0.2 0,0 0.1,0 0.3,0 1.1,0 3.1,0.8 3.7,2.2 1,2.6 2.8,7.7 4.2,12.9 0.3,1.1 -0.1,3.7 -1.4,4.5 l -4.4,2.7 -0.3,1.2 -0.1,-0.2 c 0,0.3 0.1,1 0.7,1.8 1.7,2.3 3.7,4.6 5.9,6.8 2.3,2.2 4.6,4.1 6.9,5.7 0.5,0.4 1.3,0.7 1.9,0.7 l 0.3,0 0.7,-0.4 2.7,-4.2 c 1,-1.5 3.7,-1.5 3.8,-1.5 0.3,0 0.5,0 0.8,0.1 5.7,1.2 9.1,2.3 13.4,4.2 1.5,0.7 2.5,3.6 1.8,5.4 -1.5,3.8 -3.7,7.1 -6.6,9.9 -0.8,0.8 -1.7,1.6 -2.7,2.3 L 53.4,62 52,62 Z M 21.5,10.7 c -3.3,1.3 -6.4,3.3 -8.9,5.7 -0.5,0.5 -1,1.1 -1.5,1.7 l -0.2,0.6 c 0,9.6 4.8,19.9 12.7,27.7 l 0.2,0.2 c 8,7.8 18.3,12.4 28.1,12.4 l 0.6,-0.2 c 0.6,-0.5 1.2,-1 1.7,-1.5 2.6,-2.5 4.6,-5.5 5.9,-8.9 l -0.2,-1 0.2,0.2 C 60,47.4 59.9,47.2 59.9,47 L 59.5,46.7 C 55.7,45 52.5,44.9 47.2,42.9 l -0.4,0 -0.6,0 -0.6,0.4 -2.5,3.8 c -0.7,1.1 -2,1.7 -3.6,1.7 -1.3,0 -2.6,-0.4 -3.7,-1.2 C 33.4,46 31,44 28.5,41.6 26.2,39.3 24.1,36.9 22.3,34.4 21.2,33 20.8,31.3 21.1,29.8 c 0.2,-1.1 0.8,-2 1.7,-2.5 l 3.9,-2.4 0.4,-0.5 c 0.1,-0.2 0.2,-0.7 0.1,-1.1 C 26,19 24.4,14.4 23.3,11.3 L 22.6,10.7 22,10.6 21.5,10.7 Z"
       id="path4628"
       inkscape:connector-curvature="0"
       style="fill:#b4006f" /></g><g
     id="g4630"
     transform="translate(-6.0707151,-8.009358)"><defs
       id="defs4632"><path
         id="SVGID_19_"
         d="m 61.4,28.7 c -0.3,-0.6 -0.5,-1.3 -0.8,-1.9 -0.3,-0.6 -0.6,-0.7 -1.2,-0.6 -0.8,0.2 -1.5,0.4 -2.3,0.6 -1.5,0.3 -3,0.3 -4.5,-0.1 -1.9,-0.6 -2.8,-1.9 -3.5,-3.7 l 5,0 c 0.4,0 0.7,-0.3 0.7,-0.7 l 0,-1.6 C 54.8,20.3 54.5,20 54.1,20 l -5.5,0 0,-1.3 5.5,0 c 0.4,0 0.7,-0.3 0.7,-0.7 l 0,-1.6 c 0,-0.4 -0.3,-0.7 -0.7,-0.7 l -4.8,0 0,0 c 0.6,-1.3 1.4,-2.4 2.8,-2.9 1.6,-0.6 3.3,-0.6 4.9,-0.3 0.8,0.1 1.5,0.4 2.3,0.6 0.6,0.1 0.9,0 1.2,-0.6 0.3,-0.6 0.5,-1.3 0.8,-1.9 C 61.6,10 61.4,9.6 60.8,9.3 60.7,9.2 60.5,9.2 60.4,9.1 58.1,8.2 55.7,7.8 53.2,8.2 c -1.7,0.3 -3.4,0.9 -4.8,2 -1.8,1.4 -2.9,3.2 -3.6,5.3 l -0.1,0.3 -2.5,0 c -0.4,0 -0.7,0.3 -0.7,0.7 l 0,1.6 c 0,0.4 0.3,0.7 0.7,0.7 l 1.9,0 0,1.3 -1.9,0 c -0.4,0 -0.7,0.3 -0.7,0.7 l 0,1.6 c 0,0.4 0.3,0.7 0.7,0.7 l 2.3,0 c 0.2,0.6 0.3,1.2 0.5,1.7 1.2,2.9 3.2,4.9 6.2,5.9 2.5,0.8 5,0.8 7.5,0.1 0.6,-0.2 1.3,-0.4 1.9,-0.7 0.9,-0.4 1.1,-0.9 0.8,-1.4"
         inkscape:connector-curvature="0" /></defs><clipPath
       id="SVGID_2_"><use
         xlink:href="#SVGID_19_"
         overflow="visible"
         id="use4636"
         style="overflow:visible"
         x="0"
         y="0"
         width="100%"
         height="100%" /></clipPath><g
       clip-path="url(#SVGID_2_)"
       id="g4638"><path
         style="fill:#b4006f"
         d="m 36.599998,2.9000001 29.9,0 0,33.2999989 -29.9,0 z"
         id="rect4640" /></g></g></svg>