<?xml version="1.0" encoding="UTF-8" standalone="no"?>
<!-- Generator: Adobe Illustrator 17.1.0, SVG Export Plug-In . SVG Version: 6.00 Build 0)  -->

<svg
   xmlns:dc="http://purl.org/dc/elements/1.1/"
   xmlns:cc="http://creativecommons.org/ns#"
   xmlns:rdf="http://www.w3.org/1999/02/22-rdf-syntax-ns#"
   xmlns:svg="http://www.w3.org/2000/svg"
   xmlns="http://www.w3.org/2000/svg"
   xmlns:xlink="http://www.w3.org/1999/xlink"
   xmlns:sodipodi="http://sodipodi.sourceforge.net/DTD/sodipodi-0.dtd"
   xmlns:inkscape="http://www.inkscape.org/namespaces/inkscape"
   version="1.1"
   id="Capa_1"
   x="0px"
   y="0px"
   viewBox="0 0 59.700001 59.599997"
   enable-background="new 0 0 70 70"
   xml:space="preserve"
   inkscape:version="0.91 r13725"
   sodipodi:docname="21-ok.svg"
   width="59.700001"
   height="59.599998"><metadata
     id="metadata4658"><rdf:RDF><cc:Work
         rdf:about=""><dc:format>image/svg+xml</dc:format><dc:type
           rdf:resource="http://purl.org/dc/dcmitype/StillImage" /><dc:title></dc:title></cc:Work></rdf:RDF></metadata><defs
     id="defs4656"><clipPath
       id="SVGID_4_"><use
         xlink:href="#SVGID_209_"
         overflow="visible"
         id="use4648"
         style="overflow:visible"
         x="0"
         y="0"
         width="100%"
         height="100%" /></clipPath></defs><sodipodi:namedview
     pagecolor="#ffffff"
     bordercolor="#666666"
     borderopacity="1"
     objecttolerance="10"
     gridtolerance="10"
     guidetolerance="10"
     inkscape:pageopacity="0"
     inkscape:pageshadow="2"
     inkscape:window-width="1855"
     inkscape:window-height="1056"
     id="namedview4654"
     showgrid="false"
     fit-margin-top="0"
     fit-margin-left="0"
     fit-margin-right="0"
     fit-margin-bottom="0"
     inkscape:zoom="13.128571"
     inkscape:cx="27.321179"
     inkscape:cy="28.617189"
     inkscape:window-x="65"
     inkscape:window-y="24"
     inkscape:window-maximized="1"
     inkscape:current-layer="Capa_1" /><g
     id="g4642"
     transform="translate(-6,-79.1)"><defs
       id="defs4644"><path
         id="SVGID_209_"
         d="m 60.5,92.4 c 0,-0.1 0,-0.1 0,0 C 60.4,92.2 60.3,92 60.1,91.8 54.8,84.2 46,79.3 36.1,79.1 l -1.2,0 c -9.5,0.2 -17.9,5 -23.2,12.2 -0.1,0.1 -0.1,0.1 -0.2,0.2 -3.4,4.9 -5.5,10.9 -5.5,17.4 0,6.5 2.1,12.5 5.7,17.5 0,0 0.1,0.1 0.1,0.1 5.4,7.4 14,12.2 23.8,12.2 l 0.4,0 c 7.9,0 15.4,-3.2 21,-8.8 5.5,-5.5 8.5,-12.8 8.6,-20.6 0,-0.1 0.1,-0.3 0.1,-0.4 0,-0.2 0,-0.3 -0.1,-0.5 -0.1,-5.9 -2,-11.4 -5.1,-16 z m -26.1,-9.3 0,12.9 c -3.1,-0.1 -6.2,-0.5 -9.2,-1.2 2.1,-4.7 5.2,-8.7 9.2,-11.7 z m 0,15.7 0,8.7 -12.2,0 c 0.1,-3.5 0.8,-6.8 1.9,-10 3.3,0.8 6.8,1.2 10.3,1.3 z M 30.5,82.5 c -3.5,3.1 -6.3,7.1 -8.2,11.6 -2.4,-0.7 -4.8,-1.5 -7.2,-2.4 3.9,-4.6 9.3,-8 15.4,-9.2 z M 13.4,94 c 2.6,1.1 5.2,2.1 7.9,2.8 -1.1,3.4 -1.8,7 -1.9,10.7 l -10.5,0 c 0.3,-5 1.9,-9.6 4.5,-13.5 z m 0,29.8 c -2.7,-4 -4.2,-8.6 -4.5,-13.5 l 10.4,0 c 0.1,3.7 0.8,7.3 2,10.7 -2.7,0.8 -5.3,1.7 -7.9,2.8 z m 3.4,4.1 c -0.6,-0.6 -1.1,-1.2 -1.6,-1.8 2.3,-1 4.7,-1.8 7.2,-2.5 2,4.5 4.8,8.5 8.4,11.7 -5.3,-0.9 -10.1,-3.5 -14,-7.4 z m 17.6,6.7 c -3.9,-3 -7,-7 -9.1,-11.6 3,-0.6 6,-1 9.1,-1.1 l 0,12.7 z m 0,-15.6 c -3.5,0.1 -6.9,0.6 -10.2,1.3 -1.1,-3.1 -1.8,-6.5 -1.9,-10 l 12.1,0 0,8.7 z M 56.9,92.3 c -2.5,1 -5.1,1.8 -7.7,2.4 -2,-4.7 -4.9,-8.9 -8.6,-12.2 6.6,1.1 12.4,4.7 16.3,9.8 z m -19.7,-9 c 3.9,3 7.1,7.2 9.1,11.9 -3,0.5 -6,0.8 -9.1,0.8 l 0,-12.7 z m 0,15.6 c 3.4,0 6.8,-0.4 10.2,-1 1,3 1.6,6.3 1.8,9.6 l -12,0 0,-8.6 z m 0,11.5 11.9,0 c -0.1,3.3 -0.7,6.5 -1.7,9.6 -3.3,-0.6 -6.7,-0.9 -10.2,-0.9 l 0,-8.7 z m 0,24.1 0,-12.7 c 3.1,0 6.1,0.3 9.1,0.8 -2,4.8 -5.1,8.9 -9.1,11.9 z m 17.6,-6.6 c -3.9,3.9 -8.8,6.5 -14.1,7.5 3.7,-3.3 6.6,-7.5 8.6,-12.2 2.6,0.6 5.1,1.4 7.6,2.3 -0.6,0.9 -1.3,1.7 -2.1,2.4 z m 3.8,-4.7 c -2.7,-1.1 -5.5,-2 -8.3,-2.7 1,-3.2 1.7,-6.6 1.8,-10.2 l 10.6,0 c -0.2,4.7 -1.6,9 -4.1,12.9 z m -6.5,-15.7 0,0 c -0.1,-3.5 -0.8,-7 -1.8,-10.2 2.8,-0.7 5.6,-1.6 8.4,-2.7 2.4,3.8 3.8,8.2 4.1,12.9 l -10.7,0 z"
         inkscape:connector-curvature="0" /></defs><clipPath
       id="clipPath4673"><use
         xlink:href="#SVGID_209_"
         overflow="visible"
         id="use4675"
         style="overflow:visible"
         x="0"
         y="0"
         width="100%"
         height="100%" /></clipPath><g
       clip-path="url(#SVGID_4_)"
       id="g4650"><rect
         x="-3.7"
         y="69.5"
         width="79"
         height="78.900002"
         id="rect4652"
         style="fill:#b4006f" /></g></g></svg>