<?xml version="1.0" encoding="UTF-8" standalone="no"?>
<!-- Generator: Adobe Illustrator 17.1.0, SVG Export Plug-In . SVG Version: 6.00 Build 0)  -->

<svg
   xmlns:dc="http://purl.org/dc/elements/1.1/"
   xmlns:cc="http://creativecommons.org/ns#"
   xmlns:rdf="http://www.w3.org/1999/02/22-rdf-syntax-ns#"
   xmlns:svg="http://www.w3.org/2000/svg"
   xmlns="http://www.w3.org/2000/svg"
   xmlns:xlink="http://www.w3.org/1999/xlink"
   xmlns:sodipodi="http://sodipodi.sourceforge.net/DTD/sodipodi-0.dtd"
   xmlns:inkscape="http://www.inkscape.org/namespaces/inkscape"
   version="1.1"
   id="Capa_1"
   x="0px"
   y="0px"
   viewBox="0 0 44.200001 66.300003"
   enable-background="new 0 0 70 70"
   xml:space="preserve"
   inkscape:version="0.91 r13725"
   sodipodi:docname="iconos at-29.svg"
   width="44.200001"
   height="66.300003"><metadata
     id="metadata4553"><rdf:RDF><cc:Work
         rdf:about=""><dc:format>image/svg+xml</dc:format><dc:type
           rdf:resource="http://purl.org/dc/dcmitype/StillImage" /><dc:title></dc:title></cc:Work></rdf:RDF></metadata><defs
     id="defs4551" /><sodipodi:namedview
     pagecolor="#ffffff"
     bordercolor="#666666"
     borderopacity="1"
     objecttolerance="10"
     gridtolerance="10"
     guidetolerance="10"
     inkscape:pageopacity="0"
     inkscape:pageshadow="2"
     inkscape:window-width="1855"
     inkscape:window-height="1056"
     id="namedview4549"
     showgrid="false"
     fit-margin-top="0"
     fit-margin-left="0"
     fit-margin-right="0"
     fit-margin-bottom="0"
     inkscape:zoom="13.128571"
     inkscape:cx="21.2"
     inkscape:cy="32.9"
     inkscape:window-x="65"
     inkscape:window-y="24"
     inkscape:window-maximized="1"
     inkscape:current-layer="Capa_1" /><g
     id="g4509"
     transform="translate(-13.8,-1.6)"><defs
       id="defs4511"><path
         id="SVGID_221_"
         d="m 55.2,67.9 -38.6,0 c -1.5,0 -2.8,-1.2 -2.8,-2.8 l 0,-60.7 c 0,-1.5 1.2,-2.8 2.8,-2.8 l 38.6,0 c 1.5,0 2.8,1.2 2.8,2.8 l 0,60.7 c 0,1.5 -1.2,2.8 -2.8,2.8 z m -35.8,-5.6 33.1,0 0,-55.2 -33.1,0 0,55.2 z"
         inkscape:connector-curvature="0" /></defs><use
       xlink:href="#SVGID_221_"
       overflow="visible"
       id="use4514"
       style="clip-rule:evenodd;overflow:visible;fill:#b4006f;fill-rule:evenodd"
       x="0"
       y="0"
       width="100%"
       height="100%" /><clipPath
       id="SVGID_2_"><use
         xlink:href="#SVGID_221_"
         overflow="visible"
         id="use4517"
         style="overflow:visible"
         x="0"
         y="0"
         width="100%"
         height="100%" /></clipPath></g><g
     id="g4519"
     transform="translate(-13.8,-1.6)"><defs
       id="defs4521"><path
         id="SVGID_223_"
         d="m 49.2,49.5 -26.7,0 c -0.7,0 -1.3,-0.6 -1.3,-1.4 l 0,-35 c 0,-0.8 0.6,-1.4 1.3,-1.4 l 26.7,0 c 0.7,0 1.3,0.6 1.3,1.4 l 0,35 c 0,0.8 -0.6,1.4 -1.3,1.4 z m -25.4,-2.7 24,0 0,-32.2 -24,0 0,32.2 z"
         inkscape:connector-curvature="0" /></defs><use
       xlink:href="#SVGID_223_"
       overflow="visible"
       id="use4524"
       style="clip-rule:evenodd;overflow:visible;fill:#b4006f;fill-rule:evenodd"
       x="0"
       y="0"
       width="100%"
       height="100%" /><clipPath
       id="SVGID_4_"><use
         xlink:href="#SVGID_223_"
         overflow="visible"
         id="use4527"
         style="overflow:visible"
         x="0"
         y="0"
         width="100%"
         height="100%" /></clipPath></g><g
     id="g4529"
     transform="translate(-13.8,-1.6)"><defs
       id="defs4531"><path
         id="SVGID_225_"
         d="m 38.1,55.9 c 0,1.8 -1.5,3.3 -3.3,3.3 -1.8,0 -3.3,-1.5 -3.3,-3.3 0,-1.8 1.5,-3.3 3.3,-3.3 1.8,0 3.3,1.4 3.3,3.3"
         inkscape:connector-curvature="0" /></defs><use
       xlink:href="#SVGID_225_"
       overflow="visible"
       id="use4534"
       style="clip-rule:evenodd;overflow:visible;fill:#b4006f;fill-rule:evenodd"
       x="0"
       y="0"
       width="100%"
       height="100%" /><clipPath
       id="SVGID_6_"><use
         xlink:href="#SVGID_225_"
         overflow="visible"
         id="use4537"
         style="overflow:visible"
         x="0"
         y="0"
         width="100%"
         height="100%" /></clipPath></g><g
     id="g4539"
     transform="translate(-13.8,-1.6)"><g
       id="g4541"><path
         d="m 24.5,27.3 2.3,0 1.3,2.5 1.3,-2.5 2.3,0 -2.3,4 2.3,4.1 -2.3,0 -1.3,-2.4 -1.3,2.5 -2.3,0 2.2,-4.1 -2.2,-4.1 z"
         id="path4543"
         inkscape:connector-curvature="0"
         style="fill:#b4006f" /><path
         d="m 32.2,27.3 2.3,0 1.3,2.5 1.3,-2.5 2.3,0 -2.3,4 2.3,4.1 -2.3,0 -1.3,-2.4 -1.3,2.5 -2.3,0 2.2,-4.1 -2.2,-4.1 z"
         id="path4545"
         inkscape:connector-curvature="0"
         style="fill:#b4006f" /><path
         d="m 39.9,27.3 2.3,0 1.3,2.5 1.3,-2.5 2.3,0 -2.3,4 2.3,4.1 -2.3,0 -1.3,-2.4 -1.3,2.5 -2.3,0 2.2,-4.1 -2.2,-4.1 z"
         id="path4547"
         inkscape:connector-curvature="0"
         style="fill:#b4006f" /></g></g></svg>