<?xml version="1.0" encoding="UTF-8" standalone="no"?>
<!-- Generator: Adobe Illustrator 17.1.0, SVG Export Plug-In . SVG Version: 6.00 Build 0)  -->

<svg
   xmlns:dc="http://purl.org/dc/elements/1.1/"
   xmlns:cc="http://creativecommons.org/ns#"
   xmlns:rdf="http://www.w3.org/1999/02/22-rdf-syntax-ns#"
   xmlns:svg="http://www.w3.org/2000/svg"
   xmlns="http://www.w3.org/2000/svg"
   xmlns:sodipodi="http://sodipodi.sourceforge.net/DTD/sodipodi-0.dtd"
   xmlns:inkscape="http://www.inkscape.org/namespaces/inkscape"
   version="1.1"
   id="Capa_1"
   x="0px"
   y="0px"
   viewBox="0 0 43.599998 65.699997"
   enable-background="new 0 0 70 70"
   xml:space="preserve"
   inkscape:version="0.91 r13725"
   sodipodi:docname="iconos at-31.svg"
   width="43.599998"
   height="65.699997"><metadata
     id="metadata5652"><rdf:RDF><cc:Work
         rdf:about=""><dc:format>image/svg+xml</dc:format><dc:type
           rdf:resource="http://purl.org/dc/dcmitype/StillImage" /><dc:title></dc:title></cc:Work></rdf:RDF></metadata><defs
     id="defs5650" /><sodipodi:namedview
     pagecolor="#ffffff"
     bordercolor="#666666"
     borderopacity="1"
     objecttolerance="10"
     gridtolerance="10"
     guidetolerance="10"
     inkscape:pageopacity="0"
     inkscape:pageshadow="2"
     inkscape:window-width="1855"
     inkscape:window-height="1056"
     id="namedview5648"
     showgrid="false"
     fit-margin-top="0"
     fit-margin-left="0"
     fit-margin-right="0"
     fit-margin-bottom="0"
     inkscape:zoom="13.128571"
     inkscape:cx="19.5"
     inkscape:cy="32.7"
     inkscape:window-x="65"
     inkscape:window-y="24"
     inkscape:window-maximized="1"
     inkscape:current-layer="Capa_1" /><g
     id="g5642"
     transform="translate(-15.5,-2)"><path
       d="m 37.3,13 c -5.9,0 -10.8,4.8 -10.8,10.8 0,6 4.8,10.8 10.8,10.8 6,0 10.8,-4.8 10.8,-10.8 0,-6 -4.8,-10.8 -10.8,-10.8 z m 6.9,10.8 c 0,3.8 -3.1,6.9 -6.9,6.9 -3.8,0 -6.9,-3.1 -6.9,-6.9 0,-3.8 3.1,-6.9 6.9,-6.9 3.8,0 6.9,3.1 6.9,6.9 z"
       id="path5644"
       inkscape:connector-curvature="0"
       style="fill:#b4006f" /><path
       d="M 59.1,23.8 C 59.1,11.8 49.3,2 37.3,2 25.3,2 15.5,11.8 15.5,23.8 15.5,28 16.7,32 19,35.6 l 10.5,16.3 c -0.7,0.2 -1.3,0.5 -1.9,0.8 -3,1.6 -4.7,3.9 -4.7,6.4 0,2.5 1.7,4.8 4.7,6.4 2.6,1.4 6.1,2.2 9.8,2.2 3.7,0 7.1,-0.8 9.8,-2.2 3,-1.6 4.7,-3.9 4.7,-6.4 0,-2.5 -1.7,-4.8 -4.7,-6.4 C 46.6,52.4 46,52.1 45.3,51.9 L 55.8,35.6 C 57.9,32 59.1,28 59.1,23.8 Z M 37.3,57 22.2,33.5 c -1.9,-2.9 -2.8,-6.3 -2.8,-9.7 0,-9.9 8.1,-17.9 17.9,-17.9 9.8,0 17.9,8 17.9,17.9 0,3.4 -1,6.8 -2.9,9.7 L 37.3,57 Z m -5.7,-1.8 4.1,6.4 c 0.4,0.6 1,0.9 1.6,0.9 0.7,0 1.3,-0.3 1.6,-0.9 L 43,55.2 c 0.8,0.3 1.6,0.6 2.2,0.9 1.7,0.9 2.6,2 2.6,3 0,1 -1,2.1 -2.6,3 -2.1,1.1 -5,1.7 -8,1.7 -3,0 -5.9,-0.6 -8,-1.7 -1.7,-0.9 -2.6,-2 -2.6,-3 0,-1 1,-2.1 2.6,-3 0.8,-0.3 1.6,-0.6 2.4,-0.9 z"
       id="path5646"
       inkscape:connector-curvature="0"
       style="fill:#b4006f" /></g></svg>