<?xml version="1.0" encoding="utf-8"?>
<!-- Generator: Adobe Illustrator 17.1.0, SVG Export Plug-In . SVG Version: 6.00 Build 0)  -->
<!DOCTYPE svg PUBLIC "-//W3C//DTD SVG 1.1//EN" "http://www.w3.org/Graphics/SVG/1.1/DTD/svg11.dtd">
<svg version="1.1" id="Capa_1" xmlns="http://www.w3.org/2000/svg" xmlns:xlink="http://www.w3.org/1999/xlink" x="0px" y="0px"
	 viewBox="0 0 70 70" enable-background="new 0 0 70 70" xml:space="preserve">
<g>
	<defs>
		<path id="SVGID_213_" d="M31.7,6.3c-3.6,0-6.5,3.4-6.5,7.5c0,4.1,2.9,7.5,6.5,7.5s6.5-3.4,6.5-7.5C38.2,9.6,35.3,6.3,31.7,6.3z
			 M31.7,25.7c-6.1,0-11.1-5.4-11.1-11.9c0-6.6,5-11.9,11.1-11.9s11.1,5.4,11.1,11.9C42.9,20.3,37.9,25.7,31.7,25.7z M16.2,52.5
			h27.4l0.5-9.6c0.1-2-1.4-5.1-3.5-6C33.7,34,26,34,19.1,36.9c-2.1,0.9-3.6,4-3.5,6L16.2,52.5z M14.2,57.5c-1.1,0-2.1-1-2.1-2.4
			l-0.7-11.9c-0.2-4.4,2.6-9.5,6.3-11.1c7.9-3.3,16.6-3.3,24.4,0c3.7,1.6,6.6,6.7,6.3,11.1l-0.7,11.9c-0.1,1.3-1,2.4-2.1,2.4H14.2z"
			/>
	</defs>
	<use xlink:href="#SVGID_213_"  overflow="visible" fill-rule="evenodd" clip-rule="evenodd" fill="#B4006F"/>
	<clipPath id="SVGID_2_">
		<use xlink:href="#SVGID_213_"  overflow="visible"/>
	</clipPath>
</g>
<circle fill="#FFFFFF" cx="47" cy="54.7" r="9.2"/>
<g>
	<defs>
		<path id="SVGID_215_" d="M53.8,56.4h-5v5h-3.5v-5h-5v-3.5h5v-5h3.5v5h5L53.8,56.4L53.8,56.4z M47,41.8c-7.1,0-12.8,5.8-12.8,12.8
			c0,7.1,5.8,12.8,12.8,12.8s12.8-5.8,12.8-12.8C59.9,47.6,54.1,41.8,47,41.8z"/>
	</defs>
	<use xlink:href="#SVGID_215_"  overflow="visible" fill-rule="evenodd" clip-rule="evenodd" fill="#B4006F"/>
	<clipPath id="SVGID_4_">
		<use xlink:href="#SVGID_215_"  overflow="visible"/>
	</clipPath>
</g>
</svg>
