<?xml version="1.0" encoding="utf-8"?>
<!-- Generator: Adobe Illustrator 17.1.0, SVG Export Plug-In . SVG Version: 6.00 Build 0)  -->
<!DOCTYPE svg PUBLIC "-//W3C//DTD SVG 1.1//EN" "http://www.w3.org/Graphics/SVG/1.1/DTD/svg11.dtd">
<svg version="1.1" id="Capa_1" xmlns="http://www.w3.org/2000/svg" xmlns:xlink="http://www.w3.org/1999/xlink" x="0px" y="0px"
	 viewBox="0 0 70 70" enable-background="new 0 0 70 70" xml:space="preserve">
<g>
	<path fill="#B4006F" d="M65.8,19.7l-0.2-0.1v-0.7c0-0.2,0.2-5.3-0.1-7c-0.3-1.3-1.1-2.5-2.2-3.8c-1.2-1.4-4.1-3.3-7-3.4
		c-2.2-0.1-8.7-0.2-8.7-0.2H37.4c-5.9,0-10.1,4.1-10.1,9.8v5.3L27,19.7c-1.6,1.2-2.7,3.1-3,5.1c0,0.1,0,0.1,0,0.2h-9.8
		c-5.9,0-10.1,4.1-10.1,9.8v5.3l-0.3,0.2c-1.9,1.4-3.1,3.8-3.1,6.2v16.2c0,0.6,0.1,1.5,0.7,2.1c0.6,0.6,1.3,1,1.9,1h6.4
		c0.8,0,1.4-0.3,1.9-0.8c0.6-0.6,0.5-1.5,0.5-2.1l0-0.2v-2.4l21.5,0c0,0.6,0,1.7,0,2.5c0,0.8,0.3,1.5,0.9,2.1
		c0.4,0.4,1.2,0.9,2.1,0.9h5.9c0.7,0,1.9-0.2,2.4-1c0.4-0.7,0.5-0.9,0.5-2.1l0-16.2c0-2.4-1.1-4.8-3-6.2l-0.2-0.1v-0.4l14.5,0
		c0,0.6,0,1.7,0,2.5c0,0.8,0.3,1.5,0.9,2.1c0.4,0.4,1.2,0.9,2.1,0.9h5.9c0.7,0,1.9-0.2,2.4-1c0.4-0.7,0.5-0.9,0.5-2.1l0-16.2
		C68.8,23.5,67.7,21.1,65.8,19.7z M42.3,32.4c-0.3-1.3-1.1-2.5-2.2-3.8c-1.2-1.4-4.1-3.3-7-3.4c-1.3,0-4.1-0.1-6.2-0.1
		c0.2-0.8,0.7-1.9,2.2-2.7l0.1-0.1c0.7-0.5,0.8-0.8,0.8-1.7l0-6.6c0-3.8,3.9-6.7,7.4-6.7h18.5c3.7,0,6.9,3.1,6.9,6.7l0,6.6
		c0,1,0.4,1.3,1.1,1.7c0.7,0.4,2.2,1.7,2.2,3.7c0,2.2-0.1,9.2-0.1,10.8H42.5C42.5,35.3,42.5,33.3,42.3,32.4z M5.9,42.9L6,42.8
		c0.7-0.5,0.8-0.8,0.8-1.7l0-6.7c0-3.8,3.9-6.7,7.4-6.7h18.5c3.7,0,6.9,3.1,6.9,6.7l0,6.6c0,1,0.4,1.3,1.1,1.7
		c0.7,0.4,2.2,1.7,2.2,3.7c0,2.2-0.1,9.2-0.1,10.8H3.5l0.1-10.8C3.6,45,4.4,43.7,5.9,42.9z M9.6,62.8C9.5,63,9.3,63.1,9,63.1H4
		c-0.2,0-0.4-0.1-0.5-0.3c-0.1-0.2-0.1-0.8-0.1-1.3v-1.1h6.4l0,1.2C9.7,62.3,9.7,62.7,9.6,62.8z M42.7,62.8
		c-0.1,0.2-0.4,0.3-0.6,0.3h-5c-0.2,0-0.4-0.1-0.5-0.3c-0.1-0.2-0.1-0.8-0.1-1.3v-1.1h6.4l0,1.2C42.8,62.3,42.8,62.7,42.7,62.8z
		 M65.9,42.3c-0.1,0.2-0.4,0.3-0.6,0.3h-5c-0.2,0-0.4-0.1-0.5-0.3c-0.1-0.2-0.1-0.8-0.1-1.3v-1.1H66l0,1.2
		C66,41.8,66,42.2,65.9,42.3z"/>
	<path fill="#B4006F" d="M56.9,21.4c0,0,1.1,0.3,1.3,0.3c0.5,0,1.1-0.3,1.5-0.6c0.4-0.4,0.6-0.8,0.6-1.3V16c0-1.7-0.7-3.1-2.1-4.1
		C57.1,11,55.5,11,53.7,11H39.8c-1.9,0-3.6,0-4.8,0.9c-1.6,1.2-2.3,2.6-2.3,4.1v3.2c0,1.1,0.5,1.8,0.8,2.1c0.3,0.3,0.9,0.5,1.8,0.5
		c0.2,0,0.3,0,0.5-0.1c3.2-1,5.8-1.5,11-1.5C52.1,20.2,53.7,20.5,56.9,21.4z M36.4,14.1c0.4-0.2,1.1-0.3,2.1-0.3c0.3,0,0.6,0,0.8,0
		c0.2,0,0.3,0,0.4,0h13.9l0.3,0c0.2,0,0.4,0,0.6,0c1.6,0,2.2,0.3,2.4,0.5c0.3,0.4,1,1.5,1,2l0,2.6c-1.3-0.4-5.3-1.4-10.3-1.4
		c-0.3,0-0.6,0-0.9,0c-0.3,0-0.6,0-0.8,0c-5,0-9.5,0.8-10.9,1.1l0-2.4C35.1,15.1,35.8,14.5,36.4,14.1z"/>
	<circle fill="#B4006F" cx="59.1" cy="26.8" r="2.7"/>
	<path fill="#B4006F" d="M11.1,50c1.5,0,2.7-1.2,2.7-2.7c0-1.5-1.2-2.7-2.7-2.7c-1.5,0-2.7,1.2-2.7,2.7C8.5,48.8,9.7,50,11.1,50z"/>
	<path fill="#B4006F" d="M12,42.2c0.2,0,0.3,0,0.5-0.1c3.2-1,5.8-1.5,11-1.5c5.4,0,7,0.3,10.1,1.2c0,0,1.1,0.3,1.3,0.3
		c0.5,0,1.1-0.3,1.5-0.6c0.4-0.4,0.6-0.8,0.6-1.3v-3.9c0-1.7-0.7-3.1-2.1-4.1c-1.2-0.9-2.8-0.9-4.6-0.9H16.5c-1.9,0-3.6,0-4.8,0.9
		c-1.6,1.2-2.3,2.6-2.3,4.1v3.2c0,1,0.4,1.7,0.8,2.1C10.5,42.1,11.1,42.2,12,42.2z M13.2,34.6c0.4-0.2,1.1-0.3,2.1-0.3
		c0.3,0,0.6,0,0.8,0c0.2,0,0.3,0,0.4,0h13.9c0,0,0.7,0,0.9,0c1.6,0,2.2,0.3,2.4,0.5c0.3,0.4,1,1.5,1,2l0,2.6
		c-1.3-0.4-5.3-1.4-10.3-1.4c-0.3,0-0.6,0-0.9,0c-0.3,0-0.6,0-0.8,0c-5,0-9.5,0.8-10.9,1.1l0-2.4C11.9,35.6,12.6,35,13.2,34.6z"/>
	<circle fill="#B4006F" cx="35.9" cy="47.3" r="2.7"/>
</g>
</svg>
