<?xml version="1.0" encoding="utf-8"?>
<!-- Generator: Adobe Illustrator 17.1.0, SVG Export Plug-In . SVG Version: 6.00 Build 0)  -->
<!DOCTYPE svg PUBLIC "-//W3C//DTD SVG 1.1//EN" "http://www.w3.org/Graphics/SVG/1.1/DTD/svg11.dtd">
<svg version="1.1" id="Capa_1" xmlns="http://www.w3.org/2000/svg" xmlns:xlink="http://www.w3.org/1999/xlink" x="0px" y="0px"
	 viewBox="0 0 70 70" enable-background="new 0 0 70 70" xml:space="preserve">
<g>
	<g>
		<path fill="#B4006F" d="M59.8,64.7H29.5c-3.3,0-6-2.7-6-6v-8.7c0-1.5,1.2-2.7,2.7-2.7s2.7,1.2,2.7,2.7v8.7c0,0.4,0.3,0.7,0.7,0.7
			h30.3c0.4,0,0.7-0.3,0.7-0.7V10.4c0-0.4-0.3-0.7-0.7-0.7H29.5c-0.4,0-0.7,0.3-0.7,0.7v9.4c0,1.5-1.2,2.7-2.7,2.7
			c-1.5,0-2.7-1.2-2.7-2.7v-9.4c0-3.3,2.7-6,6-6h30.3c3.3,0,6,2.7,6,6v48.3C65.8,62,63.1,64.7,59.8,64.7z"/>
	</g>
</g>
<path fill="#B4006F" d="M48.9,32.7L39.2,23c-1-1-2.7-1-3.7,0c-1,1-1,2.9,0,4l4.8,5H8.2C5.9,32,4,33.2,4,35.5S5.9,39,8.2,39h32.1
	l-4.8,4.1c-1,1-1,2.4,0,3.4c0.5,0.5,1.2,0.6,1.9,0.6c0.7,0,1.4-0.4,1.9-0.9l9.6-9.7c0.5-0.5,0.8-1.3,0.8-2
	C49.7,33.9,49.4,33.2,48.9,32.7z"/>
</svg>
