<?xml version="1.0" encoding="UTF-8" standalone="no"?>
<!-- Generator: Adobe Illustrator 17.1.0, SVG Export Plug-In . SVG Version: 6.00 Build 0)  -->

<svg
   xmlns:dc="http://purl.org/dc/elements/1.1/"
   xmlns:cc="http://creativecommons.org/ns#"
   xmlns:rdf="http://www.w3.org/1999/02/22-rdf-syntax-ns#"
   xmlns:svg="http://www.w3.org/2000/svg"
   xmlns="http://www.w3.org/2000/svg"
   xmlns:xlink="http://www.w3.org/1999/xlink"
   xmlns:sodipodi="http://sodipodi.sourceforge.net/DTD/sodipodi-0.dtd"
   xmlns:inkscape="http://www.inkscape.org/namespaces/inkscape"
   version="1.1"
   id="Capa_1"
   x="0px"
   y="0px"
   viewBox="0 0 92 38.200001"
   enable-background="new 0 0 96 70"
   xml:space="preserve"
   inkscape:version="0.91 r13725"
   sodipodi:docname="iconos at-34.svg"
   width="92"
   height="38.200001"><metadata
     id="metadata4419"><rdf:RDF><cc:Work
         rdf:about=""><dc:format>image/svg+xml</dc:format><dc:type
           rdf:resource="http://purl.org/dc/dcmitype/StillImage" /><dc:title></dc:title></cc:Work></rdf:RDF></metadata><defs
     id="defs4417" /><sodipodi:namedview
     pagecolor="#ffffff"
     bordercolor="#666666"
     borderopacity="1"
     objecttolerance="10"
     gridtolerance="10"
     guidetolerance="10"
     inkscape:pageopacity="0"
     inkscape:pageshadow="2"
     inkscape:window-width="1855"
     inkscape:window-height="1056"
     id="namedview4415"
     showgrid="false"
     fit-margin-top="0"
     fit-margin-left="0"
     fit-margin-right="0"
     fit-margin-bottom="0"
     inkscape:zoom="13.128571"
     inkscape:cx="45.6"
     inkscape:cy="19.7"
     inkscape:window-x="65"
     inkscape:window-y="24"
     inkscape:window-maximized="1"
     inkscape:current-layer="Capa_1" /><path
     d="m 67.5,38.2 c -0.5,0 -0.9,-0.4 -0.9,-0.8 l 0,-36.6 C 66.6,0.3 67,0 67.5,0 L 91.1,0 C 91.6,0 92,0.4 92,0.8 l 0,36.6 c 0,0.5 -0.4,0.8 -0.9,0.8 l -23.6,0 z m 0.9,-1.7 21.9,0 0,-34.8 -21.9,0 0,34.8 z"
     id="path4367"
     inkscape:connector-curvature="0"
     style="fill:#b4006f" /><g
     id="g4369"
     transform="translate(-2.4,-16.5)"><defs
       id="defs4371"><path
         id="SVGID_227_"
         d="m 90.1,44.5 -16.8,0 c -0.5,0 -0.8,-0.4 -0.8,-0.8 l 0,-21 c 0,-0.5 0.4,-0.8 0.8,-0.8 l 16.8,0 c 0.5,0 0.8,0.4 0.8,0.8 l 0,21 c 0.1,0.4 -0.3,0.8 -0.8,0.8 z m -16,-1.6 15.2,0 0,-19.4 -15.2,0 0,19.4 z"
         inkscape:connector-curvature="0" /></defs><use
       xlink:href="#SVGID_227_"
       overflow="visible"
       id="use4374"
       style="clip-rule:evenodd;overflow:visible;fill:#b4006f;fill-rule:evenodd"
       x="0"
       y="0"
       width="100%"
       height="100%" /><clipPath
       id="SVGID_2_"><use
         xlink:href="#SVGID_227_"
         overflow="visible"
         id="use4377"
         style="overflow:visible"
         x="0"
         y="0"
         width="100%"
         height="100%" /></clipPath></g><g
     id="g4379"
     transform="translate(-2.4,-16.5)"><defs
       id="defs4381"><path
         id="SVGID_229_"
         d="m 83,48.3 c 0,1.1 -0.9,2 -2,2 -1.1,0 -2,-0.9 -2,-2 0,-1.1 0.9,-2 2,-2 1.1,0.1 2,0.9 2,2"
         inkscape:connector-curvature="0" /></defs><use
       xlink:href="#SVGID_229_"
       overflow="visible"
       id="use4384"
       style="clip-rule:evenodd;overflow:visible;fill:#b4006f;fill-rule:evenodd"
       x="0"
       y="0"
       width="100%"
       height="100%" /><clipPath
       id="SVGID_4_"><use
         xlink:href="#SVGID_229_"
         overflow="visible"
         id="use4387"
         style="overflow:visible"
         x="0"
         y="0"
         width="100%"
         height="100%" /></clipPath></g><path
     d="M 0.7,38 C 0.3,38 0,37.5 0,36.9 l 0,-6.4 c 0,-2.8 1.5,-5.4 4.2,-7.1 2.5,-1.7 5.7,-2.5 9.4,-2.5 3.6,0 6.9,0.9 9.4,2.5 2.7,1.8 4.2,4.4 4.2,7.1 l 0,6.4 c 0,0.6 -0.3,1.1 -0.7,1.1 L 0.7,38 Z M 13.5,22.8 C 10.3,22.8 7.2,23.7 5,25.2 2.4,27 1.8,29 1.8,30.4 l 0,5.4 23.4,0 0,-5.4 C 25.2,29 24.6,27 22,25.2 19.8,23.7 16.7,22.8 13.5,22.8 Z m -0.1,-4.9 c -4.5,0 -8.2,-3.7 -8.2,-8.2 0,-4.5 3.7,-8.2 8.2,-8.2 4.5,0 8.2,3.7 8.2,8.2 0,4.5 -3.6,8.2 -8.2,8.2 z m 0,-14.3 c -3.4,0 -6.1,2.7 -6.1,6.1 0,3.4 2.7,6.1 6.1,6.1 3.4,0 6.1,-2.7 6.1,-6.1 0,-3.4 -2.6,-6.1 -6.1,-6.1 z"
     id="path4389"
     inkscape:connector-curvature="0"
     style="fill:#b4006f" /><g
     id="g4391"
     transform="translate(-2.4,-16.5)"><defs
       id="defs4393"><path
         id="SVGID_231_"
         d="m 39.6,43 c 0,0.1 0.1,0.3 0.2,0.4 l 3.5,3.8 c 0.2,0.2 0.6,0.3 0.9,0 0.2,-0.2 0.2,-0.6 0,-0.9 l -2.5,-2.8 16.3,0 c 0.3,0 0.6,-0.3 0.6,-0.6 0,-0.3 -0.3,-0.6 -0.6,-0.6 l -16.3,0 2.5,-2.5 c 0.2,-0.2 0.2,-0.6 0,-0.9 -0.2,-0.2 -0.6,-0.2 -0.9,0 l -3.5,3.5 c -0.1,0.3 -0.2,0.5 -0.2,0.6 z"
         inkscape:connector-curvature="0" /></defs><clipPath
       id="SVGID_6_"><use
         xlink:href="#SVGID_231_"
         overflow="visible"
         id="use4397"
         style="overflow:visible"
         x="0"
         y="0"
         width="100%"
         height="100%" /></clipPath></g><g
     id="g4399"
     transform="translate(-2.4,-16.5)"><path
       d="m 39.6,43 c 0,0.1 0.1,0.3 0.2,0.4 l 3.5,3.8 c 0.2,0.2 0.6,0.3 0.9,0 0.2,-0.2 0.2,-0.6 0,-0.9 l -2.5,-2.8 16.3,0 c 0.3,0 0.6,-0.3 0.6,-0.6 0,-0.3 -0.3,-0.6 -0.6,-0.6 l -16.3,0 2.5,-2.5 c 0.2,-0.2 0.2,-0.6 0,-0.9 -0.2,-0.2 -0.6,-0.2 -0.9,0 l -3.5,3.5 c -0.1,0.3 -0.2,0.5 -0.2,0.6 z"
       id="path4401"
       inkscape:connector-curvature="0"
       style="fill:#b4006f" /></g><g
     id="g4403"
     transform="translate(-2.4,-16.5)"><defs
       id="defs4405"><path
         id="SVGID_233_"
         d="m 58.6,31.1 c 0,-0.1 -0.1,-0.3 -0.2,-0.4 L 55,26.9 c -0.2,-0.2 -0.6,-0.3 -0.9,0 -0.2,0.2 -0.2,0.6 0,0.9 l 2.5,2.8 -16.4,0 c -0.3,0 -0.6,0.3 -0.6,0.6 0,0.3 0.3,0.6 0.6,0.6 l 16.4,0 -2.5,2.5 c -0.2,0.2 -0.2,0.6 0,0.9 0.2,0.2 0.6,0.2 0.9,0 l 3.5,-3.5"
         inkscape:connector-curvature="0" /></defs><clipPath
       id="SVGID_8_"><use
         xlink:href="#SVGID_233_"
         overflow="visible"
         id="use4409"
         style="overflow:visible"
         x="0"
         y="0"
         width="100%"
         height="100%" /></clipPath></g><g
     id="g4411"
     transform="translate(-2.4,-16.5)"><path
       d="m 58.6,31.1 c 0,-0.1 -0.1,-0.3 -0.2,-0.4 L 55,26.9 c -0.2,-0.2 -0.6,-0.3 -0.9,0 -0.2,0.2 -0.2,0.6 0,0.9 l 2.5,2.8 -16.4,0 c -0.3,0 -0.6,0.3 -0.6,0.6 0,0.3 0.3,0.6 0.6,0.6 l 16.4,0 -2.5,2.5 c -0.2,0.2 -0.2,0.6 0,0.9 0.2,0.2 0.6,0.2 0.9,0 l 3.5,-3.5"
       id="path4413"
       inkscape:connector-curvature="0"
       style="fill:#b4006f" /></g></svg>