<?xml version="1.0" encoding="UTF-8" standalone="no"?>
<!-- Generator: Adobe Illustrator 17.1.0, SVG Export Plug-In . SVG Version: 6.00 Build 0)  -->

<svg
   xmlns:dc="http://purl.org/dc/elements/1.1/"
   xmlns:cc="http://creativecommons.org/ns#"
   xmlns:rdf="http://www.w3.org/1999/02/22-rdf-syntax-ns#"
   xmlns:svg="http://www.w3.org/2000/svg"
   xmlns="http://www.w3.org/2000/svg"
   xmlns:sodipodi="http://sodipodi.sourceforge.net/DTD/sodipodi-0.dtd"
   xmlns:inkscape="http://www.inkscape.org/namespaces/inkscape"
   version="1.1"
   id="Capa_1"
   x="0px"
   y="0px"
   viewBox="0 0 49 65.699997"
   enable-background="new 0 0 70 70"
   xml:space="preserve"
   inkscape:version="0.91 r13725"
   sodipodi:docname="iconos at-30.svg"
   width="49"
   height="65.699997"><metadata
     id="metadata5586"><rdf:RDF><cc:Work
         rdf:about=""><dc:format>image/svg+xml</dc:format><dc:type
           rdf:resource="http://purl.org/dc/dcmitype/StillImage" /><dc:title></dc:title></cc:Work></rdf:RDF></metadata><defs
     id="defs5584" /><sodipodi:namedview
     pagecolor="#ffffff"
     bordercolor="#666666"
     borderopacity="1"
     objecttolerance="10"
     gridtolerance="10"
     guidetolerance="10"
     inkscape:pageopacity="0"
     inkscape:pageshadow="2"
     inkscape:window-width="1855"
     inkscape:window-height="1056"
     id="namedview5582"
     showgrid="false"
     fit-margin-top="0"
     fit-margin-left="0"
     fit-margin-right="0"
     fit-margin-bottom="0"
     inkscape:zoom="13.128571"
     inkscape:cx="24.8"
     inkscape:cy="32.7"
     inkscape:window-x="65"
     inkscape:window-y="24"
     inkscape:window-maximized="1"
     inkscape:current-layer="Capa_1" /><path
     d="M 1.4,65.7 C 0.6,65.7 0,64.8 0,63.7 L 0,52.1 c 0,-5 2.8,-9.7 7.6,-12.9 4.5,-3 10.4,-4.6 16.9,-4.6 6.5,0 12.4,1.6 16.9,4.6 4.8,3.2 7.6,7.9 7.6,12.9 l 0,11.6 c 0,1.1 -0.6,2 -1.4,2 l -46.2,0 z M 24.5,39 C 18.7,39 13.2,40.5 9.2,43.2 4.5,46.4 3.5,50 3.5,52.4 l 0.1,9.1 42,0 -0.1,-9.1 c 0,-2.4 -1,-6 -5.7,-9.2 C 35.8,40.5 30.2,39 24.5,39 Z M 24.4,29.7 C 16.2,29.7 9.5,23 9.5,14.9 9.5,6.7 16.2,0 24.4,0 c 8.2,0 14.9,6.7 14.9,14.8 0,8.2 -6.7,14.9 -14.9,14.9 z m 0,-25.8 c -6.1,0 -10.9,4.8 -10.9,10.9 0,6.1 4.8,10.9 10.9,10.9 6.1,0 10.9,-4.8 10.9,-10.9 C 35.3,8.7 30.5,3.9 24.4,3.9 Z"
     id="path5580"
     inkscape:connector-curvature="0"
     style="fill:#b4006f" /></svg>