<?xml version="1.0" encoding="utf-8"?>
<!-- Generator: Adobe Illustrator 17.1.0, SVG Export Plug-In . SVG Version: 6.00 Build 0)  -->
<!DOCTYPE svg PUBLIC "-//W3C//DTD SVG 1.1//EN" "http://www.w3.org/Graphics/SVG/1.1/DTD/svg11.dtd">
<svg version="1.1" id="Capa_1" xmlns="http://www.w3.org/2000/svg" xmlns:xlink="http://www.w3.org/1999/xlink" x="0px" y="0px"
	 viewBox="0 0 70 70" enable-background="new 0 0 70 70" xml:space="preserve">
<g>
	<path fill="#B4006F" d="M55.9,64.8H14.3c-0.8,0-1.5-0.7-1.5-1.5c0-0.8,0.7-1.5,1.5-1.5h5.6l4.7-21.4h20.6l4.3,18.5l-20.3,1v0.7
		l21,1l0,0.1h5.6c0.8,0,1.5,0.7,1.5,1.5C57.4,64.1,56.7,64.8,55.9,64.8z M34.7,5.3c1.2,0,2.6,1.2,2.9,2.5l1,4.5h-7.7l1-4.5
		C32.2,6.5,33.5,5.3,34.7,5.3z M43.5,33l1.2,5.2H25.2l1.2-5.2H43.5z M40.9,21.9l2.1,8.9H26.8l2-8.9H40.9z M40.4,19.7H29.3l1.2-5.2
		h8.8L40.4,19.7z M55.9,58.8h-3.3L40.5,7.1c-0.6-2.7-3.2-4.8-5.8-4.8c-2.6,0-5.1,2.1-5.7,4.8L17.5,58.8h-3.3c-2.5,0-4.4,2-4.4,4.4
		c0,2.5,2,4.4,4.4,4.4h41.6c2.5,0,4.4-2,4.4-4.4C60.4,60.8,58.4,58.8,55.9,58.8z"/>
</g>
</svg>
