<?xml version="1.0" encoding="utf-8"?>
<!-- Generator: Adobe Illustrator 17.1.0, SVG Export Plug-In . SVG Version: 6.00 Build 0)  -->
<!DOCTYPE svg PUBLIC "-//W3C//DTD SVG 1.1//EN" "http://www.w3.org/Graphics/SVG/1.1/DTD/svg11.dtd">
<svg version="1.1" id="Capa_1" xmlns="http://www.w3.org/2000/svg" xmlns:xlink="http://www.w3.org/1999/xlink" x="0px" y="0px"
	 viewBox="0 0 70 70" enable-background="new 0 0 70 70" xml:space="preserve">
<g>
	<path fill="#B4006F" d="M9,65c-2.8,0-5.3-2.1-6.7-4.5C1,58.2,1,55,2.4,52.6l26-44.8c1.4-2.4,3.9-3.9,6.6-3.9c2.8,0,5.3,1.4,6.7,3.8
		l26,44.6c1.4,2.4,1.4,5.9,0,8.2C66.3,62.9,63.8,65,61,65H9z M35.4,8c-0.8,0-2.8,0.2-4,2.3L6,53.9c-0.5,1.2-0.8,2.8,0,4.3
		c0.8,1.4,1.9,2.2,3.6,2.2l49.9,0.1c2.5,0,4.2-2,4.5-2.5c0.8-1.4,0.5-3-0.3-4.5L39,10.1C37.8,8.1,36.2,8,35.4,8z"/>
</g>
<g>
	<defs>
		<path id="SVGID_217_" d="M32.8,40.5c0-4,0-15.9,0-15.9c0-1.6,1.3-2.9,2.9-2.9c1.6,0,2.9,1.3,2.9,2.9v15.9c0,1.6-1.3,2.6-2.9,2.6
			C34.1,43.1,32.9,41.9,32.8,40.5z"/>
	</defs>
	<use xlink:href="#SVGID_217_"  overflow="visible" fill-rule="evenodd" clip-rule="evenodd" fill="#B4006F"/>
	<clipPath id="SVGID_2_">
		<use xlink:href="#SVGID_217_"  overflow="visible"/>
	</clipPath>
</g>
<g>
	<defs>
		<path id="SVGID_219_" d="M39.3,50.1c0,4.6-7,4.6-7,0C32.3,45.5,39.3,45.5,39.3,50.1"/>
	</defs>
	<use xlink:href="#SVGID_219_"  overflow="visible" fill-rule="evenodd" clip-rule="evenodd" fill="#B4006F"/>
	<clipPath id="SVGID_4_">
		<use xlink:href="#SVGID_219_"  overflow="visible"/>
	</clipPath>
</g>
</svg>
