<?xml version="1.0" encoding="UTF-8" standalone="no"?>
<!-- Generator: Adobe Illustrator 17.1.0, SVG Export Plug-In . SVG Version: 6.00 Build 0)  -->

<svg
   xmlns:dc="http://purl.org/dc/elements/1.1/"
   xmlns:cc="http://creativecommons.org/ns#"
   xmlns:rdf="http://www.w3.org/1999/02/22-rdf-syntax-ns#"
   xmlns:svg="http://www.w3.org/2000/svg"
   xmlns="http://www.w3.org/2000/svg"
   xmlns:sodipodi="http://sodipodi.sourceforge.net/DTD/sodipodi-0.dtd"
   xmlns:inkscape="http://www.inkscape.org/namespaces/inkscape"
   version="1.1"
   id="Capa_1"
   x="0px"
   y="0px"
   viewBox="0 0 52.799999 66.099998"
   enable-background="new 0 0 70 70"
   xml:space="preserve"
   inkscape:version="0.91 r13725"
   sodipodi:docname="iconos at-33.svg"
   width="52.799999"
   height="66.099998"><metadata
     id="metadata4269"><rdf:RDF><cc:Work
         rdf:about=""><dc:format>image/svg+xml</dc:format><dc:type
           rdf:resource="http://purl.org/dc/dcmitype/StillImage" /><dc:title></dc:title></cc:Work></rdf:RDF></metadata><defs
     id="defs4267" /><sodipodi:namedview
     pagecolor="#ffffff"
     bordercolor="#666666"
     borderopacity="1"
     objecttolerance="10"
     gridtolerance="10"
     guidetolerance="10"
     inkscape:pageopacity="0"
     inkscape:pageshadow="2"
     inkscape:window-width="1855"
     inkscape:window-height="1056"
     id="namedview4265"
     showgrid="false"
     fit-margin-top="0"
     fit-margin-left="0"
     fit-margin-right="0"
     fit-margin-bottom="0"
     inkscape:zoom="13.128571"
     inkscape:cx="25.6"
     inkscape:cy="32.3"
     inkscape:window-x="65"
     inkscape:window-y="24"
     inkscape:window-maximized="1"
     inkscape:current-layer="Capa_1" /><path
     d="m 32,57.4 -0.1,0.3 c -0.6,2.3 -2.9,4 -5.5,4 -2.6,0 -4.9,-1.6 -5.5,-4 l -0.1,-0.3 -4.7,0 0.1,0.5 c 0.8,4.7 5.1,8.2 10.2,8.2 5.1,0 9.4,-3.5 10.2,-8.2 l 0.1,-0.5 -4.7,0 z"
     id="path4261"
     inkscape:connector-curvature="0"
     style="fill:#b4006f" /><path
     d="m 52.8,44.2 c 0,-0.6 -0.4,-1.2 -1,-1.5 -0.1,0 -9.5,-4.7 -9.5,-17.6 0.2,-3.8 -1.7,-11.7 -9.8,-14.2 -0.1,0 -0.2,-0.1 -0.4,-0.1 C 33,9.7 33.6,8.3 33.6,6.7 33.6,3 30.4,0 26.4,0 c -4,0 -7.2,3 -7.2,6.7 0,1.5 0.6,3 1.5,4.1 -0.1,0 -0.3,0.1 -0.4,0.1 -8.2,2.5 -10,10.4 -9.8,14.1 0,12.9 -9.1,17.5 -9.5,17.7 -0.6,0.3 -1,0.9 -1,1.5 0,5 0,8.8 0,8.8 0,0.5 0.2,0.9 0.5,1.2 0.4,0.3 0.8,0.5 1.3,0.5 l 49.2,0 c 0.5,0 1,-0.2 1.3,-0.5 0.4,-0.3 0.5,-0.8 0.5,-1.2 0,0 0,-3.8 0,-8.8 z M 26.4,3.4 c 1.9,0 3.5,1.5 3.5,3.3 0,1.8 -1.6,3.2 -3.5,3.2 -1.9,0 -3.5,-1.5 -3.5,-3.2 0,-1.8 1.5,-3.3 3.5,-3.3 z M 4.1,50.8 c 0,-1.4 0,-3.2 0,-5.4 3.4,-2.1 10.5,-8.1 10.5,-20.5 0,-0.3 -0.2,-8.2 6.9,-10.3 0.5,-0.1 2.2,-0.6 4.8,-0.7 2.6,0.1 4.4,0.5 4.8,0.7 7,2.1 7,9.5 6.9,10.4 0,12.3 7.2,18.3 10.5,20.4 0,2.2 0,4 0,5.4 l -44.4,0 z"
     id="path4263"
     inkscape:connector-curvature="0"
     style="fill:#b4006f" /></svg>