<?xml version="1.0" encoding="utf-8"?>
<!-- Generator: Adobe Illustrator 17.1.0, SVG Export Plug-In . SVG Version: 6.00 Build 0)  -->
<!DOCTYPE svg PUBLIC "-//W3C//DTD SVG 1.1//EN" "http://www.w3.org/Graphics/SVG/1.1/DTD/svg11.dtd">
<svg version="1.1" id="Capa_1" xmlns="http://www.w3.org/2000/svg" xmlns:xlink="http://www.w3.org/1999/xlink" x="0px" y="0px"
	 viewBox="0 0 96 70" enable-background="new 0 0 96 70" xml:space="preserve">
<g>
	<defs>
		<path id="SVGID_23_" d="M90.8,30.1L80.3,19.7c-1.2-1.2-2.7-1.8-4.4-1.8h-2.2c-0.4-0.7-1.2-1.1-2-1.1h-3.3c-0.8,0-1.6,0.4-2,1.1
			H47.8C45,8.3,36.2,1.4,25.7,1.4c-12.7,0-23,10.3-23,23c0,12.1,9.3,22,21.2,22.9v13.6c0,3.4,2.8,6.2,6.2,6.2h43v-3.8h5V67h8.3
			c3.4,0,6.2-2.8,6.2-6.2V34.5C92.6,32.8,92,31.3,90.8,30.1z M46.3,34.6c1-2,1.7-4.2,2.1-6.5h6.7v28.8h-21V45.7
			c0.6-0.2,1.2-0.5,1.7-0.8v10.2h3.7V42.7c1.1-0.8,2.2-1.8,3.1-2.8v15.2h3.7V34.6z M25.7,43.7c-0.6,0-1.2,0-1.8-0.1
			c-9.8-0.9-17.6-9.2-17.6-19.3C6.4,13.6,15.1,5,25.7,5c8.4,0,15.6,5.4,18.2,12.9c0.4,1.2,0.7,2.4,0.9,3.7c0.1,0.9,0.2,1.9,0.2,2.8
			c0,0,0,0,0,0c0,1.3-0.1,2.5-0.4,3.7c-0.1,0.6-0.3,1.2-0.4,1.7c-0.4,1.4-1,2.8-1.7,4c-0.8,1.5-1.9,2.9-3.1,4.1
			c-1.1,1.1-2.3,2.1-3.7,2.9c-0.6,0.3-1.1,0.7-1.7,1c-1.2,0.6-2.4,1-3.7,1.3c-0.9,0.2-1.9,0.4-2.8,0.5C27,43.7,26.4,43.7,25.7,43.7z
			 M88.9,60.8c0,1.4-1.1,2.5-2.5,2.5h-4.7v-1.4c0-1.3-1.1-2.4-2.4-2.4h-7.6c-1.3,0-2.4,1.1-2.4,2.4v1.4H30.1c-1.4,0-2.5-1.1-2.5-2.5
			V47.2c1-0.1,1.9-0.2,2.8-0.4v13.7h28.3V24.4H48.7c0,0,0,0,0,0c0-1-0.1-1.9-0.2-2.8H76c0.7,0,1.3,0.3,1.8,0.7l10.5,10.5
			c0.5,0.5,0.7,1.1,0.7,1.8V60.8z"/>
	</defs>
	<clipPath id="SVGID_2_">
		<use xlink:href="#SVGID_23_"  overflow="visible"/>
	</clipPath>
	<g clip-path="url(#SVGID_2_)">
		<rect x="-2.2" y="-3.6" fill="#B4006F" width="99.8" height="75.6"/>
	</g>
</g>
<g>
	<defs>
		<rect id="SVGID_25_" x="49.4" y="29.8" width="3.7" height="25.3"/>
	</defs>
	<clipPath id="SVGID_4_">
		<use xlink:href="#SVGID_25_"  overflow="visible"/>
	</clipPath>
	<g clip-path="url(#SVGID_4_)">
		<rect x="44.4" y="24.8" fill="#B4006F" width="13.7" height="35.3"/>
	</g>
</g>
<g>
	<defs>
		<rect id="SVGID_27_" x="79.8" y="35.3" width="8" height="3.7"/>
	</defs>
	<clipPath id="SVGID_6_">
		<use xlink:href="#SVGID_27_"  overflow="visible"/>
	</clipPath>
	<g clip-path="url(#SVGID_6_)">
		<rect x="74.8" y="30.3" fill="#B4006F" width="18" height="13.7"/>
	</g>
</g>
<g>
	<defs>
		<rect id="SVGID_29_" x="79.8" y="41.3" width="8" height="3.7"/>
	</defs>
	<clipPath id="SVGID_8_">
		<use xlink:href="#SVGID_29_"  overflow="visible"/>
	</clipPath>
	<g clip-path="url(#SVGID_8_)">
		<rect x="74.8" y="36.3" fill="#B4006F" width="18" height="13.7"/>
	</g>
</g>
<g>
	<defs>
		<rect id="SVGID_31_" x="79.8" y="46.3" width="8" height="3.7"/>
	</defs>
	<clipPath id="SVGID_10_">
		<use xlink:href="#SVGID_31_"  overflow="visible"/>
	</clipPath>
	<g clip-path="url(#SVGID_10_)">
		<rect x="74.8" y="41.3" fill="#B4006F" width="18" height="13.7"/>
	</g>
</g>
<g>
	<defs>
		<rect id="SVGID_33_" x="79.8" y="51.3" width="8" height="3.7"/>
	</defs>
	<clipPath id="SVGID_12_">
		<use xlink:href="#SVGID_33_"  overflow="visible"/>
	</clipPath>
	<g clip-path="url(#SVGID_12_)">
		<rect x="74.8" y="46.3" fill="#B4006F" width="18" height="13.7"/>
	</g>
</g>
<g>
	<defs>
		<polygon id="SVGID_35_" points="34.7,23.5 27.8,23.5 27.8,16.4 25,16.4 25,23.5 17.9,23.5 17.9,26.4 25,26.4 25,33.3 27.8,33.3 
			27.8,26.4 34.7,26.4 		"/>
	</defs>
	<clipPath id="SVGID_14_">
		<use xlink:href="#SVGID_35_"  overflow="visible"/>
	</clipPath>
	<g clip-path="url(#SVGID_14_)">
		<rect x="12.9" y="11.4" fill="#B4006F" width="26.8" height="26.9"/>
	</g>
</g>
</svg>
