<?xml version="1.0" encoding="utf-8"?>
<!-- Generator: Adobe Illustrator 17.1.0, SVG Export Plug-In . SVG Version: 6.00 Build 0)  -->
<!DOCTYPE svg PUBLIC "-//W3C//DTD SVG 1.1//EN" "http://www.w3.org/Graphics/SVG/1.1/DTD/svg11.dtd">
<svg version="1.1" id="Capa_1" xmlns="http://www.w3.org/2000/svg" xmlns:xlink="http://www.w3.org/1999/xlink" x="0px" y="0px"
	 viewBox="0 0 70 70" enable-background="new 0 0 70 70" xml:space="preserve">
<g>
	<defs>
		<path id="SVGID_209_" d="M60.5,17.7C60.5,17.7,60.5,17.7,60.5,17.7c-0.1-0.2-0.2-0.4-0.4-0.6c-5.3-7.6-14.1-12.5-24-12.7l-1.2,0
			c-9.5,0.2-17.9,5-23.2,12.2c-0.1,0.1-0.1,0.1-0.2,0.2C8.1,21.8,6,27.8,6,34.3c0,6.5,2.1,12.5,5.7,17.5c0,0,0.1,0.1,0.1,0.1
			c5.4,7.4,14,12.2,23.8,12.2H36c7.9,0,15.4-3.2,21-8.8c5.5-5.5,8.5-12.8,8.6-20.6c0-0.1,0.1-0.3,0.1-0.4c0-0.2,0-0.3-0.1-0.5
			C65.5,27.8,63.6,22.3,60.5,17.7z M34.4,8.4v12.9c-3.1-0.1-6.2-0.5-9.2-1.2C27.3,15.5,30.4,11.4,34.4,8.4z M34.4,24.2v8.7H22.2
			c0.1-3.5,0.8-6.8,1.9-10C27.4,23.6,30.9,24,34.4,24.2z M30.5,7.8C27,11,24.2,15,22.3,19.5c-2.4-0.7-4.8-1.5-7.2-2.4
			C19,12.4,24.4,9.1,30.5,7.8z M13.4,19.4c2.6,1.1,5.2,2.1,7.9,2.8c-1.1,3.4-1.8,7-1.9,10.7H8.9C9.2,27.9,10.8,23.3,13.4,19.4z
			 M13.4,49.2c-2.7-4-4.2-8.6-4.5-13.5h10.4c0.1,3.7,0.8,7.3,2,10.7C18.6,47.1,16,48,13.4,49.2z M16.8,53.3
			c-0.6-0.6-1.1-1.2-1.6-1.8c2.3-1,4.7-1.8,7.2-2.5c2,4.5,4.8,8.5,8.4,11.7C25.5,59.7,20.7,57.2,16.8,53.3z M34.4,60
			c-3.9-3-7-7-9.1-11.6c3-0.6,6-1,9.1-1.1V60z M34.4,44.4c-3.5,0.1-6.9,0.6-10.2,1.3c-1.1-3.1-1.8-6.5-1.9-10h12.1V44.4z M56.9,17.6
			c-2.5,1-5.1,1.8-7.7,2.4c-2-4.7-4.9-8.9-8.6-12.2C47.2,9,53,12.6,56.9,17.6z M37.2,8.6c3.9,3,7.1,7.2,9.1,11.9
			c-3,0.5-6,0.8-9.1,0.8V8.6z M37.2,24.2c3.4,0,6.8-0.4,10.2-1c1,3,1.6,6.3,1.8,9.6H37.2V24.2z M37.2,35.7h11.9
			c-0.1,3.3-0.7,6.5-1.7,9.6c-3.3-0.6-6.7-0.9-10.2-0.9V35.7z M37.2,59.9V47.2c3.1,0,6.1,0.3,9.1,0.8C44.3,52.7,41.2,56.9,37.2,59.9
			z M54.8,53.3c-3.9,3.9-8.8,6.5-14.1,7.5c3.7-3.3,6.6-7.5,8.6-12.2c2.6,0.6,5.1,1.4,7.6,2.3C56.3,51.7,55.6,52.5,54.8,53.3z
			 M58.6,48.5c-2.7-1.1-5.5-2-8.3-2.7c1-3.2,1.7-6.6,1.8-10.2h10.6C62.5,40.3,61.1,44.7,58.6,48.5z M52.1,32.8L52.1,32.8
			c-0.1-3.5-0.8-7-1.8-10.2c2.8-0.7,5.6-1.6,8.4-2.7c2.4,3.8,3.8,8.2,4.1,12.9H52.1z"/>
	</defs>
	<clipPath id="SVGID_2_">
		<use xlink:href="#SVGID_209_"  overflow="visible"/>
	</clipPath>
	<g clip-path="url(#SVGID_2_)">
		<rect x="-3.7" y="-5.2" fill="#B4006F" width="79" height="78.9"/>
	</g>
</g>
</svg>
