<?xml version="1.0" encoding="utf-8"?>
<!-- Generator: Adobe Illustrator 17.1.0, SVG Export Plug-In . SVG Version: 6.00 Build 0)  -->
<!DOCTYPE svg PUBLIC "-//W3C//DTD SVG 1.1//EN" "http://www.w3.org/Graphics/SVG/1.1/DTD/svg11.dtd">
<svg version="1.1" id="Capa_1" xmlns="http://www.w3.org/2000/svg" xmlns:xlink="http://www.w3.org/1999/xlink" x="0px" y="0px"
	 viewBox="0 0 70 70" enable-background="new 0 0 70 70" xml:space="preserve">
<g>
	<defs>
		<path id="SVGID_211_" d="M62.3,11.5H8.8c-2.6,0-4.8,2.1-4.8,4.7v36.1c0,2.6,2.1,4.8,4.8,4.8h53.5c2.6,0,4.8-2.1,4.8-4.8V16.2
			C67.1,13.6,65,11.5,62.3,11.5z M60.9,14.8L36.3,38.5L9.7,14.8H60.9z M7.3,51V17.2L27.3,36L7.3,51z M9.1,53.7L30,38.1l6.4,4.6
			l5.3-4.1L62,53.7H9.1z M63.8,51L44.4,36.4l19.4-19.7V51z"/>
	</defs>
	<use xlink:href="#SVGID_211_"  overflow="visible" fill-rule="evenodd" clip-rule="evenodd" fill="#B4006F"/>
	<clipPath id="SVGID_2_">
		<use xlink:href="#SVGID_211_"  overflow="visible"/>
	</clipPath>
</g>
</svg>
