<?xml version="1.0" encoding="utf-8"?>
<!-- Generator: Adobe Illustrator 17.1.0, SVG Export Plug-In . SVG Version: 6.00 Build 0)  -->
<!DOCTYPE svg PUBLIC "-//W3C//DTD SVG 1.1//EN" "http://www.w3.org/Graphics/SVG/1.1/DTD/svg11.dtd">
<svg version="1.1" id="Capa_1" xmlns="http://www.w3.org/2000/svg" xmlns:xlink="http://www.w3.org/1999/xlink" x="0px" y="0px"
	 viewBox="0 0 70 70" enable-background="new 0 0 70 70" xml:space="preserve">
<g>
	<path fill="#B4006F" d="M52,62c-10.7,0-21.9-4.9-30.6-13.4l-0.1-0.1c-9-8.8-13.9-20-13.7-30.8l0-0.5L8,16.8c0.8-1,1.6-1.9,2.3-2.6
		c2.9-2.8,6.3-5,10.2-6.5c0.2-0.1,0.4-0.1,0.6-0.1c0.3,0,0.6-0.1,1-0.2c0,0,0.1,0,0.3,0c1.1,0,3.1,0.8,3.7,2.2
		c1,2.6,2.8,7.7,4.2,12.9c0.3,1.1-0.1,3.7-1.4,4.5l-4.4,2.7l-0.3,1.2l-0.1-0.2c0,0.3,0.1,1,0.7,1.8c1.7,2.3,3.7,4.6,5.9,6.8
		c2.3,2.2,4.6,4.1,6.9,5.7c0.5,0.4,1.3,0.7,1.9,0.7l0.3,0l0.7-0.4l2.7-4.2c1-1.5,3.7-1.5,3.8-1.5c0.3,0,0.5,0,0.8,0.1
		c5.7,1.2,9.1,2.3,13.4,4.2c1.5,0.7,2.5,3.6,1.8,5.4c-1.5,3.8-3.7,7.1-6.6,9.9c-0.8,0.8-1.7,1.6-2.7,2.3L53.4,62L52,62z M21.5,10.7
		c-3.3,1.3-6.4,3.3-8.9,5.7c-0.5,0.5-1,1.1-1.5,1.7l-0.2,0.6c0,9.6,4.8,19.9,12.7,27.7l0.2,0.2C31.8,54.4,42.1,59,51.9,59l0.6-0.2
		c0.6-0.5,1.2-1,1.7-1.5c2.6-2.5,4.6-5.5,5.9-8.9l-0.2-1l0.2,0.2c-0.1-0.2-0.2-0.4-0.2-0.6l-0.4-0.3c-3.8-1.7-7-1.8-12.3-3.8h-0.4
		l-0.6,0l-0.6,0.4l-2.5,3.8c-0.7,1.1-2,1.7-3.6,1.7c-1.3,0-2.6-0.4-3.7-1.2C33.4,46,31,44,28.5,41.6c-2.3-2.3-4.4-4.7-6.2-7.2
		c-1.1-1.4-1.5-3.1-1.2-4.6c0.2-1.1,0.8-2,1.7-2.5l3.9-2.4l0.4-0.5c0.1-0.2,0.2-0.7,0.1-1.1c-1.2-4.3-2.8-8.9-3.9-12l-0.7-0.6
		L22,10.6L21.5,10.7z"/>
</g>
<g>
	<defs>
		<path id="SVGID_19_" d="M61.4,28.7c-0.3-0.6-0.5-1.3-0.8-1.9c-0.3-0.6-0.6-0.7-1.2-0.6c-0.8,0.2-1.5,0.4-2.3,0.6
			c-1.5,0.3-3,0.3-4.5-0.1c-1.9-0.6-2.8-1.9-3.5-3.7h5c0.4,0,0.7-0.3,0.7-0.7v-1.6c0-0.4-0.3-0.7-0.7-0.7h-5.5v-1.3h5.5
			c0.4,0,0.7-0.3,0.7-0.7v-1.6c0-0.4-0.3-0.7-0.7-0.7h-4.8v0c0.6-1.3,1.4-2.4,2.8-2.9c1.6-0.6,3.3-0.6,4.9-0.3
			c0.8,0.1,1.5,0.4,2.3,0.6c0.6,0.1,0.9,0,1.2-0.6c0.3-0.6,0.5-1.3,0.8-1.9c0.3-0.6,0.1-1-0.5-1.3c-0.1-0.1-0.3-0.1-0.4-0.2
			c-2.3-0.9-4.7-1.3-7.2-0.9c-1.7,0.3-3.4,0.9-4.8,2c-1.8,1.4-2.9,3.2-3.6,5.3l-0.1,0.3h-2.5c-0.4,0-0.7,0.3-0.7,0.7v1.6
			c0,0.4,0.3,0.7,0.7,0.7h1.9v1.3h-1.9c-0.4,0-0.7,0.3-0.7,0.7v1.6c0,0.4,0.3,0.7,0.7,0.7h2.3c0.2,0.6,0.3,1.2,0.5,1.7
			c1.2,2.9,3.2,4.9,6.2,5.9c2.5,0.8,5,0.8,7.5,0.1c0.6-0.2,1.3-0.4,1.9-0.7C61.5,29.7,61.7,29.2,61.4,28.7"/>
	</defs>
	<clipPath id="SVGID_2_">
		<use xlink:href="#SVGID_19_"  overflow="visible"/>
	</clipPath>
	<g clip-path="url(#SVGID_2_)">
		<rect x="36.6" y="2.9" fill="#B4006F" width="29.9" height="33.3"/>
	</g>
</g>
<g>
	<defs>
		<path id="SVGID_209_" d="M60.5,92.4C60.5,92.3,60.5,92.3,60.5,92.4c-0.1-0.2-0.2-0.4-0.4-0.6c-5.3-7.6-14.1-12.5-24-12.7l-1.2,0
			c-9.5,0.2-17.9,5-23.2,12.2c-0.1,0.1-0.1,0.1-0.2,0.2C8.1,96.4,6,102.4,6,108.9c0,6.5,2.1,12.5,5.7,17.5c0,0,0.1,0.1,0.1,0.1
			c5.4,7.4,14,12.2,23.8,12.2H36c7.9,0,15.4-3.2,21-8.8c5.5-5.5,8.5-12.8,8.6-20.6c0-0.1,0.1-0.3,0.1-0.4c0-0.2,0-0.3-0.1-0.5
			C65.5,102.5,63.6,97,60.5,92.4z M34.4,83.1V96c-3.1-0.1-6.2-0.5-9.2-1.2C27.3,90.1,30.4,86.1,34.4,83.1z M34.4,98.8v8.7H22.2
			c0.1-3.5,0.8-6.8,1.9-10C27.4,98.3,30.9,98.7,34.4,98.8z M30.5,82.5c-3.5,3.1-6.3,7.1-8.2,11.6c-2.4-0.7-4.8-1.5-7.2-2.4
			C19,87.1,24.4,83.7,30.5,82.5z M13.4,94c2.6,1.1,5.2,2.1,7.9,2.8c-1.1,3.4-1.8,7-1.9,10.7H8.9C9.2,102.5,10.8,97.9,13.4,94z
			 M13.4,123.8c-2.7-4-4.2-8.6-4.5-13.5h10.4c0.1,3.7,0.8,7.3,2,10.7C18.6,121.8,16,122.7,13.4,123.8z M16.8,127.9
			c-0.6-0.6-1.1-1.2-1.6-1.8c2.3-1,4.7-1.8,7.2-2.5c2,4.5,4.8,8.5,8.4,11.7C25.5,134.4,20.7,131.8,16.8,127.9z M34.4,134.6
			c-3.9-3-7-7-9.1-11.6c3-0.6,6-1,9.1-1.1V134.6z M34.4,119c-3.5,0.1-6.9,0.6-10.2,1.3c-1.1-3.1-1.8-6.5-1.9-10h12.1V119z
			 M56.9,92.3c-2.5,1-5.1,1.8-7.7,2.4c-2-4.7-4.9-8.9-8.6-12.2C47.2,83.6,53,87.2,56.9,92.3z M37.2,83.3c3.9,3,7.1,7.2,9.1,11.9
			c-3,0.5-6,0.8-9.1,0.8V83.3z M37.2,98.9c3.4,0,6.8-0.4,10.2-1c1,3,1.6,6.3,1.8,9.6H37.2V98.9z M37.2,110.4h11.9
			c-0.1,3.3-0.7,6.5-1.7,9.6c-3.3-0.6-6.7-0.9-10.2-0.9V110.4z M37.2,134.5v-12.7c3.1,0,6.1,0.3,9.1,0.8
			C44.3,127.4,41.2,131.5,37.2,134.5z M54.8,127.9c-3.9,3.9-8.8,6.5-14.1,7.5c3.7-3.3,6.6-7.5,8.6-12.2c2.6,0.6,5.1,1.4,7.6,2.3
			C56.3,126.4,55.6,127.2,54.8,127.9z M58.6,123.2c-2.7-1.1-5.5-2-8.3-2.7c1-3.2,1.7-6.6,1.8-10.2h10.6
			C62.5,115,61.1,119.3,58.6,123.2z M52.1,107.5L52.1,107.5c-0.1-3.5-0.8-7-1.8-10.2c2.8-0.7,5.6-1.6,8.4-2.7
			c2.4,3.8,3.8,8.2,4.1,12.9H52.1z"/>
	</defs>
	<clipPath id="SVGID_4_">
		<use xlink:href="#SVGID_209_"  overflow="visible"/>
	</clipPath>
	<g clip-path="url(#SVGID_4_)">
		<rect x="-3.7" y="69.5" fill="#B4006F" width="79" height="78.9"/>
	</g>
</g>
</svg>
