<?xml version="1.0" encoding="utf-8"?>
<!-- Generator: Adobe Illustrator 17.1.0, SVG Export Plug-In . SVG Version: 6.00 Build 0)  -->
<!DOCTYPE svg PUBLIC "-//W3C//DTD SVG 1.1//EN" "http://www.w3.org/Graphics/SVG/1.1/DTD/svg11.dtd">
<svg version="1.1" id="Capa_1" xmlns="http://www.w3.org/2000/svg" xmlns:xlink="http://www.w3.org/1999/xlink" x="0px" y="0px"
	 viewBox="0 0 70 70" enable-background="new 0 0 70 70" xml:space="preserve">
<path fill="#B4006F" d="M34.7,67.3c-17.8,0-32.3-14.5-32.3-32.4S16.9,2.5,34.7,2.5S67,17,67,34.9S52.5,67.3,34.7,67.3z M34.7,5.1
	C18.3,5.1,5,18.5,5,34.9s13.3,29.8,29.7,29.8c16.4,0,29.7-13.4,29.7-29.8S51.1,5.1,34.7,5.1z"/>
<g>
	<path fill="#B4006F" d="M10.4,36.5c0-0.2,0-0.5,0-0.7c0-0.2,0-0.4,0-0.6c0-0.3,0-0.5,0-0.7c0-0.2,0-0.4,0-0.6
		c0-1.2,0.1-2.4,0.3-3.5l0.3-1.1C13.3,18.1,23.3,10,34.7,10c1,0,2.1,0.1,3.1,0.2l0.5,0l0.7,0.1c4.5,0.8,8.7,2.9,12.1,6
		c5.1,4.7,8.1,11.3,8.1,18.2c0,6.6-2.5,12.8-7.1,17.5l-0.5,0.3c-3.9,3.7-8.9,6-14.1,6.6l-2.7,0c-6.6,0-13.1-2.8-17.6-7.6l-0.2-0.2
		l-0.5-0.5c-3.5-4-5.6-8.7-6-14L10.4,36.5z M10.4,36.5 M12.9,36.7c0.4,4.3,2,8.2,4.7,11.5l0.2,0.2l0.3-0.1c2.7-1.6,4.4-3.9,4.4-7
		c0-4.8-4-8.2-8.8-8.2h-0.3c-0.4,0-0.4-1-0.5,1h0c0,2,0,0.9,0,0.9l0,0.8L12.9,36.7z M34.7,47.9c-3.9,0-7.3,2.5-8.4,6.1l-0.1,0.3
		l0.3,0.1c2.9,1.3,5.8,2,8.8,2c2.7-0.1,5.3-0.6,7.7-1.6l0.3-0.1l-0.1-0.3C42.2,50.5,38.7,47.9,34.7,47.9z M34.7,45.4
		c4.9,0,9.2,3.1,10.7,7.8l0.1,0.4l0.4-0.2c0.9-0.5,1.8-1.2,2.6-1.8l0.4-0.3L48.5,51c-3.1-2.1-5-5.6-5-9.4c0-6.3,5.1-11.4,11.3-11.4
		c0.3,0,0.6,0,0.9,0l0.5,0l-0.1-0.5c-0.3-1.4-0.8-2.8-1.4-4.2l-0.2-0.4l-0.4,0.3c-1.8,1.4-4.1,2.1-6.5,2.1
		c-6.2,0-11.3-5.1-11.3-11.4c0-1.1,0.2-2.2,0.5-3.3l0.1-0.4l-0.4,0c-0.6-0.1-1.3-0.1-1.9-0.1c-0.7,0-1.3,0-2,0.1l-0.4,0l0.1,0.4
		c0.3,1,0.5,2.1,0.5,3.3c0,6.3-5.1,11.4-11.3,11.4c-2.3,0-4.6-0.7-6.5-2l-0.3-0.2l-0.2,0.4c-0.4,1-0.8,2-1.1,3l-0.1,0.4l0.4,0
		c6.1,0.2,11,5.3,11,11.4c0,3.8-1.9,7.4-5,9.5l-0.4,0.2l0.3,0.3c1.1,1,2.3,2,3.6,2.8l0.4,0.2l0.1-0.4C25.5,48.5,29.7,45.4,34.7,45.4
		z M54.9,32.7c-4.9,0-8.8,4-8.8,8.9c0,3.2,1.7,6.2,4.5,7.8l0.2,0.1l0.2-0.2c3.5-3.9,5.6-9,5.7-14.2c0-0.2,0-0.4,0-0.6
		c0-0.4,0-0.9,0-1.3l0-0.3l-0.3,0C55.7,32.8,55.3,32.7,54.9,32.7z M39.5,13.3c-0.3,0.9-0.5,1.9-0.5,3c0,4.9,4,8.9,8.8,8.9
		c2,0,3.9-0.7,5.4-1.8l0.2-0.2l-0.2-0.3c-0.2-0.3-0.4-0.6-0.5-0.8c-3.1-4.5-7.7-7.6-12.9-8.9L39.6,13L39.5,13.3z M29.5,13.1
		c-5.2,1.3-9.8,4.4-12.9,8.9c-0.2,0.3-0.4,0.6-0.5,0.8l-0.2,0.3l0.2,0.2c1.5,1.2,3.4,1.8,5.4,1.8c4.9,0,8.8-4,8.8-8.9
		c0-1.1-0.2-2.1-0.5-3L29.8,13L29.5,13.1z"/>
</g>
<g>
	<path fill="#B4006F" d="M26.3,34.9c0,4.5,3.6,8.1,8.1,8.1s8.1-3.6,8.1-8.1c0-4.5-3.6-8.1-8.1-8.1S26.3,30.4,26.3,34.9 M34.3,28.8
		c3.3,0,6,2.7,6,6.1c0,3.3-2.7,6.1-6,6.1c-3.3,0-6-2.7-6-6.1C28.3,31.6,31,28.8,34.3,28.8"/>
</g>
</svg>
