<svg id="SvgjsSvg1000" xmlns="http://www.w3.org/2000/svg" version="1.1" xmlns:xlink="http://www.w3.org/1999/xlink" xmlns:svgjs="http://svgjs.com/svgjs" width="19" height="18" viewBox="0 0 19 18"><title>Fill 1</title><desc>Created with Avocode.</desc><defs id="SvgjsDefs1001"></defs><path id="SvgjsPath1007" d="M241.25 1114.25H229.93C228.87 1114.25 228 1113.31 228 1112.16V1101.0900000000001C228 1099.94 228.87 1099.0000000000002 229.93 1099.0000000000002H240.67000000000002L235.83 1101.1200000000001H229.93L229.97 1112.16L241.25 1112.13L241.2 1110.64L243.17999999999998 1109.0700000000002V1112.16C243.17999999999998 1113.3100000000002 242.30999999999997 1114.25 241.24999999999997 1114.25Z " fill="#58585a" fill-opacity="1" transform="matrix(1,0,0,1,-228,-1097)"></path><path id="SvgjsPath1008" d="M241.07 1108.34L241.04999999999998 1105C236.43999999999997 1104.97 232.99999999999997 1107.76 232.99999999999997 1107.76C232.99999999999997 1107.76 233.54999999999998 1101.58 241.06999999999996 1100.05V1097L246.88999999999996 1102.68L244.05999999999995 1105.43Z " fill="#58585a" fill-opacity="1" transform="matrix(1,0,0,1,-228,-1097)"></path></svg>