<?xml version="1.0" encoding="UTF-8" standalone="no"?>
<svg
   xmlns:dc="http://purl.org/dc/elements/1.1/"
   xmlns:cc="http://creativecommons.org/ns#"
   xmlns:rdf="http://www.w3.org/1999/02/22-rdf-syntax-ns#"
   xmlns:svg="http://www.w3.org/2000/svg"
   xmlns="http://www.w3.org/2000/svg"
   xmlns:sodipodi="http://sodipodi.sourceforge.net/DTD/sodipodi-0.dtd"
   xmlns:inkscape="http://www.inkscape.org/namespaces/inkscape"
   id="SvgjsSvg1000"
   version="1.1"
   width="176.5"
   height="76.5"
   viewBox="0 0 176.5 76.5"
   inkscape:version="0.91 r13725"
   sodipodi:docname="communicate.svg">
  <metadata
     id="metadata4403">
    <rdf:RDF>
      <cc:Work
         rdf:about="">
        <dc:format>image/svg+xml</dc:format>
        <dc:type
           rdf:resource="http://purl.org/dc/dcmitype/StillImage" />
        <dc:title>Fill 1</dc:title>
      </cc:Work>
    </rdf:RDF>
  </metadata>
  <sodipodi:namedview
     pagecolor="#ffffff"
     bordercolor="#666666"
     borderopacity="1"
     objecttolerance="10"
     gridtolerance="10"
     guidetolerance="10"
     inkscape:pageopacity="0"
     inkscape:pageshadow="2"
     inkscape:window-width="1855"
     inkscape:window-height="1056"
     id="namedview4401"
     showgrid="false"
     inkscape:zoom="7.8810198"
     inkscape:cx="88.25"
     inkscape:cy="38.25"
     inkscape:window-x="65"
     inkscape:window-y="24"
     inkscape:window-maximized="1"
     inkscape:current-layer="SvgjsSvg1000" />
  <title
     id="title4386">Fill 1</title>
  <desc
     id="desc4388">Created with Avocode.</desc>
  <defs
     id="SvgjsDefs1001" />
  <path
     id="SvgjsPath1007"
     d="m 425.37848,689.96529 43.22747,-0.25377 -0.12688,-65.7886 -43.10059,0 z M 425.08,693 c -1.7,0 -3.08,-1.36 -3.08,-3.04 l 0,-66.92 c 0,-1.68 1.38,-3.04 3.08,-3.04 l 43.18,0 c 1.71,0 3.09,1.36 3.09,3.04 l 0,66.92 c 0,1.68 -1.38,3.04 -3.09,3.04 z"
     transform="translate(-297,-618.5)"
     inkscape:connector-curvature="0"
     style="fill:#d40072;fill-opacity:1"
     sodipodi:nodetypes="cccccsssssssss" />
  <path
     id="SvgjsPath1009"
     d="M432.08 669.52L459.84 669.52L459.84 634.04L432.08 634.04ZM430.54 672.56C429.69 672.56 429 671.88 429 671.04L429 632.52C429 631.68 429.69 631 430.54 631L461.39000000000004 631C462.24000000000007 631 462.93000000000006 631.68 462.93000000000006 632.52L462.93000000000006 671.04C462.93000000000006 671.88 462.24000000000007 672.56 461.39000000000004 672.56Z "
     fill="#d40072"
     fill-opacity="1"
     transform="matrix(1,0,0,1,-297,-618.5)" />
  <path
     id="SvgjsPath1010"
     d="M448.33 679.61C448.33 681.6 446.68 683.22 444.65999999999997 683.22C442.64 683.22 440.99999999999994 681.6 440.99999999999994 679.61C440.99999999999994 677.62 442.63999999999993 676 444.65999999999997 676C446.67999999999995 676 448.33 677.62 448.33 679.61 "
     fill="#d40072"
     fill-opacity="1"
     transform="matrix(1,0,0,1,-297,-618.5)" />
  <path
     id="SvgjsPath1011"
     d="m 344.14,662.33 c 4.9,3.24 8.56,8.4 8.56,14.7 l 0,11.79 c 0,2.17 -1.5,3.93 -3.35,3.93 l -46.99,0 c -1.86,0 -3.36,-1.76 -3.36,-3.93 l 0,-11.79 c 0,-6.3 3.67,-11.46 8.57,-14.7 4.9,-3.23 11.28,-4.95 18.28,-4.95 7,0 13.39,1.72 18.29,4.95 z m -1.29,-23.3 c 0,9.36 -7.69,17.03 -17.09,17.03 -9.4,0 -17.09,-7.67 -17.09,-17.03 0,-9.36 7.69,-17.03 17.09,-17.03 9.4,0 17.09,7.67 17.09,17.03 z m -29.08152,0.12689 c 0,5.11 4.32424,12.28421 11.48397,12.21529 9.44458,-0.0909 12.24529,-7.10529 12.24529,-12.21529 0,-5.11 -4.95716,-12.75703 -12.1184,-12.72284 -7.54005,0.036 -11.61086,7.61284 -11.61086,12.72284 z m -3.44046,28.32046 c -3.46,2.37 -6.09397,4.70783 -6.38576,9.72331 l 0.12688,10.7784 43.57483,0 -0.25378,-10.52462 c -0.11337,-4.70172 -2.92575,-7.60709 -6.39575,-9.97709 -3.46,-2.37 -9.51821,-4.60443 -15.32821,-4.60443 -5.81,0 -11.86821,2.23443 -15.33821,4.60443 z"
     transform="translate(-297,-618.5)"
     inkscape:connector-curvature="0"
     style="fill:#d40072;fill-opacity:1"
     sodipodi:nodetypes="csssssscscsssssssssscsccscsc" />
  <path
     id="SvgjsPath1013"
     d="M369 669.6C369 669.86 369.16 670.2 369.32 670.37L375.69 677.32C376.11 677.75 376.79 677.8000000000001 377.28 677.36C377.71 676.97 377.71999999999997 676.2 377.32 675.78L372.71999999999997 670.72L402.65 670.72C403.27 670.72 403.77 670.22 403.77 669.6C403.77 668.98 403.27 668.48 402.65 668.48L372.71999999999997 668.48L377.32 663.89C377.71999999999997 663.46 377.69 662.72 377.28 662.31C376.83 661.8699999999999 376.09999999999997 661.91 375.69 662.3499999999999L369.32 668.8299999999999C369.05 669.0899999999999 369 669.3399999999999 369 669.5999999999999Z "
     fill="#d40072"
     fill-opacity="1"
     transform="matrix(1,0,0,1,-297,-618.5)" />
  <path
     id="SvgjsPath1015"
     d="M403.77 648.06C403.77 647.8 403.60999999999996 647.4599999999999 403.45 647.3L397.08 640.3499999999999C396.65999999999997 639.92 395.97999999999996 639.8699999999999 395.49 640.3C395.06 640.6999999999999 395.05 641.4599999999999 395.45 641.88L400.05 646.95L370.12 646.95C369.5 646.95 369 647.45 369 648.0600000000001C369 648.6800000000001 369.5 649.1800000000001 370.12 649.1800000000001L400.05 649.1800000000001L395.45 653.7800000000001C395.05 654.2 395.07 654.95 395.49 655.3600000000001C395.93 655.7900000000001 396.67 655.7500000000001 397.08 655.3100000000002L403.45 648.8300000000002 "
     fill="#d40072"
     fill-opacity="1"
     transform="matrix(1,0,0,1,-297,-618.5)" />
</svg>
