<?xml version="1.0" encoding="UTF-8" standalone="no"?>
<svg
   xmlns:dc="http://purl.org/dc/elements/1.1/"
   xmlns:cc="http://creativecommons.org/ns#"
   xmlns:rdf="http://www.w3.org/1999/02/22-rdf-syntax-ns#"
   xmlns:svg="http://www.w3.org/2000/svg"
   xmlns="http://www.w3.org/2000/svg"
   xmlns:sodipodi="http://sodipodi.sourceforge.net/DTD/sodipodi-0.dtd"
   xmlns:inkscape="http://www.inkscape.org/namespaces/inkscape"
   id="SvgjsSvg1033"
   version="1.1"
   width="16.452841"
   height="17.744202"
   viewBox="0 0 16.452841 17.744202"
   inkscape:version="0.91 r13725"
   sodipodi:docname="eject.svg">
  <metadata
     id="metadata4200">
    <rdf:RDF>
      <cc:Work
         rdf:about="">
        <dc:format>image/svg+xml</dc:format>
        <dc:type
           rdf:resource="http://purl.org/dc/dcmitype/StillImage" />
        <dc:title>Fill 2 Copy 3</dc:title>
      </cc:Work>
    </rdf:RDF>
  </metadata>
  <sodipodi:namedview
     pagecolor="#ffffff"
     bordercolor="#666666"
     borderopacity="1"
     objecttolerance="10"
     gridtolerance="10"
     guidetolerance="10"
     inkscape:pageopacity="0"
     inkscape:pageshadow="2"
     inkscape:window-width="1855"
     inkscape:window-height="1056"
     id="namedview4198"
     showgrid="false"
     inkscape:zoom="23.87013"
     inkscape:cx="11.131331"
     inkscape:cy="8.2503217"
     inkscape:window-x="65"
     inkscape:window-y="24"
     inkscape:window-maximized="1"
     inkscape:current-layer="SvgjsSvg1033"
     fit-margin-top="0"
     fit-margin-left="0"
     fit-margin-right="0"
     fit-margin-bottom="0" />
  <title
     id="title4189">Fill 2 Copy 3</title>
  <desc
     id="desc4191">Created with Avocode.</desc>
  <defs
     id="SvgjsDefs1034" />
  <path
     id="SvgjsPath1035"
     d="m 8.89284,0.36000007 c -0.35,-0.4800001 -0.92,-0.4800001 -1.27,0 L 0.32284005,10.25 c -0.25,0.35 -0.33,0.87 -0.19,1.33 0.14,0.45 0.46999997,0.75 0.82999999,0.75 l 14.58999996,0 c 0.36,0 0.69,-0.3 0.83,-0.75 0.04,-0.15 0.07,-0.31 0.07,-0.47 0,-0.32 -0.1,-0.63 -0.27,-0.86 z M 2.3159194,10.58124 8.19,2.3744396 14.283547,10.539347 Z"
     inkscape:connector-curvature="0"
     style="fill:#d40072;fill-opacity:1;stroke-width:1.5;stroke-miterlimit:50;stroke-dasharray:none"
     sodipodi:nodetypes="ccccsscscccccc" />
  <path
     id="SvgjsPath1037"
     d="m 15.49,15.775028 -14.59000002,0 C 0.4,15.775028 0,16.212622 0,16.763666 c 0,0.542941 0.4,0.980535 0.89999998,0.980535 l 14.59000002,0 c 0.49,0 0.89,-0.437594 0.89,-0.980535 0,-0.54294 -0.4,-0.988638 -0.89,-0.988638 z"
     inkscape:connector-curvature="0"
     style="fill:#d40072;fill-opacity:1" />
</svg>
