<svg id="SvgjsSvg1000" xmlns="http://www.w3.org/2000/svg" version="1.1" xmlns:xlink="http://www.w3.org/1999/xlink" xmlns:svgjs="http://svgjs.com/svgjs" width="30" height="29" viewBox="0 0 30 29"><title>Fill 1</title><desc>Created with Avocode.</desc><defs id="SvgjsDefs1001"></defs><path id="SvgjsPath1007" d="M1146.39 620.85C1147.99 624.72 1147.1100000000001 629.1800000000001 1144.14 632.14C1141.18 635.11 1136.72 635.99 1132.8500000000001 634.39C1128.9800000000002 632.79 1126.45 629.01 1126.45 624.8199999999999C1126.45 619.0899999999999 1131.0900000000001 614.4499999999999 1136.82 614.4499999999999C1141.01 614.4499999999999 1144.79 616.9799999999999 1146.3899999999999 620.8499999999999ZM1124.05 619.53C1121.9099999999999 624.6899999999999 1123.1 630.63 1127.05 634.5799999999999C1131 638.54 1136.94 639.7199999999999 1142.1 637.5799999999999C1147.27 635.4399999999999 1150.6299999999999 630.4 1150.6299999999999 624.8199999999999C1150.6299999999999 617.1899999999999 1144.4499999999998 610.9999999999999 1136.82 610.9999999999999C1131.23 610.9999999999999 1126.1899999999998 614.3699999999999 1124.05 619.5299999999999Z " fill="#d40072" fill-opacity="1" transform="matrix(1,0,0,1,-1121.5,-610.5)"></path><path id="SvgjsPath1008" d="M1146.39 620.85C1147.99 624.72 1147.1100000000001 629.1800000000001 1144.14 632.14C1141.18 635.11 1136.72 635.99 1132.8500000000001 634.39C1128.9800000000002 632.79 1126.45 629.01 1126.45 624.8199999999999C1126.45 619.0899999999999 1131.0900000000001 614.4499999999999 1136.82 614.4499999999999C1141.01 614.4499999999999 1144.79 616.9799999999999 1146.3899999999999 620.8499999999999ZM1124.05 619.53C1121.9099999999999 624.6899999999999 1123.1 630.63 1127.05 634.5799999999999C1131 638.54 1136.94 639.7199999999999 1142.1 637.5799999999999C1147.27 635.4399999999999 1150.6299999999999 630.4 1150.6299999999999 624.8199999999999C1150.6299999999999 617.1899999999999 1144.4499999999998 610.9999999999999 1136.82 610.9999999999999C1131.23 610.9999999999999 1126.1899999999998 614.3699999999999 1124.05 619.5299999999999Z " fill-opacity="0" fill="#ffffff" stroke-dasharray="0" stroke-linejoin="miter" stroke-linecap="butt" stroke-opacity="1" stroke="#f5f5f5" stroke-miterlimit="50" stroke-width="1" transform="matrix(1,0,0,1,-1121.5,-610.5)"></path><path id="SvgjsPath1009" d="M1140.96 625L1133 625 " fill-opacity="0" fill="#ffffff" stroke-dasharray="0" stroke-linejoin="miter" stroke-linecap="square" stroke-opacity="1" stroke="#d40072" stroke-miterlimit="50" stroke-width="2" transform="matrix(1,0,0,1,-1121.5,-610.5)"></path><path id="SvgjsPath1010" d="M1137 628.96L1137 621 " fill-opacity="0" fill="#ffffff" stroke-dasharray="0" stroke-linejoin="miter" stroke-linecap="square" stroke-opacity="1" stroke="#d40072" stroke-miterlimit="50" stroke-width="2" transform="matrix(1,0,0,1,-1121.5,-610.5)"></path></svg>