<?xml version="1.0" encoding="UTF-8" standalone="no"?>
<svg
   xmlns:dc="http://purl.org/dc/elements/1.1/"
   xmlns:cc="http://creativecommons.org/ns#"
   xmlns:rdf="http://www.w3.org/1999/02/22-rdf-syntax-ns#"
   xmlns:svg="http://www.w3.org/2000/svg"
   xmlns="http://www.w3.org/2000/svg"
   xmlns:sodipodi="http://sodipodi.sourceforge.net/DTD/sodipodi-0.dtd"
   xmlns:inkscape="http://www.inkscape.org/namespaces/inkscape"
   id="SvgjsSvg1029"
   version="1.1"
   width="74"
   height="73"
   viewBox="0 0 74 73"
   inkscape:version="0.91 r13725"
   sodipodi:docname="search-glare.svg">
  <metadata
     id="metadata4196">
    <rdf:RDF>
      <cc:Work
         rdf:about="">
        <dc:format>image/svg+xml</dc:format>
        <dc:type
           rdf:resource="http://purl.org/dc/dcmitype/StillImage" />
      </cc:Work>
    </rdf:RDF>
  </metadata>
  <sodipodi:namedview
     pagecolor="#ffffff"
     bordercolor="#666666"
     borderopacity="1"
     objecttolerance="10"
     gridtolerance="10"
     guidetolerance="10"
     inkscape:pageopacity="0"
     inkscape:pageshadow="2"
     inkscape:window-width="1855"
     inkscape:window-height="1056"
     id="namedview4194"
     showgrid="false"
     inkscape:zoom="12.589041"
     inkscape:cx="37"
     inkscape:cy="36.5"
     inkscape:window-x="65"
     inkscape:window-y="24"
     inkscape:window-maximized="1"
     inkscape:current-layer="SvgjsSvg1029" />
  <title
     id="title4187">Fill 1</title>
  <desc
     id="desc4189">Created with Avocode.</desc>
  <defs
     id="SvgjsDefs1030" />
  <path
     id="SvgjsPath1031"
     d="M620.45 1004.91C619.5500000000001 1001.87 619.71 998.5899999999999 620.9000000000001 995.66C621.3000000000001 994.67 620.8100000000001 993.54 619.82 993.14C618.85 992.74 617.69 993.24 617.3000000000001 994.21C615.7900000000001 997.94 615.59 1002.13 616.73 1006C617.32 1008.04 618.28 1009.94 619.5500000000001 1011.65C619.9200000000001 1012.14 620.5000000000001 1012.43 621.11 1012.43C621.53 1012.43 621.9300000000001 1012.3 622.27 1012.05C623.13 1011.41 623.3 1010.1899999999999 622.67 1009.3299999999999C621.66 1007.9899999999999 620.92 1006.4999999999999 620.4499999999999 1004.91Z "
     fill="#d40072"
     fill-opacity="1"
     transform="matrix(1,0,0,1,-605,-974)" />
  <path
     id="SvgjsPath1032"
     d="M676.74 1034.53L660.3100000000001 1018.11C659.23 1017.02 657.87 1016.32 656.3800000000001 1016.07C663.2900000000001 1005.2900000000001 661.8100000000001 991.1400000000001 652.6800000000001 982.01C647.5100000000001 976.84 640.6400000000001 974 633.34 974C626.0300000000001 974 619.1600000000001 976.84 614 982.01C603.33 992.68 603.33 1010.03 614 1020.6899999999999C619.16 1025.86 626.03 1028.7 633.34 1028.7C638.61 1028.7 643.6700000000001 1027.22 648.0600000000001 1024.4C648.3100000000001 1025.88 649.0100000000001 1027.25 650.09 1028.3300000000002L666.52 1044.7600000000002C667.88 1046.13 669.71 1046.8900000000003 671.64 1046.8900000000003L671.65 1046.8900000000003C673.5799999999999 1046.8900000000003 675.4 1046.1400000000003 676.76 1044.7800000000004C678.12 1043.4100000000005 678.87 1041.5900000000004 678.87 1039.6600000000005C678.86 1037.7200000000005 678.11 1035.9000000000005 676.74 1034.5300000000004ZM649.93 1017.95C645.5 1022.38 639.5999999999999 1024.82 633.3299999999999 1024.82C627.06 1024.82 621.17 1022.3799999999999 616.7399999999999 1017.9499999999999C607.5899999999999 1008.79 607.5899999999999 993.9 616.7399999999999 984.76C621.1699999999998 980.3199999999999 627.0699999999999 977.88 633.3399999999999 977.88C639.5999999999999 977.88 645.4999999999999 980.32 649.93 984.75C654.3499999999999 989.18 656.79 995.07 656.79 1001.34C656.79 1007.62 654.3499999999999 1013.52 649.93 1017.95ZM674.01 1042.03C673.38 1042.6499999999999 672.54 1043 671.64 1043C670.74 1043 669.9 1042.65 669.26 1042.01L652.83 1025.58C652.19 1024.9399999999998 651.84 1024.1 651.84 1023.1999999999999C651.84 1022.31 652.19 1021.4699999999999 652.82 1020.8399999999999C653.45 1020.2099999999999 654.2900000000001 1019.8599999999999 655.1800000000001 1019.8599999999999L655.1800000000001 1019.18L655.19 1019.8599999999999C656.08 1019.8599999999999 656.9300000000001 1020.2099999999999 657.5600000000001 1020.8499999999999L673.99 1037.27C674.63 1037.91 674.98 1038.76 674.98 1039.66C674.99 1040.5500000000002 674.64 1041.4 674.01 1042.03Z "
     fill-opacity="1"
     fill="#d40072"
     transform="matrix(1,0,0,1,-605,-974)" />
</svg>
