<svg id="SvgjsSvg1000" xmlns="http://www.w3.org/2000/svg" version="1.1" xmlns:xlink="http://www.w3.org/1999/xlink" xmlns:svgjs="http://svgjs.com/svgjs" width="20" height="20" viewBox="0 0 20 20"><title>Shape</title><desc>Created with Avocode.</desc><defs id="SvgjsDefs1001"></defs><path id="SvgjsPath1007" d="M601.9 1894.64V1892.68C601.9 1892.3100000000002 601.6 1892 601.2099999999999 1892C600.8299999999999 1892 600.5199999999999 1892.31 600.5199999999999 1892.68V1894.64H596.5499999999998V1892.68C596.5499999999998 1892.3100000000002 596.2399999999999 1892 595.8599999999998 1892C595.4799999999998 1892 595.1699999999997 1892.31 595.1699999999997 1892.68V1894.64H591.1899999999997V1892.68C591.1899999999997 1892.3100000000002 590.8799999999998 1892 590.4999999999997 1892C590.1199999999997 1892 589.8099999999996 1892.31 589.8099999999996 1892.68V1894.64H588.5999999999996C587.1699999999996 1894.64 585.9999999999995 1895.7900000000002 585.9999999999995 1897.2V1909.29C585.9999999999995 1910.71 587.1699999999995 1911.86 588.5999999999996 1911.86H603.1199999999995C604.5499999999995 1911.86 605.7099999999996 1910.7099999999998 605.7099999999996 1909.29V1897.2C605.7099999999996 1895.79 604.5499999999996 1894.64 603.1199999999995 1894.64ZM589.81 1896V1896.94C589.81 1897.3200000000002 590.1199999999999 1897.6200000000001 590.5 1897.6200000000001C590.88 1897.6200000000001 591.19 1897.3200000000002 591.19 1896.94V1896H595.1700000000001V1896.94C595.1700000000001 1897.3200000000002 595.48 1897.6200000000001 595.8600000000001 1897.6200000000001C596.2400000000001 1897.6200000000001 596.5500000000002 1897.3200000000002 596.5500000000002 1896.94V1896H600.5200000000002V1896.94C600.5200000000002 1897.3200000000002 600.8300000000002 1897.6200000000001 601.2100000000003 1897.6200000000001C601.6000000000003 1897.6200000000001 601.9000000000003 1897.3200000000002 601.9000000000003 1896.94V1896H603.1200000000003C603.7900000000003 1896 604.3300000000004 1896.54 604.3300000000004 1897.2V1899.48H587.3800000000003V1897.2C587.3800000000003 1896.54 587.9300000000003 1896 588.6000000000004 1896ZM588.6 1910.49C587.9300000000001 1910.49 587.38 1909.95 587.38 1909.29V1900.87H604.33V1909.29C604.33 1909.95 603.7900000000001 1910.49 603.12 1910.49Z " fill="#d40072" fill-opacity="1" transform="matrix(1,0,0,1,-586,-1892)"></path></svg>