<?xml version="1.0" encoding="UTF-8" standalone="no"?>
<svg
   xmlns:dc="http://purl.org/dc/elements/1.1/"
   xmlns:cc="http://creativecommons.org/ns#"
   xmlns:rdf="http://www.w3.org/1999/02/22-rdf-syntax-ns#"
   xmlns:svg="http://www.w3.org/2000/svg"
   xmlns="http://www.w3.org/2000/svg"
   xmlns:sodipodi="http://sodipodi.sourceforge.net/DTD/sodipodi-0.dtd"
   xmlns:inkscape="http://www.inkscape.org/namespaces/inkscape"
   id="SvgjsSvg1000"
   version="1.1"
   width="66.75"
   height="58.94999999999982"
   viewBox="0 0 66.75 58.94999999999982"
   inkscape:version="0.91 r13725"
   sodipodi:docname="twocars.svg">
  <metadata
     id="metadata3412">
    <rdf:RDF>
      <cc:Work
         rdf:about="">
        <dc:format>image/svg+xml</dc:format>
        <dc:type
           rdf:resource="http://purl.org/dc/dcmitype/StillImage" />
        <dc:title>Page 1</dc:title>
      </cc:Work>
    </rdf:RDF>
  </metadata>
  <sodipodi:namedview
     pagecolor="#ffffff"
     bordercolor="#666666"
     borderopacity="1"
     objecttolerance="10"
     gridtolerance="10"
     guidetolerance="10"
     inkscape:pageopacity="0"
     inkscape:pageshadow="2"
     inkscape:window-width="1855"
     inkscape:window-height="1056"
     id="namedview3410"
     showgrid="false"
     inkscape:zoom="11.023429"
     inkscape:cx="37.200966"
     inkscape:cy="22.220303"
     inkscape:window-x="65"
     inkscape:window-y="24"
     inkscape:window-maximized="1"
     inkscape:current-layer="SvgjsSvg1000" />
  <title
     id="title3403">Page 1</title>
  <desc
     id="desc3405">Created with Avocode.</desc>
  <defs
     id="SvgjsDefs1001" />
  <path
     style="color:#000000;font-style:normal;font-variant:normal;font-weight:normal;font-stretch:normal;font-size:medium;line-height:normal;font-family:sans-serif;text-indent:0;text-align:start;text-decoration:none;text-decoration-line:none;text-decoration-style:solid;text-decoration-color:#000000;letter-spacing:normal;word-spacing:normal;text-transform:none;direction:ltr;block-progression:tb;writing-mode:lr-tb;baseline-shift:baseline;text-anchor:start;white-space:normal;clip-rule:nonzero;display:inline;overflow:visible;visibility:visible;opacity:1;isolation:auto;mix-blend-mode:normal;color-interpolation:sRGB;color-interpolation-filters:linearRGB;solid-color:#000000;solid-opacity:1;fill-opacity:1;fill-rule:nonzero;stroke:none;stroke-width:1;stroke-linecap:butt;stroke-linejoin:miter;stroke-miterlimit:4;stroke-dasharray:none;stroke-dashoffset:0;stroke-opacity:1;color-rendering:auto;image-rendering:auto;shape-rendering:auto;text-rendering:auto;enable-background:accumulate"
     d="m 35.20508,-0.025 c -5.76323,0 -10.50977,4.72632 -10.50977,10.50977 l 0,4.53515 c -1.15125,0.94033 -1.92365,2.1995 -2.36914,3.55469 l -8.57031,0 c -5.77273,0 -10.52148,4.72632 -10.52148,10.50977 l 0,4.57421 C 1.36997,35.1968 0.39532,37.55525 0.375,39.81094 l 0,0.002 0,15.02149 c 0,0.57128 0.10042,1.57694 0.92383,2.4121 l 0.00195,0.002 0.00391,0.002 c 0.83512,0.82336 1.84558,0.94531 2.42969,0.94531 l 6.4414,0 c 0.5841,0 1.59457,-0.12195 2.42969,-0.94531 l 0.0039,-0.002 0.002,-0.002 c 0.8234,-0.83516 0.92383,-1.84082 0.92383,-2.4121 l 0,-2.35938 17.59961,0 0,2.35938 c 0,0.57128 0.10042,1.57694 0.92382,2.4121 l 0.002,0 0,0.002 c 0.82795,0.82795 1.84949,0.94726 2.43359,0.94726 l 6.44141,0 c 0.57536,0 1.59587,-0.11931 2.42383,-0.94726 0.83449,-0.83449 0.93554,-1.84278 0.93554,-2.41406 l 0,-15.02344 0,-0.002 c -0.02927,-2.1658 -0.97781,-4.39184 -2.68945,-5.93359 l 10.99023,0 0,2.35938 c 0,0.56437 0.08714,1.58558 0.92578,2.41406 4.6e-4,4.5e-4 0.0015,-4.5e-4 0.002,0 4.6e-4,4.6e-4 -4.7e-4,0.0015 0,0.002 0.82587,0.82432 1.84164,0.95508 2.43164,0.95508 l 6.42969,0 c 0.59051,0 1.60732,-0.13076 2.43359,-0.95703 0.837,-0.82683 0.9375,-1.84329 0.9375,-2.41406 l 0,-15.02344 0,-0.0039 C 65.7254,18.95326 64.7492,16.59714 62.88477,15.05898 l 0,-4.57421 C 62.88477,4.70193 58.14773,-0.025 52.375,-0.025 l -17.16992,0 z m 0,1 17.16992,0 c 5.22727,0 9.50977,4.2726 9.50977,9.50977 l 0,4.9707 0.20117,0.15039 c 1.73822,1.29677 2.64178,3.53301 2.66992,5.61523 l 0,15.01368 c 0,0.46871 -0.06161,1.13229 -0.64258,1.70507 l -0.002,0.002 c -0.57373,0.57373 -1.27708,0.66406 -1.72656,0.66406 l -6.42969,0 c -0.44949,0 -1.15283,-0.09033 -1.72656,-0.66406 l -0.002,-0.002 C 53.64727,37.36871 53.5957,36.70989 53.5957,36.23477 l 0,-3.35938 -13.16015,0 0,1.17969 0.19922,0.15039 c 1.72862,1.29647 2.63201,3.53496 2.66015,5.61719 l 0,15.01172 c 0,0.46871 -0.05707,1.12152 -0.64258,1.70703 -0.57204,0.57204 -1.27215,0.65429 -1.71679,0.65429 l -6.44141,0 c -0.45482,0 -1.15136,-0.08394 -1.72266,-0.65234 -0.57659,-0.58483 -0.63671,-1.24027 -0.63671,-1.70898 l 0,-3.35938 -19.59961,0 0,3.35938 c 0,0.46811 -0.06024,1.12276 -0.63477,1.70703 -0.58399,0.57295 -1.26978,0.65429 -1.72461,0.65429 l -6.4414,0 c -0.45483,0 -1.14063,-0.08134 -1.72461,-0.65429 C 1.43523,55.95714 1.375,55.30249 1.375,54.83438 l 0,-15.01563 0,-0.0039 c 0.01979,-2.07953 0.92103,-4.31338 2.6582,-5.60937 l 0.20118,-0.15039 0,-4.9707 c 0,-5.23656 4.29421,-9.50977 9.52148,-9.50977 l 9.26758,0 0.10351,-0.36523 c 0.39527,-1.41166 1.1819,-2.72145 2.36719,-3.60352 l 0.20117,-0.15039 0,-4.9707 c 0,-5.23656 4.29299,-9.50977 9.50977,-9.50977 z m 0,3.28906 c -3.42793,0 -6.22071,2.77236 -6.2207,6.22071 l 0,5.73046 c -1e-5,0.55641 -0.12355,0.78587 -0.32422,1.00977 -0.20068,0.2239 -0.53391,0.42786 -0.91993,0.74219 l -0.0039,0.002 -0.0019,0.002 c -0.28198,0.23499 -0.52208,0.51136 -0.74415,0.79688 l -0.62695,0.80664 4.55078,0 c 5.22728,0 9.52149,4.27321 9.52149,9.50977 l 0,0.5 21.01953,0 0,-8.36915 c 0,-1.434 -0.78012,-2.57092 -1.61524,-3.24804 C 59.45878,17.65292 59.12353,17.44896 58.92188,17.225 58.71949,17.00023 58.5957,16.77036 58.5957,16.21523 l 0,-5.73046 c 0,-3.4473 -2.78361,-6.22071 -6.2207,-6.22071 l -17.16992,0 z m 0,1 17.16992,0 c 2.90291,0 5.2207,2.308 5.2207,5.22071 l 0,5.73046 c 0,0.74488 0.24387,1.30001 0.58399,1.67774 0.34011,0.37773 0.72012,0.59386 1.02734,0.84765 l 0.0019,0.002 0.002,0 c 0.64489,0.52288 1.24414,1.40665 1.24414,2.47265 l 0,7.36915 -19.1211,0 C 41.05557,23.04408 36.51004,18.57461 30.91406,18.57461 l -2.33789,0 c 0.26959,-0.19876 0.55604,-0.37807 0.82813,-0.68164 0.33932,-0.3786 0.58008,-0.93415 0.58008,-1.67774 l 0,-5.73046 c 0,-2.91166 2.32863,-5.22071 5.2207,-5.22071 z m 2.15039,0.43164 c -1.61769,0 -3.29473,0.28162 -4.70313,1.35157 -1.44931,1.10371 -2.23828,2.96703 -2.23828,4.86718 l 0,3.58008 c 0,1.71245 1.78643,3.038 3.41602,2.53906 3.11012,-0.94096 5.37298,-1.31836 9.96484,-1.31836 4.5818,0 6.85553,0.3776 9.95508,1.31836 1.63594,0.49845 3.42407,-0.82582 3.41406,-2.53906 l 0,-0.0039 0,-3.57617 c 0,-1.90015 -0.78598,-3.76117 -2.22461,-4.86523 L 54.9375,7.04727 C 53.5291,5.97732 51.85193,5.6957 50.22461,5.6957 l -12.86914,0 z m 0,1 12.86914,0 c 1.51205,0 2.93414,0.25733 4.10547,1.14649 1.14137,0.87593 1.83398,2.45241 1.83398,4.07226 l 0,3.58203 0,0.002 c 0.0072,0.96483 -1.20025,1.85929 -2.12304,1.57812 -3.16045,-0.95924 -5.6079,-1.36133 -10.2461,-1.36133 -4.64814,0 -7.08402,0.40229 -10.2539,1.36133 l -0.002,0 c -0.90988,0.27942 -2.125,-0.61516 -2.125,-1.58203 l 0,-3.58008 c 0,-1.61985 0.69307,-3.19597 1.84375,-4.07226 1.1716,-0.89006 2.59535,-1.14649 4.09766,-1.14649 z m -0.0059,3.28907 c -0.45237,0.00514 -1.04909,0.01273 -1.60742,0.25781 -0.55834,0.24508 -1.04951,0.84914 -1.03711,1.67969 l 0,1.54687 0.60156,-0.125 c 2.7509,-0.56812 4.87207,-0.92969 8.48828,-0.92969 3.61621,0 5.73783,0.36162 8.47852,0.92969 l 0.60156,0.125 0,-1.54687 C 52.88738,11.09297 52.39949,10.49004 51.8418,10.24453 51.28411,9.99902 50.68775,9.9899 50.23047,9.98477 l -0.0019,0 -0.0039,0 -12.87305,0 -0.002,0 z m 0.0059,1 12.86914,0 c 0.43119,0.0051 0.91644,0.04246 1.21484,0.17382 0.29981,0.13199 0.44317,0.23735 0.43555,0.74805 l 0,0.0039 0,0.35156 c -2.48931,-0.50096 -4.67367,-0.84766 -8.08008,-0.84766 -3.40693,0 -5.59233,0.34662 -8.08984,0.84766 l 0,-0.35156 0,-0.0039 c -0.0076,-0.50946 0.13583,-0.61563 0.4375,-0.74805 0.30024,-0.13179 0.78672,-0.16869 1.21289,-0.17382 z m 17.87891,7.58984 c -1.85005,0 -3.35938,1.51129 -3.35938,3.36133 0,1.85004 1.50933,3.35937 3.35938,3.35937 1.85004,0 3.36132,-1.50933 3.36132,-3.35937 0,-1.85004 -1.51128,-3.36133 -3.36132,-3.36133 z m 0,1 c 1.30995,0 2.36132,1.05137 2.36132,2.36133 0,1.30996 -1.05137,2.35937 -2.36132,2.35937 -1.30996,0 -2.35938,-1.04941 -2.35938,-2.35937 0,-1.30996 1.04942,-2.36133 2.35938,-2.36133 z m -41.47852,3.29101 c -3.43709,0 -6.23047,2.77041 -6.23047,6.21876 l 0,5.7207 c 0,0.56212 -0.12563,0.79484 -0.32617,1.01953 C 6.99867,36.0493 6.66531,36.25247 6.2793,36.5668 l 0,0.002 -0.00196,0 c -0.82151,0.67521 -1.61328,1.80943 -1.61328,3.24609 l 0,8.3711 35.3418,0 0,-8.3711 c 0,-1.43553 -0.79037,-2.57017 -1.62305,-3.24609 -0.38278,-0.31621 -0.71766,-0.51858 -0.91992,-0.74414 -0.20226,-0.22556 -0.32812,-0.45868 -0.32812,-1.01953 l 0,-5.7207 c 0,-3.4473 -2.78362,-6.21876 -6.22071,-6.21876 l -17.1582,0 z m 0,1 17.1582,0 c 2.90292,0 5.22071,2.30605 5.22071,5.21876 l 0,5.7207 c 0,0.74915 0.24374,1.3061 0.58398,1.68554 0.34024,0.37945 0.72012,0.59582 1.02734,0.84961 l 0.002,0.002 0.002,0.002 c 0.6466,0.52427 1.25586,1.40737 1.25586,2.4707 l 0,7.3711 -33.3418,0 0,-7.3711 c 0,-1.06333 0.60956,-1.94787 1.24805,-2.47265 0.31378,-0.2553 0.69413,-0.47168 1.0332,-0.85157 0.33946,-0.38031 0.58008,-0.93767 0.58008,-1.68554 l 0,-5.7207 c 0,-2.91166 2.32756,-5.21876 5.23047,-5.21876 z m 2.13867,0.42969 c -1.61769,0 -3.29277,0.28162 -4.70117,1.35157 -1.45224,1.09549 -2.23828,2.96757 -2.23828,4.86718 l 0,3.58008 c 0,1.71313 1.78952,3.04086 3.41992,2.52734 3.10816,-0.93007 5.38296,-1.3164 9.96094,-1.3164 4.57797,0 6.85132,0.38645 9.94922,1.3164 1.63687,0.51153 3.43132,-0.81314 3.41992,-2.52734 l 0,-0.002 0,-3.57813 c 0,-1.90015 -0.78616,-3.77144 -2.22852,-4.86718 -1.4084,-1.06995 -3.08348,-1.35157 -4.70117,-1.35157 l -12.88086,0 z m 0,1 12.88086,0 c 1.50231,0 2.92605,0.25839 4.09766,1.14844 1.13764,0.86425 1.83203,2.45046 1.83203,4.07031 l 0,3.58203 0,0.002 c 0.0072,0.96483 -1.1986,1.85859 -2.1211,1.57031 l -0.0019,-0.002 -0.0039,0 c -3.15888,-0.94868 -5.60326,-1.36133 -10.24218,-1.36133 -4.63893,0 -7.0853,0.41276 -10.25391,1.36133 l -0.0039,0 -0.0039,0.002 c -0.9096,0.28649 -2.11914,-0.60735 -2.11914,-1.57422 l 0,-3.58008 c 0,-1.61985 0.69483,-3.20567 1.8418,-4.07031 1.1716,-0.89005 2.59534,-1.14844 4.09765,-1.14844 z m -0.0059,3.28907 c -0.4505,0.0051 -1.0442,0.0114 -1.60156,0.25585 -0.55736,0.24446 -1.04359,0.84854 -1.03125,1.68165 l 0,1.54882 0.60156,-0.12695 c 2.73867,-0.57761 4.86139,-0.92969 8.47852,-0.92969 3.61712,0 5.73789,0.35208 8.47656,0.92969 l 0.60156,0.12695 0,-1.54882 c 0.01234,-0.83311 -0.47389,-1.43719 -1.03125,-1.68165 -0.55736,-0.24445 -1.15106,-0.25074 -1.60156,-0.25585 l -0.0039,0 -0.0019,0 -12.88281,0 -0.0039,0 z m 0.0059,1 12.88086,0 c 0.42799,0.0051 0.9108,0.04194 1.20703,0.17187 0.29764,0.13054 0.44125,0.23505 0.4336,0.75195 l -0.002,0.0039 0,0.34766 c -2.49019,-0.50771 -4.67341,-0.84571 -8.07812,-0.84571 -3.40471,0 -5.58989,0.338 -8.08008,0.84571 l 0,-0.34766 0,-0.0039 c -0.0077,-0.5169 0.134,-0.62141 0.43164,-0.75195 0.29623,-0.12993 0.77905,-0.16673 1.20703,-0.17187 z m 40.99024,3.29101 0,0.5 0,1.92969 4.57031,0 0,-2.42969 -4.57031,0 z m 1,1 2.57031,0 0,0.42969 -2.57031,0 0,-0.42969 z m -47,3.28906 c -1.85216,0 -3.35938,1.52105 -3.35938,3.3711 0,1.84176 1.50722,3.35937 3.35938,3.35937 1.85215,0 3.35937,-1.51761 3.35937,-3.35937 0,-1.85005 -1.50722,-3.3711 -3.35937,-3.3711 z m 22.89062,0 c -1.85215,0 -3.36133,1.52105 -3.36133,3.3711 0,1.84176 1.50918,3.35937 3.36133,3.35937 1.85215,0 3.35938,-1.51761 3.35938,-3.35937 0,-1.85005 -1.50723,-3.3711 -3.35938,-3.3711 z m -22.89062,1 c 1.30784,0 2.35937,1.06114 2.35937,2.3711 0,1.29823 -1.05153,2.35937 -2.35937,2.35937 -1.30785,0 -2.35938,-1.06114 -2.35938,-2.35937 0,-1.30996 1.05153,-2.3711 2.35938,-2.3711 z m 22.89062,0 c 1.30785,0 2.35938,1.06114 2.35938,2.3711 0,1.29823 -1.05153,2.35937 -2.35938,2.35937 -1.30785,0 -2.36133,-1.06114 -2.36133,-2.35937 0,-1.30996 1.05348,-2.3711 2.36133,-2.3711 z M 4.66406,51.475 l 0,0.5 0,1.92969 4.58008,0 0,-2.42969 -4.58008,0 z m 30.76172,0 0,0.5 0,1.92969 4.58008,0 0,-2.42969 -4.58008,0 z m -29.76172,1 2.58008,0 0,0.42969 -2.58008,0 0,-0.42969 z m 30.76172,0 2.58008,0 0,0.42969 -2.58008,0 0,-0.42969 z"
     id="SvgjsPath1007"
     inkscape:connector-curvature="0" />
  <path
     style="color:#000000;font-style:normal;font-variant:normal;font-weight:normal;font-stretch:normal;font-size:medium;line-height:normal;font-family:sans-serif;text-indent:0;text-align:start;text-decoration:none;text-decoration-line:none;text-decoration-style:solid;text-decoration-color:#000000;letter-spacing:normal;word-spacing:normal;text-transform:none;direction:ltr;block-progression:tb;writing-mode:lr-tb;baseline-shift:baseline;text-anchor:start;white-space:normal;clip-rule:nonzero;display:inline;overflow:visible;visibility:visible;opacity:1;isolation:auto;mix-blend-mode:normal;color-interpolation:sRGB;color-interpolation-filters:linearRGB;solid-color:#000000;solid-opacity:1;fill:#f5f5f5;fill-opacity:0;fill-rule:nonzero;stroke:none;stroke-width:1.75;stroke-linecap:butt;stroke-linejoin:miter;stroke-miterlimit:50;stroke-dasharray:none;stroke-dashoffset:0;stroke-opacity:1;color-rendering:auto;image-rendering:auto;shape-rendering:auto;text-rendering:auto;enable-background:accumulate"
     d="m 35.20508,-0.4 c -5.96814,0 -10.88477,4.89624 -10.88477,10.88477 l 0,4.39843 c -1.0523,0.91259 -1.78022,2.06484 -2.23437,3.31641 l -8.33008,0 c -5.97727,0 -10.89649,4.89624 -10.89648,10.88477 l 0,4.36328 C 0.96899,35.07084 0.02081,37.49675 0,39.80703 l 0,0.0039 0,15.02344 c 0,0.60974 0.11529,1.74673 1.03125,2.67578 l 0.00586,0.0039 0.00391,0.0039 c 0.92895,0.91587 2.06118,1.05273 2.69336,1.05273 l 6.4414,0 c 0.63218,0 1.7644,-0.13686 2.69336,-1.05273 l 0.0039,-0.0039 0.0059,-0.0039 c 0.91595,-0.92905 1.03125,-2.06604 1.03125,-2.67578 l 0,-1.98438 16.84961,0 0,1.98438 c 0,0.60974 0.11529,1.74673 1.03125,2.67578 l 0.0039,0.002 0.002,0.002 c 0.92391,0.92392 2.06508,1.05664 2.69726,1.05664 l 6.44141,0 c 0.62438,0 1.76358,-0.13272 2.6875,-1.05664 0.92786,-0.92786 1.04687,-2.06994 1.04687,-2.67968 l 0,-15.0254 0,-0.0059 c -0.02636,-1.95046 -0.70917,-3.98297 -2.04687,-5.55273 l 9.59765,0 0,1.98438 c 0,0.59805 0.10043,1.75648 1.03711,2.68164 7.4e-4,7.2e-4 0.0012,0.0012 0.002,0.002 0.92018,0.91707 2.05293,1.0625 2.69531,1.0625 l 6.42969,0 c 0.64288,0 1.77668,-0.14543 2.69726,-1.06445 0.93378,-0.92227 1.04883,-2.07238 1.04883,-2.68164 l 0,-15.02539 0,-0.0059 C 66.09968,18.89591 65.15007,16.4711 63.25977,14.84805 l 0,-4.36328 C 63.25977,4.4973 58.35227,-0.4 52.375,-0.4 l -17.16992,0 z m 0,1.75 17.16992,0 c 5.02273,0 9.13477,4.10223 9.13477,9.13477 l 0,5.1582 0.35156,0.26367 c 1.62438,1.21184 2.49279,3.34142 2.51953,5.32031 l 0,15.00782 c 0,0.43025 -0.04511,0.96013 -0.5293,1.4375 l -0.0039,0.002 -0.002,0.002 c -0.47903,0.47903 -1.06433,0.55469 -1.46093,0.55469 l -6.42969,0 c -0.3966,0 -0.98191,-0.07566 -1.46094,-0.55469 l -0.002,-0.002 -0.002,-0.002 C 54.00897,37.19778 53.9707,36.67624 53.9707,36.23477 l 0,-3.73438 -13.91015,0 0,1.74219 0.34961,0.26172 c 1.61509,1.21132 2.48302,3.34337 2.50976,5.32226 l 0,15.00782 c 0,0.43025 -0.04106,0.94926 -0.5332,1.4414 -0.47608,0.47608 -1.05555,0.54492 -1.45117,0.54492 l -6.44141,0 c -0.40668,0 -0.98171,-0.07047 -1.45703,-0.54297 -0.48021,-0.48976 -0.52734,-1.01431 -0.52734,-1.44335 l 0,-3.73438 -20.34961,0 0,3.73438 c 0,0.42801 -0.04841,0.9507 -0.52539,1.43945 -0.4897,0.47892 -1.05278,0.54687 -1.45899,0.54687 l -6.4414,0 c -0.40622,0 -0.96929,-0.06795 -1.45899,-0.54687 C 1.79841,55.78508 1.75,55.26239 1.75,54.83438 l 0,-15.01172 c 0.0178,-1.97604 0.88343,-4.10457 2.50781,-5.31641 l 0.35157,-0.26172 0,-5.16015 c 0,-5.03148 4.12375,-9.13477 9.14648,-9.13477 l 9.55273,0 0.17969,-0.63867 c 0.37671,-1.3454 1.12176,-2.58067 2.22852,-3.4043 l 0.35351,-0.26172 0,-5.16015 c 0,-5.03148 4.12291,-9.13477 9.13477,-9.13477 z m 0,2.53906 c -3.62888,0 -6.59571,2.9461 -6.5957,6.59571 l 0,5.73046 c 0,0.48622 -0.07984,0.59389 -0.22852,0.75977 -0.14868,0.16588 -0.46588,0.36485 -0.87891,0.70117 l -0.0039,0.0039 -0.0039,0.002 c -0.31346,0.26122 -0.56966,0.55831 -0.80078,0.85547 l -1.09766,1.41211 5.31836,0 c 5.02273,0 9.14649,4.10329 9.14649,9.13477 l 0,0.875 21.76953,0 0,-8.74415 c 0,-1.572 -0.84746,-2.8041 -1.75391,-3.53906 -0.40742,-0.33579 -0.72519,-0.53675 -0.875,-0.70312 -0.15074,-0.16742 -0.23047,-0.27384 -0.23047,-0.75782 l 0,-5.73046 c 0,-3.64777 -2.9583,-6.59571 -6.5957,-6.59571 l -17.16992,0 z M 34.44141,5.79141 C 33.74525,6.01162 33.05388,6.27128 32.42578,6.74844 31.64735,7.34124 31.05337,8.13079 30.65234,9.01992 31.19638,7.303 32.62862,6.08444 34.44141,5.79141 Z m 18.70898,0.00195 c 1.81374,0.29608 3.23897,1.51345 3.7793,3.22852 C 56.53042,8.13332 55.94081,7.3435 55.16797,6.75039 l -0.0019,0 -0.002,-0.00195 C 54.53712,6.27215 53.84602,6.01356 53.15039,5.79336 Z m -15.79492,1.27734 12.86914,0 c 1.46806,0 2.7948,0.24793 3.87695,1.06836 1.0299,0.79039 1.6875,2.26066 1.6875,3.77539 l 0,3.58399 0,0.0039 c 0.0051,0.68347 -0.98377,1.41439 -1.63867,1.21485 l -0.002,0 c -3.18328,-0.96617 -5.69417,-1.37696 -10.35352,-1.37696 -4.66924,0 -7.17099,0.41114 -10.36328,1.37696 l -0.002,0 -0.002,0.002 c -0.63979,0.19647 -1.63867,-0.53759 -1.63867,-1.22461 l 0,-3.58008 c 0,-1.51473 0.65662,-2.98243 1.69532,-3.77343 1.0828,-0.8226 2.41205,-1.07032 3.87109,-1.07032 z m -0.0098,2.53907 c -0.46165,0.00524 -1.10127,0.00368 -1.75586,0.29101 -0.65458,0.28733 -1.27396,1.0764 -1.25976,2.02734 l 0,2.00196 1.05273,-0.21875 c 2.74408,-0.56671 4.82124,-0.92188 8.41211,-0.92188 3.59087,0 5.66865,0.35526 8.40235,0.92188 l 1.05273,0.21875 0,-2.00196 C 53.26416,10.97935 52.64853,10.18887 51.99414,9.90078 51.33975,9.6127 50.70087,9.61501 50.23438,9.60977 l -0.0039,0 -0.0059,0 -12.875,0 -0.0039,0 z m 0.01953,1.75 1.36915,0 c -0.87993,0.11572 -1.73996,0.28207 -2.60352,0.44921 0.01009,-0.1563 0.0068,-0.23762 0.16406,-0.30664 0.20542,-0.09016 0.65197,-0.13782 1.07031,-0.14257 z m 11.49024,0 1.35937,0 c 0.4235,0.0048 0.87112,0.05316 1.07422,0.14257 0.15449,0.06801 0.14996,0.15102 0.16016,0.30469 -0.85999,-0.16688 -1.71597,-0.33167 -2.59375,-0.44726 z m -18.57813,5.08789 c 0.52132,1.46378 2.09316,2.42576 3.66407,1.94336 3.08541,-0.93321 5.28492,-1.30079 9.85351,-1.30079 4.56065,0 6.76899,0.36891 9.8457,1.30274 0.17433,0.05311 0.34314,0.0057 0.51758,0.02539 -1.52279,0.47186 -2.6582,1.84604 -2.6582,3.51758 0,2.05257 1.6818,3.73437 3.73438,3.73437 2.05257,0 3.73632,-1.6818 3.73632,-3.73437 0,-1.95157 -1.53726,-3.52332 -3.45117,-3.67774 0.83304,-0.31501 1.48168,-0.95078 1.78516,-1.80468 0.06012,0.68399 0.25232,1.31004 0.5957,1.6914 0.39176,0.43509 0.78752,0.65438 1.06641,0.88477 l 0.0039,0.002 0.0039,0.0039 c 0.57355,0.46504 1.10547,1.25168 1.10547,2.17968 l 0,6.99415 -18.44922,0 C 41.15787,22.64774 36.58191,18.19961 30.91406,18.19961 l -1.29883,0 c 0.0249,-0.02606 0.04349,-0.02889 0.06836,-0.05664 0.34411,-0.38394 0.53564,-1.01001 0.59375,-1.69531 z m 24.95704,3.50195 c 1.10742,0 1.98632,0.8789 1.98632,1.98633 0,1.10742 -0.8789,1.98437 -1.98632,1.98437 -1.10743,0 -1.98438,-0.87695 -1.98438,-1.98437 0,-1.10743 0.87695,-1.98633 1.98438,-1.98633 z m -41.47852,2.54101 c -3.6374,0 -6.60547,2.94415 -6.60547,6.59376 l 0,5.7207 c 0,0.49247 -0.08201,0.6032 -0.23047,0.76953 -0.14845,0.16632 -0.46392,0.36485 -0.87695,0.70117 l -0.00195,0.002 -0.00196,0.002 c -0.89014,0.73162 -1.75,1.95849 -1.75,3.53515 l 0,8.7461 36.0918,0 0,-8.7461 c 0,-1.57666 -0.86218,-2.80653 -1.76563,-3.53906 l 0.0078,0.0039 C 38.21194,35.94007 37.8927,35.74051 37.74219,35.57266 37.59168,35.4048 37.50977,35.29532 37.50977,34.80508 l 0,-5.7207 c 0,-3.64777 -2.9583,-6.59376 -6.59571,-6.59376 l -17.1582,0 z m -0.78125,1.9043 c -0.69202,0.21976 -1.38118,0.47733 -2.00586,0.95117 -0.7801,0.58808 -1.37435,1.37523 -1.77539,2.26368 0.54481,-1.70779 1.97206,-2.91785 3.78125,-3.21485 z m 18.72266,0 c 1.80717,0.29768 3.22757,1.50866 3.76953,3.2168 -0.39928,-0.8874 -0.98752,-1.67552 -1.76172,-2.26367 -0.62522,-0.47498 -1.31502,-0.73294 -2.00781,-0.95313 z m -15.80274,1.27539 12.88086,0 c 1.45904,0 2.78829,0.24967 3.87109,1.07227 1.02338,0.77744 1.6836,2.25675 1.6836,3.77148 l 0,3.58399 0,0.0039 c 0.0051,0.68347 -0.9804,1.41152 -1.63477,1.20703 l -0.0039,0 -0.0039,-0.002 c -3.18055,-0.95518 -5.69095,-1.37695 -10.35156,-1.37695 -4.66062,0 -7.17127,0.42196 -10.36133,1.37695 l -0.0059,0.002 -0.0059,0.002 c -0.6393,0.20135 -1.63281,-0.52978 -1.63281,-1.2168 l 0,-3.58008 c 0,-1.51473 0.65921,-2.99141 1.6914,-3.76953 l 0.002,-0.002 c 1.0828,-0.8226 2.41205,-1.07227 3.87109,-1.07227 z m -0.0098,2.53907 c -0.45838,0.0052 -1.0933,-7e-5 -1.74805,0.2871 -0.65475,0.28718 -1.26996,1.07958 -1.25586,2.03125 l 0,2.00586 1.05469,-0.22265 c 2.73017,-0.57582 4.80792,-0.92188 8.40039,-0.92188 3.59246,0 5.66826,0.34606 8.39844,0.92188 l 1.05468,0.22265 0,-2.00586 c 0.0141,-0.95167 -0.6011,-1.74407 -1.25586,-2.03125 -0.65475,-0.28717 -1.28967,-0.2819 -1.74804,-0.2871 l -0.0059,0 -0.0039,0 -12.88477,0 -0.0059,0 z m 0.01953,1.75 1.36132,0 c -0.87441,0.11474 -1.72843,0.27925 -2.58593,0.44726 0.0099,-0.15847 0.0072,-0.2415 0.16015,-0.30859 0.20025,-0.08783 0.64283,-0.13388 1.06446,-0.13867 z m 11.5,0 1.36132,0 c 0.42163,0.0048 0.86421,0.05084 1.06446,0.13867 0.15307,0.06713 0.1522,0.14978 0.16211,0.30859 -0.85817,-0.16817 -1.71284,-0.33244 -2.58789,-0.44726 z m 29.10547,2.54101 0,0.875 0,2.30469 5.32031,0 0,-3.17969 -5.32031,0 z M 8.81641,35.04336 c 0.30291,0.85372 0.94837,1.48817 1.77734,1.80469 -1.9142,0.15791 -3.44336,1.73776 -3.44336,3.6875 0,2.04558 1.67811,3.73437 3.73438,3.73437 2.05626,0 3.73437,-1.68879 3.73437,-3.73437 0,-1.672 -1.13368,-3.05147 -2.6582,-3.52539 0.1776,-0.02077 0.34988,0.02464 0.52734,-0.03125 l -0.01172,0.0039 c 3.08994,-0.92501 5.29999,-1.30273 9.85938,-1.30273 4.55432,0 6.76379,0.3782 9.83789,1.30078 6.5e-4,2e-4 0.0013,-2e-4 0.002,0 0.1748,0.05449 0.34455,0.0087 0.51953,0.0293 -1.52266,0.47507 -2.65625,1.85472 -2.65625,3.52539 0,2.04558 1.68006,3.73437 3.73633,3.73437 2.05627,0 3.73438,-1.68879 3.73438,-3.73437 0,-1.94894 -1.52832,-3.5265 -3.44141,-3.68555 0.82984,-0.3154 1.47569,-0.9489 1.77734,-1.80078 0.06087,0.68415 0.25118,1.31131 0.59375,1.69336 0.39199,0.43715 0.78947,0.65633 1.06836,0.88672 l 0.0039,0.002 0.002,0.0039 c 0.57655,0.46747 1.11719,1.25635 1.11719,2.17968 l 0,6.9961 -32.5918,0 0,-6.9961 c 0,-0.92333 0.54147,-1.71521 1.11133,-2.18359 0.28685,-0.23317 0.68344,-0.45281 1.07422,-0.89063 0.34329,-0.38461 0.53293,-1.01178 0.5918,-1.69726 z m 2.06836,3.49609 c 1.10373,0 1.98437,0.88867 1.98437,1.9961 0,1.09441 -0.88064,1.98437 -1.98437,1.98437 -1.10374,0 -1.98438,-0.88996 -1.98438,-1.98437 0,-1.10743 0.88064,-1.9961 1.98438,-1.9961 z m 22.89062,0 c 1.10373,0 1.98438,0.88867 1.98438,1.9961 0,1.09441 -0.88065,1.98437 -1.98438,1.98437 -1.10373,0 -1.98633,-0.88996 -1.98633,-1.98437 0,-1.10743 0.8826,-1.9961 1.98633,-1.9961 z M 4.28906,51.1 l 0,0.875 0,2.30469 5.33008,0 0,-3.17969 -5.33008,0 z m 30.76172,0 0,0.875 0,2.30469 5.33008,0 0,-3.17969 -5.33008,0 z"
     id="SvgjsPath1008"
     inkscape:connector-curvature="0" />
</svg>
