<?xml version="1.0" encoding="UTF-8" standalone="no"?>
<svg
   xmlns:dc="http://purl.org/dc/elements/1.1/"
   xmlns:cc="http://creativecommons.org/ns#"
   xmlns:rdf="http://www.w3.org/1999/02/22-rdf-syntax-ns#"
   xmlns:svg="http://www.w3.org/2000/svg"
   xmlns="http://www.w3.org/2000/svg"
   xmlns:sodipodi="http://sodipodi.sourceforge.net/DTD/sodipodi-0.dtd"
   xmlns:inkscape="http://www.inkscape.org/namespaces/inkscape"
   id="SvgjsSvg1009"
   version="1.1"
   width="53.481621"
   height="69.165413"
   viewBox="0 0 53.481621 69.165413"
   inkscape:version="0.91 r13725"
   sodipodi:docname="cono.svg">
  <metadata
     id="metadata4979">
    <rdf:RDF>
      <cc:Work
         rdf:about="">
        <dc:format>image/svg+xml</dc:format>
        <dc:type
           rdf:resource="http://purl.org/dc/dcmitype/StillImage" />
        <dc:title>Page 1</dc:title>
      </cc:Work>
    </rdf:RDF>
  </metadata>
  <sodipodi:namedview
     pagecolor="#ffffff"
     bordercolor="#666666"
     borderopacity="1"
     objecttolerance="10"
     gridtolerance="10"
     guidetolerance="10"
     inkscape:pageopacity="0"
     inkscape:pageshadow="2"
     inkscape:window-width="1855"
     inkscape:window-height="1056"
     id="namedview4977"
     showgrid="false"
     fit-margin-top="0"
     fit-margin-left="0"
     fit-margin-right="0"
     fit-margin-bottom="0"
     inkscape:zoom="11.526938"
     inkscape:cx="22.988652"
     inkscape:cy="36.693766"
     inkscape:window-x="65"
     inkscape:window-y="24"
     inkscape:window-maximized="1"
     inkscape:current-layer="SvgjsSvg1009" />
  <title
     id="title4970">Page 1</title>
  <desc
     id="desc4972">Created with Avocode.</desc>
  <defs
     id="SvgjsDefs1010" />
  <path
     id="SvgjsPath1011"
     d="M 45.310122,59.750167 32.449666,5.0372347 C 31.79048,2.201459 29.103955,0 26.355243,0 23.581658,0 20.92002,2.2263293 20.29814,5.0621049 L 8.159048,59.750167 l -3.4452068,0 C 2.1143962,59.750167 0,61.864548 0,64.451572 c 0,2.599447 2.1143962,4.713841 4.7138412,4.713841 l 44.0539188,0 c 2.599463,0 4.713859,-2.114394 4.713859,-4.713841 0,-2.587024 -2.114396,-4.701405 -4.701407,-4.701405 z m -12.412713,-39.091332 2.213894,9.427686 -17.151424,0 2.08951,-9.427686 z m 2.773585,11.778396 1.281102,5.497412 -20.73345,0 1.218926,-5.497412 z m -3.320841,-14.129106 -11.778394,0 1.218926,-5.484978 9.266011,0 z m -2.960142,-12.5619478 1.119317,4.7138408 -8.196369,0 1.044771,-4.7138408 c 0.298505,-1.3930794 1.70396,-2.6118957 2.997462,-2.6118957 1.293474,0 2.711396,1.2189251 3.034771,2.6118957 z M 4.7138412,66.018698 c -0.870616,0 -1.5796075,-0.696461 -1.5796075,-1.567078 0,-0.858244 0.7089915,-1.567078 1.5796075,-1.567078 l 5.9576058,0 5.012347,-22.599095 21.82796,0 4.589474,19.564327 -21.504583,1.069671 0,0.78354 22.213527,1.11932 0.01232,0.06188 5.957606,0 c 0.858245,0 1.567078,0.708989 1.567078,1.567073 0,0.870619 -0.708991,1.567078 -1.567078,1.567078 z"
     inkscape:connector-curvature="0"
     style="fill:#d40072;fill-opacity:1" />
</svg>
