<?xml version="1.0" encoding="UTF-8" standalone="no"?>
<svg
   xmlns:dc="http://purl.org/dc/elements/1.1/"
   xmlns:cc="http://creativecommons.org/ns#"
   xmlns:rdf="http://www.w3.org/1999/02/22-rdf-syntax-ns#"
   xmlns:svg="http://www.w3.org/2000/svg"
   xmlns="http://www.w3.org/2000/svg"
   xmlns:sodipodi="http://sodipodi.sourceforge.net/DTD/sodipodi-0.dtd"
   xmlns:inkscape="http://www.inkscape.org/namespaces/inkscape"
   id="SvgjsSvg1000"
   version="1.1"
   width="19"
   height="14"
   viewBox="0 0 19 14"
   inkscape:version="0.91 r13725"
   sodipodi:docname="left.svg">
  <metadata
     id="metadata4202">
    <rdf:RDF>
      <cc:Work
         rdf:about="">
        <dc:format>image/svg+xml</dc:format>
        <dc:type
           rdf:resource="http://purl.org/dc/dcmitype/StillImage" />
        <dc:title>Page 1 Copy 3</dc:title>
      </cc:Work>
    </rdf:RDF>
  </metadata>
  <sodipodi:namedview
     pagecolor="#ffffff"
     bordercolor="#666666"
     borderopacity="1"
     objecttolerance="10"
     gridtolerance="10"
     guidetolerance="10"
     inkscape:pageopacity="0"
     inkscape:pageshadow="2"
     inkscape:window-width="1855"
     inkscape:window-height="1056"
     id="namedview4200"
     showgrid="false"
     inkscape:zoom="65.642857"
     inkscape:cx="9.5"
     inkscape:cy="7"
     inkscape:window-x="65"
     inkscape:window-y="24"
     inkscape:window-maximized="1"
     inkscape:current-layer="SvgjsSvg1000" />
  <title
     id="title4194">Page 1 Copy 3</title>
  <desc
     id="desc4196">Created with Avocode.</desc>
  <defs
     id="SvgjsDefs1001" />
  <path
     id="SvgjsPath1007"
     d="M 0,6.93 C 0,6.76 0.1,6.53 0.21,6.43 L 6.04,0.23 C 6.31,-0.05 6.75,-0.09 7.07,0.2 7.35,0.46 7.36,0.95 7.1,1.23 l -4.68,4.97 15.81,0 c 0.4,0 0.73,0.32 0.73,0.73 0,0.4 -0.33,0.73 -0.73,0.73 l -15.81,0 4.68,4.96 C 7.36,12.9 7.34,13.39 7.07,13.66 6.78,13.94 6.31,13.91 6.04,13.63 L 0.21,7.43 C 0.03,7.26 0,7.1 0,6.93 Z"
     inkscape:connector-curvature="0"
     style="fill:#d40072;fill-opacity:1" />
</svg>
