<?xml version="1.0" encoding="UTF-8" standalone="no"?>
<!-- Created with Inkscape (http://www.inkscape.org/) -->

<svg
   xmlns:dc="http://purl.org/dc/elements/1.1/"
   xmlns:cc="http://creativecommons.org/ns#"
   xmlns:rdf="http://www.w3.org/1999/02/22-rdf-syntax-ns#"
   xmlns:svg="http://www.w3.org/2000/svg"
   xmlns="http://www.w3.org/2000/svg"
   xmlns:sodipodi="http://sodipodi.sourceforge.net/DTD/sodipodi-0.dtd"
   xmlns:inkscape="http://www.inkscape.org/namespaces/inkscape"
   width="25.373869mm"
   height="18.589911mm"
   viewBox="0 0 89.90741 65.869761"
   id="svg2"
   version="1.1"
   inkscape:version="0.91 r13725"
   sodipodi:docname="sim.svg">
  <defs
     id="defs4" />
  <sodipodi:namedview
     id="base"
     pagecolor="#ffffff"
     bordercolor="#666666"
     borderopacity="1.0"
     inkscape:pageopacity="0.0"
     inkscape:pageshadow="2"
     inkscape:zoom="7.9195959"
     inkscape:cx="53.306929"
     inkscape:cy="27.906086"
     inkscape:document-units="px"
     inkscape:current-layer="layer1"
     showgrid="false"
     inkscape:window-width="1855"
     inkscape:window-height="1056"
     inkscape:window-x="65"
     inkscape:window-y="24"
     inkscape:window-maximized="1"
     fit-margin-top="0"
     fit-margin-left="0"
     fit-margin-right="0"
     fit-margin-bottom="0" />
  <metadata
     id="metadata7">
    <rdf:RDF>
      <cc:Work
         rdf:about="">
        <dc:format>image/svg+xml</dc:format>
        <dc:type
           rdf:resource="http://purl.org/dc/dcmitype/StillImage" />
        <dc:title></dc:title>
      </cc:Work>
    </rdf:RDF>
  </metadata>
  <g
     inkscape:label="Layer 1"
     inkscape:groupmode="layer"
     id="layer1"
     transform="translate(-221.87142,-460.24515)">
    <path
       style="fill:#000000"
       d="m 244.55562,524.33812 c -1.61334,-1.70109 -1.77679,-3.55654 -1.77679,-10.0158 l 0,-7.7926 -4.48987,-1.20086 c -5.48,-1.46567 -12.16474,-7.26919 -14.64447,-12.71395 -2.36409,-5.19085 -2.36409,-13.80915 0,-19 2.26878,-4.98157 8.67777,-10.86418 13.6096,-12.49184 2.05518,-0.67826 6.39133,-1.04119 9.63589,-0.8065 7.25836,0.52502 12.99894,4.1745 17.38885,11.05469 l 3,4.70181 14,-0.17766 c 15.59314,-0.19788 14.12168,-0.52834 16,0.92358 1.05634,0.81654 4.8125,4.03109 8.25,7.61203 l 6.25,6.51078 0.17857,19.15799 c 0.15697,16.84079 0.29205,15.97048 -9.67857,16.01512 -4.83328,0.0216 -5.36607,0.11472 -5.45536,-0.79464 -0.12625,-1.28587 0.53869,-3.16072 -1.92801,-3.20536 -2.91688,-0.0528 -2.33498,0.30803 -2.40638,2.66964 -0.0482,1.59559 0.7788,1.68976 -23.11663,1.33036 -22.90953,-0.34457 -22.35451,0.81947 -24.81683,-1.77679 z m 43.99114,-4.22321 c -0.0228,-1.85565 2.33202,-2 6.33416,-2 4.2884,0 5.5078,0.26718 5.62218,2.05361 0.10889,1.70068 1.37039,1.79393 3.65638,1.75 l 3.11935,-0.30361 0.27863,-14.44207 0.27863,-14.44208 -5.74733,-5.80792 -7.04158,-6.0289 -12.98705,0.22097 c -13.58732,0.23118 -14.33087,-0.0301 -14.2813,1 0.0522,1.08585 0.3244,1 5,1 l 5,0 0,18.52746 0,18.52745 -14.25,-0.27745 -14.25,-0.27746 -0.29569,-6.75 c -0.16263,-3.7125 -0.72513,-6.75 -1.25,-6.75 -1.06658,0 -1.33459,14.28639 -0.28764,15.33333 0.36666,0.36667 9.48364,0.59841 20.25945,0.66667 21.14371,0.13393 20.86719,0.068 20.84181,-2 z m 10.23207,-8 c 0,-1.66667 0.66667,-2 4,-2 3.33333,0 4,0.33333 4,2 0,1.66667 -0.66667,2 -4,2 -3.33333,0 -4,-0.33333 -4,-2 z m 0,-5 c 0,-1.66667 0.66667,-2 4,-2 3.33333,0 4,0.33333 4,2 0,1.66667 -0.66667,2 -4,2 -3.33333,0 -4,-0.33333 -4,-2 z m 0,-5 c 0,-1.66667 0.66667,-2 4,-2 3.33333,0 4,0.33333 4,2 0,1.66667 -0.66667,2 -4,2 -3.33333,0 -4,-0.33333 -4,-2 z m 0,-6 c 0,-1.66667 0.66667,-2 4,-2 3.33333,0 4,0.33333 4,2 0,1.66667 -0.66667,2 -4,2 -3.33333,0 -4,-0.33333 -4,-2 z m -25,5 0,-14 -2.90218,0 c -3.98916,0 -5.16095,2.42126 -5.09782,16.64922 0.0508,11.45176 0.1553,10.35078 -2,10.35078 -1.81176,0 -1.96843,0.59602 -2,-7.08333 -0.0215,-5.22025 0.0816,-8.58463 -1.09216,-7.01755 -1.83313,0.60875 -1.52459,0.20441 -1.54569,7.08334 -0.0218,7.11138 0.11492,7.01754 -2.35558,7.01754 -1.58123,0 -1.49281,0.48787 -1.48015,-5.31313 l 0.0115,-5.28157 -1.70021,0.95177 0.16226,10.64293 10,0 10,0 z m -5.77988,0.25 c 0.29012,-13.21711 -0.38878,-12.66043 2.27988,-12.75 2.54357,-0.0854 1.98009,-0.90745 2.27988,12.75 l 0.27987,12.75 -2.55975,0 -2.55975,0 z m -15.938,-0.59713 c 1.76983,-0.74092 4.87255,-3.18088 6.89493,-5.42213 13.19876,-14.62722 -3.78931,-37.61663 -21.67705,-29.33488 -12.59033,5.82913 -15.49912,20.88812 -5.89,30.49281 5.43055,5.42804 13.77866,7.15007 20.67212,4.2642 z m -7.28212,-12.15287 c 0,-3.33333 -0.16667,-3.5 -3.5,-3.5 -2.44444,0 -3.5,-0.45238 -3.5,-1.5 0,-1.04762 1.05556,-1.5 3.5,-1.5 3.33333,0 3.5,-0.16667 3.5,-3.5 0,-2.44444 0.45238,-3.5 1.5,-3.5 1.04762,0 1.5,1.05556 1.5,3.5 0,3.33333 0.16667,3.5 3.5,3.5 2.44444,0 3.5,0.45238 3.5,1.5 0,1.04762 -1.05556,1.5 -3.5,1.5 -3.33333,0 -3.5,0.16667 -3.5,3.5 0,2.44444 -0.45238,3.5 -1.5,3.5 -1.04762,0 -1.5,-1.05556 -1.5,-3.5 z"
       id="path4227"
       inkscape:connector-curvature="0"
       sodipodi:nodetypes="sscsssssscssscssssssssssccccccssscccccsscssssssssssssssssssssssccsssscsssccccccssscccsssssssssssssssssss" />
  </g>
</svg>
