<svg id="SvgjsSvg1016" xmlns="http://www.w3.org/2000/svg" version="1.1" xmlns:xlink="http://www.w3.org/1999/xlink" xmlns:svgjs="http://svgjs.com/svgjs" width="23" height="23" viewBox="0 0 23 23"><title>icon_gb</title><desc>Created with Avocode.</desc><defs id="SvgjsDefs1017"></defs><path id="SvgjsPath1018" d="M306.68 797.97C305.92 796.15 304.79 794.53 303.37 793.27C305.9 793.73 308.11 795.12 309.64 797.06C308.66999999999996 797.43 307.68 797.7399999999999 306.68 797.9699999999999ZM303.38 813.7C304.8 812.44 305.93 810.82 306.68 809C307.68 809.23 308.67 809.53 309.63 809.9C309.38 810.22 309.11 810.53 308.82 810.8199999999999C307.31 812.3299999999999 305.42 813.3199999999999 303.38 813.6999999999999ZM293.52 810.13C294.43 809.75 295.34999999999997 809.43 296.29999999999995 809.18C297.05999999999995 810.92 298.15999999999997 812.4699999999999 299.53 813.68C297.51 813.3 295.65 812.31 294.15 810.8199999999999C293.92999999999995 810.5999999999999 293.71999999999997 810.3699999999999 293.52 810.1299999999999ZM296.27 797.78C295.33 797.53 294.40999999999997 797.2099999999999 293.51 796.8399999999999C295 795.05 297.08 793.7699999999999 299.45 793.3C298.09999999999997 794.51 297.02 796.05 296.27 797.78ZM291.11 804.03L295.13 804.03C295.19 805.4599999999999 295.45 806.85 295.9 808.15C294.85999999999996 808.43 293.84 808.79 292.84 809.23C291.81 807.69 291.21 805.9 291.10999999999996 804.03ZM295.88 798.81C295.44 800.1099999999999 295.18 801.5 295.13 802.93L291.11 802.93C291.21000000000004 801.02 291.83000000000004 799.2399999999999 292.84000000000003 797.7399999999999C293.83000000000004 798.1699999999998 294.84000000000003 798.5299999999999 295.88000000000005 798.81ZM307.76 802.93C307.71 801.5699999999999 307.46999999999997 800.25 307.06 799C308.15 798.74 309.23 798.4 310.29 797.98C311.20000000000005 799.4300000000001 311.76000000000005 801.12 311.86 802.9300000000001ZM307.07 807.95C307.46999999999997 806.71 307.71 805.3900000000001 307.76 804.0300000000001L311.86 804.0300000000001C311.76 805.8100000000001 311.22 807.5000000000001 310.29 808.9800000000001C309.24 808.5600000000002 308.17 808.2100000000002 307.07 807.9500000000002ZM300.94 807.37C299.6 807.43 298.29 807.6 296.99 807.88C296.57 806.67 296.32 805.37 296.26 804.03L300.94 804.03ZM300.94 802.93L296.26 802.93C296.31 801.5899999999999 296.55 800.3 296.96999999999997 799.0899999999999C298.26 799.3699999999999 299.59 799.54 300.94 799.5899999999999ZM300.94 798.49C299.73 798.44 298.55 798.29 297.38 798.05C298.19 796.2299999999999 299.40999999999997 794.66 300.94 793.52ZM300.94 813.39C299.42 812.25 298.21999999999997 810.6999999999999 297.41 808.91C298.56 808.67 299.74 808.52 300.94 808.4699999999999ZM302.03 808.46C303.21999999999997 808.46 304.4 808.57 305.55999999999995 808.77C304.75999999999993 810.61 303.55999999999995 812.1999999999999 302.03 813.36ZM302.03 793.6C303.55999999999995 794.78 304.76 796.37 305.54999999999995 798.19C304.4 798.4000000000001 303.21999999999997 798.5 302.03 798.5100000000001ZM302.03 799.61C303.34999999999997 799.6 304.65999999999997 799.47 305.95 799.23C306.34999999999997 800.4 306.58 801.65 306.63 802.9300000000001L302.03 802.9300000000001ZM302.03 804.03L306.63 804.03C306.58 805.31 306.35 806.56 305.96 807.72C304.68 807.49 303.37 807.37 302.03 807.36ZM311.02 797.08C310.99 797 310.94 796.9300000000001 310.88 796.88C308.82 793.97 305.45 792.05 301.63 792L301.19 792C297.52 792.1 294.27 793.92 292.23 796.69C292.21000000000004 796.71 292.19 796.74 292.17 796.7700000000001C290.81 798.6600000000001 290 800.9800000000001 290 803.4800000000001C290 805.9900000000001 290.81 808.3200000000002 292.18 810.2100000000002C292.19 810.2300000000001 292.2 810.2400000000001 292.21 810.2500000000001C294.28999999999996 813.0900000000001 297.63 814.9400000000002 301.4 814.9700000000001L301.54999999999995 814.9700000000001C304.60999999999996 814.9500000000002 307.47999999999996 813.7500000000001 309.63999999999993 811.5800000000002C311.75999999999993 809.4500000000002 312.93999999999994 806.6400000000001 312.9699999999999 803.6600000000002C312.9899999999999 803.6000000000003 312.9999999999999 803.5400000000002 312.9999999999999 803.4800000000002C312.9999999999999 803.4200000000003 312.9899999999999 803.3500000000003 312.9699999999999 803.3000000000003C312.9299999999999 801.0100000000003 312.2199999999999 798.8800000000003 311.0199999999999 797.1000000000003C311.0199999999999 797.0900000000003 311.0199999999999 797.0900000000003 311.0199999999999 797.0800000000003Z " fill="#e5147a" fill-opacity="1" transform="matrix(1,0,0,1,-290,-792)"></path></svg>