<?xml version="1.0" encoding="UTF-8" standalone="no"?>
<svg
   xmlns:dc="http://purl.org/dc/elements/1.1/"
   xmlns:cc="http://creativecommons.org/ns#"
   xmlns:rdf="http://www.w3.org/1999/02/22-rdf-syntax-ns#"
   xmlns:svg="http://www.w3.org/2000/svg"
   xmlns="http://www.w3.org/2000/svg"
   xmlns:sodipodi="http://sodipodi.sourceforge.net/DTD/sodipodi-0.dtd"
   xmlns:inkscape="http://www.inkscape.org/namespaces/inkscape"
   id="SvgjsSvg1000"
   version="1.1"
   width="24.5"
   height="36.5"
   viewBox="0 0 24.5 36.5"
   inkscape:version="0.91 r13725"
   sodipodi:docname="addresses.svg">
  <metadata
     id="metadata4799">
    <rdf:RDF>
      <cc:Work
         rdf:about="">
        <dc:format>image/svg+xml</dc:format>
        <dc:type
           rdf:resource="http://purl.org/dc/dcmitype/StillImage" />
      </cc:Work>
    </rdf:RDF>
  </metadata>
  <sodipodi:namedview
     pagecolor="#ffffff"
     bordercolor="#666666"
     borderopacity="1"
     objecttolerance="10"
     gridtolerance="10"
     guidetolerance="10"
     inkscape:pageopacity="0"
     inkscape:pageshadow="2"
     inkscape:window-width="1855"
     inkscape:window-height="1056"
     id="namedview4797"
     showgrid="false"
     inkscape:zoom="25.178082"
     inkscape:cx="12.25"
     inkscape:cy="18.25"
     inkscape:window-x="65"
     inkscape:window-y="24"
     inkscape:window-maximized="1"
     inkscape:current-layer="SvgjsSvg1000" />
  <title
     id="title4790">Page 1</title>
  <desc
     id="desc4792">Created with Avocode.</desc>
  <defs
     id="SvgjsDefs1001" />
  <path
     id="SvgjsPath1007"
     d="m 12.417737,0.1705658 c -6.5300002,0 -11.85000022,5.32 -11.85000022,11.8499992 0,2.36 0.69000002,4.56 1.88000002,6.4 l 5.99,9.34 c -0.47,0.15 -0.92,0.33 -1.32,0.55 -1.41,0.74 -2.46,1.9 -2.46,3.33 0,1.43 1.05,2.58 2.46,3.32 1.41,0.75 3.2700002,1.18 5.3000002,1.18 2.04,0 3.89,-0.43 5.3,-1.18 1.41,-0.74 2.47,-1.89 2.47,-3.32 0,-1.43 -1.06,-2.59 -2.47,-3.33 -0.4,-0.22 -0.84,-0.4 -1.31,-0.55 l 5.99,-9.34 c 1.18,-1.84 1.87,-4.04 1.87,-6.4 0,-6.5299992 -5.31,-11.8499992 -11.85,-11.8499992 z m 0,1.63 c 5.66,0 10.22,4.57 10.22,10.2199992 0,2.04 -0.6,3.93 -1.62,5.52 l -8.6,13.4 -8.5900002,-13.4 c -1.02,-1.59 -1.63,-3.48 -1.63,-5.52 0,-5.6499992 4.57,-10.2199992 10.2200002,-10.2199992 z m 0,4.5 c -3.1500002,0 -5.7200002,2.5699992 -5.7200002,5.7199992 0,3.15 2.57,5.72 5.7200002,5.72 3.15,0 5.72,-2.57 5.72,-5.72 0,-3.15 -2.57,-5.7199992 -5.72,-5.7199992 z m 0,1.6399996 c 2.27,0 4.09,1.8199996 4.09,4.0799996 0,2.27 -1.82,4.09 -4.09,4.09 -2.26,0 -4.0800002,-1.82 -4.0800002,-4.09 0,-2.26 1.8200002,-4.0799996 4.0800002,-4.0799996 z m -3.0600002,21.2499996 2.3700002,3.7 c 0.32,0.51 1.06,0.51 1.38,0 l 2.38,-3.7 c 0.55,0.16 1.05,0.35 1.47,0.57 1.1,0.59 1.59,1.28 1.59,1.88 0,0.6 -0.49,1.29 -1.59,1.88 -1.11,0.58 -2.74,0.98 -4.54,0.98 -1.8,0 -3.4300002,-0.4 -4.5300002,-0.98 -1.11,-0.59 -1.6,-1.28 -1.6,-1.88 0,-0.6 0.49,-1.29 1.6,-1.88 0.42,-0.22 0.92,-0.41 1.47,-0.57 z"
     inkscape:connector-curvature="0"
     style="fill:#d40072;fill-opacity:1" />
</svg>
