<!-- Generated by IcoMoon.io -->
<svg version="1.1" xmlns="http://www.w3.org/2000/svg" width="1024" height="1024" viewBox="0 0 1024 1024">
<title></title>
<g id="icomoon-ignore">
</g>
<path d="M785.554 592.457c-19.017-20.48-39.497-30.72-61.44-30.72s-42.423 10.24-61.44 30.72c-17.554 19.017-42.423 46.811-45.349 48.274v0c-4.389 4.389-7.314 7.314-11.703 7.314-1.463 0-4.389 0-5.851-1.463l-215.040-236.983c-4.389-5.851-1.463-10.24 2.926-17.554 1.463-1.463 29.257-32.183 46.811-51.2 11.703-13.166 29.257-35.109 29.257-65.829 0-23.406-8.777-45.349-29.257-65.829l-117.029-136.046c-19.017-20.48-38.034-39.497-59.977-39.497 0 0-1.463 0-1.463 0-23.406 0-45.349 19.017-61.44 39.497l-74.606 96.549c-19.017 23.406-27.794 58.514-27.794 102.4 0 127.269 86.309 304.274 220.891 450.56 133.12 147.749 295.497 242.834 412.526 242.834 40.96 0 70.217-10.24 90.697-30.72l84.846-81.92c19.017-19.017 29.257-40.96 30.72-67.291 0-23.406-8.777-45.349-29.257-67.291l-117.029-125.806zM870.4 808.96l-87.771 84.846c-10.24 10.24-32.183 16.091-57.051 16.091-111.177 0-273.554-112.64-375.954-225.28-140.434-153.6-204.8-320.366-204.8-411.063 0-27.794 5.851-51.2 14.629-62.903l74.606-92.16c7.314-8.777 14.629-13.166 23.406-13.166 7.314 0 14.629 4.389 24.869 14.629l117.029 128.731c11.703 13.166 13.166 16.091 13.166 27.794 0 10.24-2.926 16.091-13.166 26.331-19.017 17.554-48.274 49.737-48.274 51.2-10.24 13.166-16.091 24.869-19.017 39.497-2.926 23.406 1.463 40.96 13.166 52.663l223.817 244.297c8.777 8.777 23.406 14.629 39.497 14.629 2.926 0 5.851 0 8.777-1.463 11.703-2.926 23.406-8.777 35.109-20.48 1.463-1.463 40.96-43.886 48.274-52.663 10.24-11.703 14.629-14.629 24.869-14.629s11.703 1.463 24.869 14.629l117.029 128.731c10.24 11.703 14.629 20.48 13.166 26.331-1.463 16.091-1.463 16.091-10.24 23.406z"></path>
</svg>
