<?xml version="1.0" encoding="UTF-8" standalone="no"?>
<svg
   xmlns:dc="http://purl.org/dc/elements/1.1/"
   xmlns:cc="http://creativecommons.org/ns#"
   xmlns:rdf="http://www.w3.org/1999/02/22-rdf-syntax-ns#"
   xmlns:svg="http://www.w3.org/2000/svg"
   xmlns="http://www.w3.org/2000/svg"
   xmlns:sodipodi="http://sodipodi.sourceforge.net/DTD/sodipodi-0.dtd"
   xmlns:inkscape="http://www.inkscape.org/namespaces/inkscape"
   id="SvgjsSvg1000"
   version="1.1"
   width="57.403271"
   height="56.259998"
   viewBox="0 0 57.403271 56.259998"
   inkscape:version="0.91 r13725"
   sodipodi:docname="call-money.svg">
  <metadata
     id="metadata4299">
    <rdf:RDF>
      <cc:Work
         rdf:about="">
        <dc:format>image/svg+xml</dc:format>
        <dc:type
           rdf:resource="http://purl.org/dc/dcmitype/StillImage" />
        <dc:title>Fill 42</dc:title>
      </cc:Work>
    </rdf:RDF>
  </metadata>
  <sodipodi:namedview
     pagecolor="#ffffff"
     bordercolor="#666666"
     borderopacity="1"
     objecttolerance="10"
     gridtolerance="10"
     guidetolerance="10"
     inkscape:pageopacity="0"
     inkscape:pageshadow="2"
     inkscape:window-width="1855"
     inkscape:window-height="1056"
     id="namedview4297"
     showgrid="false"
     inkscape:zoom="15.380753"
     inkscape:cx="28.890377"
     inkscape:cy="27.799853"
     inkscape:window-x="65"
     inkscape:window-y="24"
     inkscape:window-maximized="1"
     inkscape:current-layer="SvgjsSvg1000"
     fit-margin-top="0"
     fit-margin-left="0"
     fit-margin-right="0"
     fit-margin-bottom="0" />
  <title
     id="title4289">Fill 42</title>
  <desc
     id="desc4291">Created with Avocode.</desc>
  <defs
     id="SvgjsDefs1001" />
  <path
     id="SvgjsPath1007"
     d="m 17.410279,39.04 0.22,0.24 c 7.83,7.66 17.89,12.11 27.55,12.14 0.57,-0.46 1.14,-0.97 1.64,-1.46 2.49,-2.44 4.42,-5.35 5.7,-8.57 -0.02,-0.03 -0.12,-0.32 -0.24,-0.56 -3.81,-1.67 -6.95,-2.64 -12.14,-3.78 l -0.57,0.13 -2.47,3.85 c -1.55,2.44 -5.66,2.83 -8.6,0.72 -2.49,-1.77 -4.96,-3.85 -7.36,-6.15 -2.37,-2.37 -4.5,-4.82 -6.33,-7.26 -1.21,-1.63 -1.7,-3.56 -1.36,-5.31 0.28,-1.33 1.04,-2.44 2.13,-3.12 l 3.9,-2.42 c 0.08,-0.25 0.13,-0.54 0.1,-0.68 -1.08,-3.97 -2.62,-8.3599998 -3.88,-11.82 l -0.66,-0.15 c -3.14,1.21 -6.1099997,3.1000002 -8.6,5.55 -0.5,0.48 -0.99,1.02 -1.49,1.6 0.03,9.35 4.6500003,19.42 12.46,27.05 z m -3.34,3.61 -0.17,-0.2 C 4.800279,33.57 -0.25972097,22.11 0.01027903,11.07 l 0.03,-0.8 0.51,-0.6600001 C 1.340279,8.6499999 2.110279,7.7700002 2.930279,6.97 c 3.01,-2.95 6.5200003,-5.18 10.47,-6.68 0.5,-0.19 1.04,-0.29 1.64,-0.29 1.33,0 4.32,0.68 5.09,2.74 1.33,3.65 3.04,8.42 4.27,13.03 0.37,1.33 -0.05,4.43 -1.83,5.52 l -4.35,2.71 c 0.03,0.05 0.03,0.7 0.6,1.48 1.68,2.27 3.63,4.53 5.8,6.71 2.2,2.1 4.5,4.02 6.8,5.64 0.44,0.34 0.96,0.51 1.36,0.51 l 0.25,-0.03 2.66,-4.19 c 1.22,-1.84 4.23,-1.89 4.58,-1.89 0.37,0 0.66,0.03 0.96,0.1 5.76,1.26 9.19,2.35 13.59,4.29 1.93,0.87 3.17,4.33 2.3,6.51 -1.53,3.88 -3.81,7.32 -6.8,10.25 -0.84,0.82 -1.75,1.62 -2.74,2.37 l -0.64,0.49 -1.66,0.02 c -10.99,0 -22.36,-4.97 -31.21,-13.61 z"
     inkscape:connector-curvature="0"
     style="fill:#d40072;fill-opacity:1" />
  <path
     id="SvgjsPath1009"
     d="m 54.495197,21.72049 c -0.25,-0.65 -0.54,-1.26 -0.83,-1.91 -0.25,-0.58 -0.57,-0.72 -1.19,-0.58 -0.79,0.18 -1.55,0.4 -2.3,0.58 -1.52,0.32 -3,0.32 -4.51,-0.15 -1.87,-0.57 -2.85,-1.94 -3.46,-3.67 l 5.05,0 c 0.39,0 0.72,-0.33 0.72,-0.72 l 0,-1.59 c 0,-0.39 -0.33,-0.72 -0.72,-0.72 l -5.52,0 0,-1.29 5.52,0 c 0.39,0 0.72,-0.33 0.72,-0.72 l 0,-1.5900001 c 0,-0.4 -0.33,-0.72 -0.72,-0.72 l -4.83,0 0,-0.04 c 0.57,-1.3300003 1.44,-2.3700003 2.81,-2.9100003 1.62,-0.65 3.28,-0.62 4.94,-0.29 0.79,0.14 1.55,0.39 2.34,0.57 0.58,0.15 0.9,-0.03 1.15,-0.57 0.29,-0.62 0.54,-1.26 0.79,-1.88 0.26,-0.61 0.11,-1.01 -0.46,-1.33 -0.15,-0.07 -0.29,-0.14 -0.44,-0.22 -2.34,-0.9 -4.72,-1.26 -7.2,-0.86 -1.73,0.29 -3.39,0.86 -4.8,1.98 -1.76,1.37 -2.92,3.17 -3.6,5.3000003 l -0.07,0.25 -2.49,0 c -0.4,0 -0.72,0.32 -0.72,0.72 l 0,1.5900001 c 0,0.39 0.32,0.72 0.72,0.72 l 1.95,0 0,1.29 -1.95,0 c -0.4,0 -0.72,0.33 -0.72,0.72 l 0,1.59 c 0,0.39 0.32,0.72 0.72,0.72 l 2.34,0 c 0.18,0.58 0.33,1.15 0.54,1.73 1.19,2.88 3.21,4.93 6.2,5.91 2.49,0.79 5.01,0.79 7.5,0.11 0.65,-0.18 1.3,-0.4 1.91,-0.69 0.68,-0.29 0.83,-0.76 0.61,-1.33"
     inkscape:connector-curvature="0"
     style="fill:#d40072;fill-opacity:1" />
</svg>
