<svg id="SvgjsSvg1008" xmlns="http://www.w3.org/2000/svg" version="1.1" xmlns:xlink="http://www.w3.org/1999/xlink" xmlns:svgjs="http://svgjs.com/svgjs" width="13" height="16" viewBox="0 0 13 16"><title>Rectangle 5 Copy</title><desc>Created with Avocode.</desc><defs id="SvgjsDefs1009"></defs><path id="SvgjsPath1010" d="M1020 1393.5C1020 1392.67157 1020.67157 1392 1021.5 1392V1392C1022.32843 1392 1023 1392.67157 1023 1393.5V1403.5C1023 1404.32843 1022.32843 1405 1021.5 1405V1405C1020.67157 1405 1020 1404.32843 1020 1403.5Z " fill="#d40072" fill-opacity="1" transform="matrix(1,0,0,1,-1010,-1389)"></path><path id="SvgjsPath1011" d="M1015 1393.5C1015 1392.67157 1015.67157 1392 1016.5 1392V1392C1017.32843 1392 1018 1392.67157 1018 1393.5V1403.5C1018 1404.32843 1017.32843 1405 1016.5 1405V1405C1015.67157 1405 1015 1404.32843 1015 1403.5Z " fill="#d40072" fill-opacity="1" transform="matrix(1,0,0,1,-1010,-1389)"></path><path id="SvgjsPath1012" d="M1010 1390.5C1010 1389.67157 1010.67157 1389 1011.5 1389V1389C1012.32843 1389 1013 1389.67157 1013 1390.5V1403.5C1013 1404.32843 1012.32843 1405 1011.5 1405V1405C1010.67157 1405 1010 1404.32843 1010 1403.5Z " fill="#d40072" fill-opacity="1" transform="matrix(1,0,0,1,-1010,-1389)"></path></svg>