<svg id="SvgjsSvg1010" xmlns="http://www.w3.org/2000/svg" version="1.1" xmlns:xlink="http://www.w3.org/1999/xlink" xmlns:svgjs="http://svgjs.com/svgjs" width="18" height="18" viewBox="0 0 18 18"><title>Shape</title><desc>Created with Avocode.</desc><defs id="SvgjsDefs1011"></defs><path id="SvgjsPath1012" d="M645.99 788.99C645.33 788.33 644.54 788 643.61 788L632.37 788C631.44 788 630.65 788.33 629.99 788.99C629.33 789.65 629 790.44 629 791.37L629 802.61C629 803.54 629.33 804.33 629.99 804.99C630.65 805.65 631.44 805.98 632.37 805.98L643.61 805.98C644.54 805.98 645.33 805.65 645.99 804.99C646.65 804.33 646.98 803.54 646.98 802.61L646.98 791.37C646.98 790.44 646.65 789.65 645.99 788.99ZM634.48 803.05L631.77 803.05L631.77 794.93L634.48 794.93ZM634.23 793.43C633.95 793.6999999999999 633.58 793.8299999999999 633.12 793.8299999999999L633.11 793.8299999999999C632.66 793.8299999999999 632.3000000000001 793.6999999999999 632.03 793.43C631.75 793.16 631.61 792.8199999999999 631.61 792.43C631.61 792.02 631.75 791.68 632.04 791.42C632.3199999999999 791.15 632.6899999999999 791.02 633.14 791.02C633.6 791.02 633.96 791.15 634.23 791.42C634.51 791.68 634.65 792.02 634.65 792.43C634.65 792.8199999999999 634.51 793.16 634.23 793.43ZM641.5 803.05L641.5 798.7099999999999C641.5 797.4899999999999 641.05 796.8699999999999 640.14 796.8699999999999C639.8 796.8699999999999 639.51 796.9699999999999 639.28 797.1599999999999C639.04 797.3499999999999 638.87 797.5799999999998 638.75 797.8599999999999C638.7 797.9999999999999 638.67 798.2199999999999 638.67 798.5099999999999L638.67 803.0499999999998L635.9699999999999 803.0499999999998C635.9899999999999 798.1499999999999 635.9899999999999 795.4499999999998 635.9699999999999 794.9299999999998L638.67 794.9299999999998L638.67 796.0799999999998C639.24 795.1899999999998 640.05 794.7399999999998 641.0899999999999 794.7399999999998C642.03 794.7399999999998 642.78 795.0499999999997 643.3499999999999 795.6699999999997C643.92 796.2799999999997 644.2099999999999 797.1899999999997 644.2099999999999 798.3899999999998L644.2099999999999 803.0499999999997Z " fill="#58585a" fill-opacity="1" transform="matrix(1,0,0,1,-629,-788)"></path></svg>