<?xml version="1.0" encoding="UTF-8" standalone="no"?>
<!-- Created with Inkscape (http://www.inkscape.org/) -->

<svg
   xmlns:dc="http://purl.org/dc/elements/1.1/"
   xmlns:cc="http://creativecommons.org/ns#"
   xmlns:rdf="http://www.w3.org/1999/02/22-rdf-syntax-ns#"
   xmlns:svg="http://www.w3.org/2000/svg"
   xmlns="http://www.w3.org/2000/svg"
   xmlns:sodipodi="http://sodipodi.sourceforge.net/DTD/sodipodi-0.dtd"
   xmlns:inkscape="http://www.inkscape.org/namespaces/inkscape"
   width="90.773361mm"
   height="90.774391mm"
   viewBox="0 0 321.63789 321.64154"
   id="svg4355"
   version="1.1"
   inkscape:version="0.91 r13725"
   sodipodi:docname="table.svg">
  <defs
     id="defs4357" />
  <sodipodi:namedview
     id="base"
     pagecolor="#ffffff"
     bordercolor="#666666"
     borderopacity="1.0"
     inkscape:pageopacity="0.0"
     inkscape:pageshadow="2"
     inkscape:zoom="0.49497475"
     inkscape:cx="-126.51275"
     inkscape:cy="-30.299238"
     inkscape:document-units="px"
     inkscape:current-layer="layer1"
     showgrid="false"
     fit-margin-top="0"
     fit-margin-left="0"
     fit-margin-right="0"
     fit-margin-bottom="0"
     inkscape:window-width="1855"
     inkscape:window-height="1056"
     inkscape:window-x="65"
     inkscape:window-y="24"
     inkscape:window-maximized="1" />
  <metadata
     id="metadata4360">
    <rdf:RDF>
      <cc:Work
         rdf:about="">
        <dc:format>image/svg+xml</dc:format>
        <dc:type
           rdf:resource="http://purl.org/dc/dcmitype/StillImage" />
        <dc:title></dc:title>
      </cc:Work>
    </rdf:RDF>
  </metadata>
  <g
     inkscape:label="Layer 1"
     inkscape:groupmode="layer"
     id="layer1"
     transform="translate(34.855401,-131.74528)">
    <g
       id="g5055"
       transform="matrix(0.39582694,0,0,0.39582694,-18.796843,79.596947)">
      <path
         style="fill:#f5d0e4"
         d="m -40.129575,585.26399 c 0.286291,-238.20283 0.864029,-361.58698 1.716402,-366.5625 3.679131,-21.47601 22.090299,-49.17364 43.2722525,-65.09848 15.1746775,-11.4085 31.1585885,-17.91932 50.2301925,-20.46057 13.980723,-1.86289 607.269278,-1.86289 621.249998,0 17.80695,2.37274 30.06573,7.0126 45.5246,17.23077 19.00624,12.56293 36.87504,35.22976 44.52533,56.48099 5.61618,15.60085 5.5537,11.28202 5.56468,384.65979 l 0.0104,352.8125 -406.2627,0 -406.262696,0 0.431551,-359.0625 z m 200.537955,185 0.31912,-113.4375 -70.631615,0 -70.631613,0 0,113.76041 0,113.7604 70.3125,-0.3229 70.312498,-0.32291 0.31911,-113.4375 z m 551.25,0 0.31912,-113.4375 -244.38162,0 -244.38161,0 0,113.75314 0,113.75314 244.0625,-0.31564 244.0625,-0.31564 0.31911,-113.4375 z m -551.24787,-261.25 0.32124,-84.6875 -70.63374,0 -70.633738,0 0,84.16666 c 0,46.29168 0.379677,84.54635 0.843727,85.0104 0.464052,0.46405 32.104677,0.69843 70.312498,0.52084 l 69.468773,-0.3229 0.32124,-84.6875 z m 551.25,0 0.32124,-84.6875 -244.38374,0 -244.38374,0 0,85.00314 0,85.00314 244.0625,-0.31564 244.0625,-0.31564 0.32124,-84.6875 z m -551.25,-231.875 -0.32124,-84.6875 -47.5,0 c -51.698561,0 -53.442063,0.20213 -66.407732,7.69893 -6.551446,3.78808 -16.903647,14.6908 -20.334556,21.41594 -5.922919,11.60988 -6.344539,16.94768 -6.364234,80.57263 l -0.01848,59.6875 70.633737,0 70.633745,0 -0.32124,-84.6875 z m 551.54652,26.875 c -0.004,-31.79687 -0.54953,-61.12397 -1.21235,-65.17132 -1.66197,-10.14858 -7.49212,-21.996 -14.52347,-29.51308 -6.78675,-7.25558 -20.01129,-14.33476 -30.36505,-16.25461 -4.31873,-0.8008 -84.88814,-1.24849 -224.6875,-1.24849 l -217.95439,0 0,85 0,85 244.375,0 244.375,0 -0.008,-57.8125 z"
         id="path5069"
         inkscape:connector-curvature="0" />
      <path
         style="fill:#f1b3d4"
         d="m -40.513904,590.26399 c 0.02346,-380.56098 -0.213965,-365.88127 6.19459,-383.00967 11.291409,-30.17899 37.2526023,-56.65699 66.67686,-68.00419 20.134505,-7.76468 4.9152,-7.42746 333.247814,-7.384 328.04834,0.0434 314.11161,-0.2667 333.35091,7.41766 29.51556,11.7888 54.22426,36.68266 65.94708,66.44125 7.38457,18.74589 7.06092,1.04877 7.06092,386.09322 l 0,352.50823 -406.25,0 -406.249998,0 0.02182,-354.0625 z m 200.922224,179.98968 0.31904,-114.69783 -70.944038,0.32283 -70.94405,0.32282 -0.319177,112.98888 c -0.234038,82.84905 0.05917,113.44476 1.099203,114.69792 1.174436,1.4151 13.37605,1.6535 70.944174,1.38612 l 69.525798,-0.32292 0.31905,-114.69782 z m 551.24999,0.0103 0.31905,-114.6875 -245.00655,0 -245.00654,0 0,114.16666 c 0,62.79168 0.37641,114.54308 0.83646,115.00314 0.46007,0.46005 110.56944,0.69442 244.6875,0.52084 l 243.85104,-0.31564 0.31904,-114.6875 z m -551.24793,-261.26033 0.32113,-85.94782 -70.946126,0.32282 -70.946112,0.32283 -0.321352,84.23625 c -0.234558,61.48469 0.06233,84.69856 1.099203,85.94793 1.177289,1.41854 13.326773,1.65636 70.946349,1.38874 l 69.525798,-0.32292 0.32111,-85.94783 z m 551.25,0.007 0.32113,-85.94062 -244.69613,0.31562 -244.69611,0.31533 -0.32369,84.375 c -0.17802,46.40625 -0.0545,85.07954 0.27448,85.94064 0.47691,1.2483 50.07607,1.50166 244.69869,1.25 l 244.10052,-0.31564 0.32111,-85.94064 z M 160.71427,277.3977 l 0,-85.67827 -50.38067,0.36577 -50.380678,0.36577 -9.400123,4.64745 c -16.66518,8.23931 -28.081962,23.779 -31.023948,42.22755 -1.421195,8.91199 -1.862141,121.53577 -0.481245,122.91666 0.458332,0.45834 32.520832,0.83334 71.250003,0.83334 l 70.416661,0 0,-85.67827 z m 551.23516,23.49077 c -0.0161,-67.32307 -0.16132,-69.03286 -6.92001,-81.45079 -4.76816,-8.76069 -15.1276,-18.19381 -25.24199,-22.9849 l -8.44816,-4.00181 -224.6875,-0.32921 -224.6875,-0.3292 0,85.64171 0,85.6417 245,0 245,0 -0.0149,-62.1875 z"
         id="path5067"
         inkscape:connector-curvature="0" />
      <path
         style="fill:#eb95c4"
         d="m -40.513904,590.88899 c 0.0183,-296.40314 0.30329,-355.15206 1.766046,-364.0625 6.357464,-38.72674 34.62357,-72.91646 72.415243,-87.59102 19.997041,-7.76487 3.642384,-7.40062 331.421885,-7.38153 315.75298,0.0184 310.91,-0.0638 327.24524,5.55042 17.983,6.18049 33.48511,16.02385 46.64164,29.616 13.03508,13.4667 21.46147,27.12706 27.41026,44.43589 5.65561,16.45581 5.53171,7.96588 5.55544,380.68274 l 0.0224,352.1875 -406.25,0 -406.249998,0 0.02182,-353.4375 z M 161.65838,770.65435 c 0.25299,-90.61138 -0.006,-114.50358 -1.25,-115.29336 -1.81238,-1.15067 -137.2428,-1.41702 -140.216874,-0.27576 -1.782985,0.6842 -1.977234,11.96166 -1.977234,114.79166 0,62.71811 0.379601,114.41254 0.843559,114.87649 0.463956,0.46396 32.667081,0.69834 71.562503,0.52083 l 70.718936,-0.32272 0.31911,-114.29714 z m 551.25,0 c 0.25299,-90.61138 -0.006,-114.50358 -1.25,-115.29336 -0.86301,-0.54792 -111.00348,-1.00484 -244.75661,-1.01536 -187.50056,-0.0148 -243.53099,0.32435 -244.6875,1.48086 -1.1446,1.1446 -1.5,28.34259 -1.5,114.79166 0,62.31043 0.3764,113.66808 0.83645,114.12813 0.46005,0.46004 111.13193,0.69441 245.9375,0.52082 l 245.10105,-0.31561 0.31911,-114.29714 z m -551.56911,-261.32786 0,-85.625 -71.562498,-0.32274 -71.5625,-0.32274 0,85.4269 c 0,46.9848 0.379601,85.80652 0.843559,86.27047 0.463956,0.46396 32.667081,0.69834 71.562503,0.52084 l 70.718936,-0.32273 0,-85.625 z m 551.25,0 0,-85.625 -245.625,0 -245.625,0 -0.34481,83.125 c -0.18965,45.71875 -0.038,84.39203 0.3371,85.94062 l 0.68191,2.81563 245.2879,-0.31563 245.2879,-0.31562 0,-85.625 z m -550.92889,-232.1875 -0.32111,-85.9375 -44.94329,-0.32857 c -26.688333,-0.19511 -47.740021,0.18844 -51.828774,0.94429 -16.205788,2.9958 -32.353587,14.70006 -39.36191,28.53032 -6.795778,13.41082 -6.991024,15.69371 -6.991024,81.74158 l 0,60.98738 71.883612,0 71.883616,0 -0.32112,-85.9375 z m 551.27507,25.9375 c 0.38982,-66.86396 -0.027,-71.28079 -7.97785,-84.53308 -5.67005,-9.45072 -10.01462,-13.89099 -18.80323,-19.21745 -15.18235,-9.20146 1.79518,-8.59706 -243.74386,-8.67741 -199.66329,-0.0653 -220.24946,0.11217 -220.9375,1.90517 -1.04149,2.71409 -0.9655,168.64935 0.0778,169.69256 0.46005,0.46004 111.13192,0.69441 245.9375,0.52082 l 245.10101,-0.31561 0.34618,-59.375 z"
         id="path5065"
         inkscape:connector-curvature="0" />
      <path
         style="fill:#e985bb"
         d="m -40.238055,586.51399 0.327327,-357.8125 2.825193,-10 c 3.169189,-11.2176 10.743132,-27.81029 16.540788,-36.23689 13.2285415,-19.22703 33.896768,-35.16377 56.754047,-43.76159 18.910488,-7.11323 6.832997,-6.86114 329.10202,-6.86915 203.16234,-0.005 299.5495,0.41242 306.25,1.32642 25.87821,3.53001 47.44684,14.27887 66.11856,32.9506 15.10967,15.10965 25.2432,32.67719 30.82787,53.44325 l 2.79617,10.39736 0.3471,357.1875 0.34711,357.1875 -406.28176,0 -406.281751,0 0.327326,-357.8125 z m 201.896335,183.75 -0.31901,-115.3125 -71.249998,0 -71.25,0 -0.319009,115.3125 -0.319007,115.3125 71.888016,0 71.888008,0 -0.319,-115.3125 z m 551.25,0 -0.31901,-115.3125 -245.625,0 -245.625,0 -0.3225,113.75 c -0.17737,62.5625 -0.0544,114.45313 0.27328,115.3125 0.47381,1.24267 50.88098,1.5625 246.2665,1.5625 l 245.67073,0 -0.319,-115.3125 z M 161.96427,509.46023 c 0,-77.37367 -0.20072,-86.19329 -1.97724,-86.875 -2.58297,-0.99119 -137.212548,-0.99119 -139.795524,0 -1.776503,0.68171 -1.977234,9.50133 -1.977234,86.875 l 0,86.11626 71.875,0 71.874998,0 0,-86.11626 z m 551.25,0 c 0,-77.37367 -0.20072,-86.19329 -1.97724,-86.875 -2.58488,-0.99192 -485.96063,-0.99192 -488.54552,0 -1.77625,0.68161 -1.97724,9.4279 -1.97724,86.04166 0,46.90561 0.375,85.65794 0.83334,86.11626 0.45832,0.45834 111.27082,0.83334 246.25,0.83334 l 245.41666,0 0,-86.11626 z m -551.55394,-232.32124 0.32105,-86.5625 -47.24593,0 c -50.247733,0 -55.197384,0.47303 -66.780086,6.38208 -6.778651,3.45821 -17.909901,14.05602 -21.881275,20.83265 -1.732405,2.95613 -4.209575,8.77975 -5.504822,12.94139 -2.173691,6.98409 -2.354995,12.35367 -2.354995,69.74692 0,34.19916 0.379601,62.5599 0.843559,63.02385 0.463956,0.46396 32.667081,0.69834 71.562503,0.52084 l 70.718936,-0.32273 0.32106,-86.5625 z m 551.26548,25.3125 c 0.21089,-38.38076 -0.14148,-63.50073 -0.94373,-67.27808 -3.07015,-14.45559 -13.53707,-28.99551 -26.44666,-36.73784 -13.96446,-8.37497 1.3517,-7.89908 -242.9901,-7.55006 l -221.20605,0.31598 -0.32125,85.54583 c -0.25389,67.60862 0.009,85.75536 1.25,86.54516 0.86419,0.54965 111.54,0.86652 245.94625,0.70418 l 244.375,-0.29517 0.33654,-61.25 z"
         id="path5063"
         inkscape:connector-curvature="0" />
      <path
         style="fill:#e465a9"
         d="m -40.535728,591.99023 c 0,-384.19712 -0.403477,-362.08194 6.985152,-382.86636 6.951939,-19.556 20.353883,-38.42273 36.288278,-51.08521 11.349435,-9.01898 30.823264,-18.74418 45.47657,-22.71092 l 10.625,-2.87625 306.249998,0 306.25,0 11.25,2.84642 c 24.00545,6.07375 48.2478,21.50245 63.28774,40.27858 9.09427,11.35345 18.75781,30.59888 22.59547,45 l 2.83138,10.625 0.34716,356.5625 0.34716,356.5625 -406.26695,0 -406.266958,0 0,-352.33626 z M 161.71427,885.32649 c 1.14486,-1.14486 1.49546,-28.2979 1.48086,-114.6875 -0.01,-62.25313 -0.46847,-113.89528 -1.01766,-114.76034 -0.7873,-1.24014 -16.18546,-1.50455 -72.793361,-1.25 l -71.794837,0.32284 -0.319108,114.23896 c -0.232876,83.36864 0.06183,114.69795 1.090557,115.9375 1.94658,2.34549 141.013999,2.53809 143.353549,0.19854 z m 551.45603,-0.91782 c 1.5509,-2.89788 1.80642,-226.08979 0.26162,-228.52282 -0.79191,-1.24725 -50.92867,-1.50144 -246.54336,-1.25 l -245.54929,0.31564 -0.32247,114.375 c -0.17737,62.90625 -0.0544,115.07813 0.27326,115.9375 0.4738,1.24266 50.74586,1.5625 245.591,1.5625 240.9403,0 245.01667,-0.04 246.28924,-2.41782 z m -551.25,-290 c 1.97542,-3.69113 1.77623,-169.09992 -0.20603,-171.08218 -2.16495,-2.16495 -141.085043,-2.16495 -143.249998,0 -2.169192,2.16919 -2.169192,169.83081 0,172 1.13112,1.13112 18.795783,1.5 71.831025,1.5 68.254903,0 70.369213,-0.0714 71.625003,-2.41783 z m 551.25,0 c 2.02701,-3.78752 1.76881,-167.70943 -0.26853,-170.47653 -1.46195,-1.9856 -17.32941,-2.10153 -246.5625,-1.80141 l -245,0.32076 -0.32119,86.17086 c -0.25386,68.10944 0.009,86.37994 1.25,87.16836 0.86415,0.54862 111.37953,1.00612 245.58972,1.01664 239.98481,0.0189 244.0399,-0.0209 245.3125,-2.39868 z M 161.71427,362.82649 c 1.13715,-1.13715 1.5,-21.99022 1.5,-86.20602 l 0,-84.70602 -2.64986,-1.41816 c -1.89176,-1.01245 -15.92803,-1.2683 -49.0625,-0.89432 -44.084502,0.49756 -46.820202,0.66433 -54.537638,3.3246 -16.699556,5.75649 -30.369925,19.04136 -36.342833,35.31799 -2.885653,7.86362 -2.925111,8.67427 -3.364888,69.1301 -0.244748,33.64525 -0.118663,62.47338 0.280177,64.0625 l 0.725174,2.88933 70.976183,0 c 53.537035,0 71.344745,-0.36856 72.476185,-1.5 z m 551.25,0 c 1.88213,-1.88212 2.10943,-104.87517 0.26704,-121 -3.1944,-27.95782 -23.31295,-48.04583 -51.34664,-51.26869 -11.47407,-1.3191 -435.79734,-1.77568 -439.19316,-0.47257 -1.77644,0.68168 -1.97724,9.48298 -1.97724,86.66666 0,47.24936 0.375,86.28294 0.83334,86.74126 0.45832,0.45834 110.87707,0.83334 245.375,0.83334 188.5324,0 244.88522,-0.34356 246.04166,-1.5 z"
         id="path5061"
         inkscape:connector-curvature="0" />
      <path
         style="fill:#da318c"
         d="m -40.183298,587.76399 c 0.421182,-388.71288 -0.169561,-355.53274 6.704361,-376.5625 13.797704,-42.21206 52.407485,-72.69986 99.160268,-78.30085 5.342753,-0.64006 136.982489,-0.9522 307.499999,-0.72914 l 298.15794,0.39004 11.57218,3.3491 c 44.0144,12.73817 72.21527,40.93781 84.97241,84.96867 l 3.35282,11.57218 0.38285,355.9375 0.38287,355.9375 -406.28603,0 -406.286014,0 0.386346,-356.5625 z M 162.90832,770.6543 c 0.25295,-91.61145 -0.006,-115.75353 -1.25,-116.54335 -1.81226,-1.15058 -139.742528,-1.41706 -142.716814,-0.27572 -1.783202,0.68427 -1.977234,12.07182 -1.977234,116.04166 0,63.40561 0.379527,115.66246 0.843394,116.12632 0.463867,0.46388 33.229492,0.69825 72.812506,0.52084 l 71.969098,-0.32256 0.31905,-115.54719 z m 551.25,0 c 0.25295,-91.61145 -0.006,-115.75353 -1.25,-116.54335 -0.86297,-0.5479 -111.56592,-1.0048 -246.00655,-1.01532 -188.47279,-0.0148 -244.78092,0.32429 -245.9375,1.48086 -1.14484,1.14484 -1.5,28.62038 -1.5,116.04166 0,62.99793 0.3764,114.91807 0.83644,115.3781 0.46004,0.46005 111.69441,0.69443 247.1875,0.52084 l 246.35106,-0.3156 0.31905,-115.54719 z m -551.56905,-261.32781 0,-86.875 -72.812498,-0.32258 -72.8125,-0.32257 0,86.67675 c 0,47.6722 0.379527,87.05626 0.843394,87.52013 0.463867,0.46387 33.229492,0.69825 72.812506,0.52083 l 71.969098,-0.32256 0,-86.875 z m 551.25,0 0,-86.875 -246.875,0 -246.875,0 -0.34475,84.375 c -0.18961,46.40625 -0.0379,85.64203 0.33709,87.19061 l 0.68185,2.8156 246.53791,-0.3156 246.5379,-0.31561 0,-86.875 z M 161.11275,364.01399 c 1.97161,-1.44884 2.10266,-7.83681 1.80141,-87.8125 l -0.32489,-86.25 -50.625,0 c -50.099931,0 -50.699729,0.0302 -57.830254,2.90895 -14.711682,5.9395 -27.696649,18.93164 -33.646894,33.66547 -2.88401,7.14131 -2.899544,7.48703 -3.252605,72.38829 -0.335626,61.69641 -0.234526,65.24396 1.875,65.79249 1.226365,0.31889 33.20037,0.64505 71.053342,0.7248 53.279191,0.11225 69.303821,-0.2079 70.949891,-1.4175 z m 550.9337,0.26852 c 2.33932,-1.25197 2.41782,-3.25894 2.41782,-61.81347 0,-39.69886 -0.47931,-62.79837 -1.39324,-67.14352 -2.33472,-11.10029 -7.19162,-19.77374 -16.01183,-28.59396 -9.13917,-9.13916 -17.83303,-13.88528 -29.46993,-16.08813 -5.46619,-1.03474 -67.15857,-1.32105 -227.5,-1.05584 l -220,0.3639 -0.32489,86.25 c -0.30125,79.97569 -0.1702,86.36366 1.80142,87.8125 2.79225,2.05186 486.65347,2.31676 490.48065,0.26852 z"
         id="path5059"
         inkscape:connector-curvature="0" />
      <path
         style="fill:#d30071"
         d="m -40.535728,597.01509 c 0,-191.02127 0.362358,-351.59809 0.80524,-356.83738 0.442882,-5.23929 1.286632,-9.22846 1.875,-8.86483 0.588368,0.36364 1.06976,-0.63946 1.06976,-2.2291 0,-4.81663 4.718301,-19.74858 9.266705,-29.32622 11.396211,-23.99719 28.976595,-41.95538 52.862562,-53.99859 8.298872,-4.18426 27.419773,-10.18248 32.459338,-10.18248 1.720986,0 2.721035,-0.54674 2.286395,-1.25 -0.514239,-0.83206 101.752988,-1.2436 305.863728,-1.23086 198.42911,0.0124 305.97461,0.44674 304.76127,1.23086 -1.43886,0.92986 -0.99687,1.21617 1.90013,1.23086 5.74748,0.0291 21.22146,4.65309 31.56613,9.43262 23.33279,10.78042 43.83984,31.28746 54.62025,54.62026 4.77954,10.34468 9.40349,25.81865 9.43263,31.56614 0.0147,2.89699 0.301,3.33898 1.23086,1.90012 1.51048,-2.3373 1.76893,104.17704 1.37395,566.25 l -0.12395,145 -405.625,0 -405.624998,0 0,-347.3114 z m 204.698258,174.1864 c 0.30084,-108.18123 0.1758,-116.35845 -1.80141,-117.8125 -3.01797,-2.21944 -142.929662,-2.27969 -145.146848,-0.0625 -1.145076,1.14508 -1.5,28.89815 -1.5,117.29166 0,63.68543 0.379456,116.17113 0.843235,116.6349 0.463779,0.46379 33.791904,0.69816 74.062502,0.52084 l 73.219261,-0.3224 0.32326,-116.25 z m 551.25,0 c 0.30084,-108.18123 0.1758,-116.35845 -1.80141,-117.8125 -1.68266,-1.23744 -53.02552,-1.5625 -246.79647,-1.5625 -220.76225,0 -244.86375,0.19195 -246.63609,1.96429 -1.75716,1.75716 -1.96429,14.05465 -1.96429,116.625 0,87.64492 0.35415,115.01486 1.50309,116.1638 1.16279,1.16279 57.41026,1.43165 248.4375,1.1875 l 246.93441,-0.31559 0.32326,-116.25 z m -551.57326,-261.875 0,-88.125 -73.749998,0 -73.75,0 -0.323557,86.875 c -0.177957,47.78125 -0.05326,87.58263 0.277108,88.44751 0.4751,1.24378 15.959817,1.50509 74.073561,1.25 l 73.472886,-0.32251 0,-88.125 z m 551.25,0 0,-88.125 -247.42431,-0.31561 c -197.1147,-0.25144 -247.62643,0.002 -248.41835,1.25 -0.54674,0.86109 -1.00268,40.12499 -1.0132,87.25311 -0.0145,65.09869 0.34202,86.04866 1.48395,87.19059 1.16279,1.16279 57.41026,1.43165 248.4375,1.1875 l 246.93441,-0.31559 0,-88.125 z m -551.25,-232.5 0,-88.125 -46.25,-0.37013 c -30.690998,-0.24561 -48.773078,0.10559 -53.749998,1.04397 -22.285405,4.20182 -40.498877,21.19775 -46.208864,43.11986 -1.59694,6.13107 -1.916136,17.68953 -1.916136,69.38559 0,34.11597 0.379456,62.4085 0.843235,62.87227 0.463779,0.46379 33.791904,0.69816 74.062502,0.52084 l 73.219261,-0.3224 0,-88.125 z m 551.61833,27.5 c 0.25018,-41.17996 -0.0832,-63.03057 -1.03963,-68.125 -4.3788,-23.3252 -23.51724,-42.46184 -46.8287,-46.82426 -5.41496,-1.01334 -68.8347,-1.30236 -228.125,-1.03963 l -220.625,0.36389 -0.34469,85.625 c -0.18957,47.09375 -0.0379,86.89201 0.33709,88.44059 l 0.68179,2.8156 247.7879,-0.3156 247.78791,-0.31559 0.36833,-60.625 z"
         id="path5057"
         inkscape:connector-curvature="0" />
    </g>
  </g>
</svg>
