<?xml version="1.0" encoding="utf-8"?>
<!-- Generated by IcoMoon.io -->
<!DOCTYPE svg PUBLIC "-//W3C//DTD SVG 1.1//EN" "http://www.w3.org/Graphics/SVG/1.1/DTD/svg11.dtd">
<svg version="1.1" xmlns="http://www.w3.org/2000/svg" xmlns:xlink="http://www.w3.org/1999/xlink" width="952" height="1024" viewBox="0 0 952 1024">
<g id="icomoon-ignore">
</g>
<path d="M8.042 796.147c0 8.042 5.361 16.084 8.042 21.445l171.56 187.644c10.723 10.723 29.487 13.403 42.89 0 10.723-10.723 10.723-32.168 0-42.89l-123.309-136.712h801.508c16.084 0 29.487-13.403 29.487-29.487s-13.403-29.487-29.487-29.487h-801.508l123.309-123.309c10.723-10.723 10.723-32.168 0-42.89-13.403-10.723-32.168-10.723-42.89 0l-171.56 174.241c-8.042 8.042-8.042 13.403-8.042 21.445zM206.408 1018.639c-10.723 0-18.764-2.681-26.806-10.723l-171.56-187.644c-2.681-5.361-8.042-16.084-8.042-24.126s0-16.084 10.723-24.126l171.56-174.241c5.361-8.042 16.084-10.723 26.806-10.723s18.764 2.681 26.806 10.723c13.403 13.403 13.403 37.529 0 50.932l-112.586 112.586h785.424c21.445 0 37.529 16.084 37.529 37.529s-16.084 37.529-37.529 37.529h-788.105l112.586 123.309c5.361 8.042 10.723 16.084 10.723 26.806s-5.361 18.764-10.723 24.126c-8.042 5.361-16.084 8.042-26.806 8.042zM209.089 597.78c0 0-2.681 0 0 0-8.042 0-13.403 2.681-16.084 8.042l-171.56 174.241c-5.361 5.361-5.361 10.723-5.361 16.084s2.681 13.403 8.042 16.084l171.56 187.644c8.042 8.042 24.126 10.723 32.168 0 2.681-2.681 5.361-8.042 5.361-16.084 0-5.361-2.681-13.403-5.361-16.084l-134.031-147.435h817.592c13.403 0 24.126-10.723 24.126-24.126s-10.723-24.126-24.126-24.126h-820.272l134.031-134.031c8.042-8.042 8.042-24.126 0-32.168-5.361-5.361-10.723-8.042-16.084-8.042zM938.22 219.812c0-8.042-5.361-16.084-8.042-21.445l-171.56-187.644c-10.723-10.723-29.487-13.403-42.89 0-10.723 10.723-10.723 32.168 0 42.89l123.309 134.031h-801.508c-16.084 0-29.487 13.403-29.487 32.168 0 16.084 13.403 29.487 29.487 29.487h801.508l-123.309 123.309c-10.723 10.723-10.723 32.168 0 42.89s32.168 10.723 42.89 0l171.56-174.241zM737.173 428.901c-10.723 0-18.764-2.681-24.126-10.723-13.403-13.403-13.403-37.529 0-50.932l112.586-112.586h-788.105c-21.445 0-37.529-16.084-37.529-34.848 0-21.445 16.084-37.529 37.529-37.529h788.105l-112.586-125.99c-5.361-5.361-10.723-16.084-10.723-26.806s5.361-18.764 10.723-24.126c16.084-13.403 37.529-13.403 50.932 2.681l171.56 187.644c5.361 5.361 10.723 16.084 10.723 24.126h-13.403c0-5.361-2.681-13.403-5.361-16.084l-171.56-187.644c-8.042-8.042-24.126-10.723-32.168 0-2.681 2.681-5.361 10.723-5.361 16.084s2.681 13.403 5.361 16.084l134.031 147.435h-820.272c-13.403 0-24.126 10.723-24.126 24.126 0 10.723 10.723 21.445 24.126 21.445h817.592l-134.031 134.031c-8.042 8.042-8.042 24.126 0 32.168 5.361 5.361 8.042 5.361 16.084 5.361 5.361 0 13.403-2.681 16.084-8.042l171.56-174.241 10.723 10.723-171.56 174.241c-5.361 8.042-16.084 13.403-26.806 13.403 0 0 0 0 0 0z"></path>
</svg>
