<?xml version="1.0" encoding="utf-8"?>
<!-- Generated by IcoMoon.io -->
<!DOCTYPE svg PUBLIC "-//W3C//DTD SVG 1.1//EN" "http://www.w3.org/Graphics/SVG/1.1/DTD/svg11.dtd">
<svg version="1.1" xmlns="http://www.w3.org/2000/svg" xmlns:xlink="http://www.w3.org/1999/xlink" width="1024" height="1024" viewBox="0 0 1024 1024">
<g id="icomoon-ignore">
</g>
<path d="M835.086 507.502c-3.254-62.206-15.312-108.525-16.078-111.396-2.775-10.431-11.197-17.705-21.054-19.619-1.723-0.957-3.541-1.723-5.359-2.297-4.594-1.436-113.884-34.835-180.109-103.070-17.896-18.375-33.304-34.165-54.645-29.859-20.001 4.019-26.605 21.341-34.548 41.726-75.795 195.134-265.761 157.811-273.8 156.088-14.642-3.062-28.997 6.221-32.156 20.863s6.125 29.093 20.863 32.347c0.67 0.096 21.724 4.402 53.593 4.402 76.082 0 213.7-24.595 280.212-189.105 0.479 0.479 0.957 0.957 1.436 1.436 67.086 69 166.998 105.367 196.187 114.937 6.221 29.667 18.662 103.166 7.273 177.43-0.191 1.244-7.752 45.745-28.136 101.060-34.165 32.634-88.428 59.43-174.463 59.43-0.096 0-0.096 0-0.096 0-12.154-15.408-34.261-25.839-59.909-25.839-38.472 0-69.766 23.447-69.766 52.348s31.294 52.253 69.766 52.253c24.882 0 46.511-9.761 58.856-24.499 0.383 0 0.766 0.096 1.148 0.096 53.114 0 96.371-8.996 131.684-23.447-40.481 66.895-101.826 125.655-192.263 125.655-0.957 0-1.914 0.191-2.967 0.287-0.957-0.096-1.914-0.287-2.967-0.287-208.15 0-249.779-312.846-250.162-316.004-1.914-14.929-15.312-25.456-30.337-23.638-14.929 1.818-25.456 15.408-23.638 30.337 1.818 14.834 47.946 363.664 304.138 363.664 1.053 0 2.010-0.191 2.967-0.287 1.053 0.096 2.010 0.287 2.967 0.287 160.873 0 243.75-137.905 283.753-243.846 55.794-62.493 63.163-136.182 63.258-138.288 0.191-5.455 0.766-54.071-25.265-82.781-0.096-0.191-0.287-0.287-0.383-0.383zM436.109 562.147c0-19.427-16.748-35.218-37.515-35.218-20.671 0-37.419 15.791-37.419 35.218s16.748 35.218 37.419 35.218c20.767 0 37.515-15.791 37.515-35.218zM636.22 526.929c-20.671 0-37.515 15.791-37.515 35.218s16.843 35.218 37.515 35.218c20.671 0 37.419-15.791 37.419-35.218s-16.748-35.218-37.419-35.218zM944.281 674.883c-0.096-5.264-0.287-10.527-0.574-15.982-1.914-40.864 0.861-53.497 10.91-100.677 2.010-9.379 4.307-20.001 6.795-32.347 0.191-0.67 0.287-1.34 0.383-2.105 7.369-57.995 3.637-116.564-6.412-165.084-0.479-2.105-1.148-4.019-2.010-5.742-73.020-305.956-400.317-299.831-403.571-299.831-0.766 0.096-1.531 0.287-2.297 0.383-1.818-0.479-3.828-0.766-5.838-0.861-10.431-0.191-257.436-3.158-395.436 150.442-72.446 80.58-100.773 188.531-84.025 320.694 0.096 0.766 0.191 1.436 0.383 2.105 2.488 12.345 4.785 22.968 6.795 32.347 10.049 47.181 12.824 59.813 10.91 100.677-0.287 5.455-0.479 10.719-0.574 15.982-1.148 41.056-1.914 70.723-60.866 122.114-10.144 8.804-12.25 23.734-4.976 35.122 14.355 22.394 49.095 51.2 100.964 51.2 26.126 0 56.655-7.369 91.107-26.605 13.111-7.369 17.8-23.925 10.431-37.036s-23.925-17.8-37.036-10.431c-52.348 29.38-85.557 20.289-103.453 8.709 55.889-56.846 57.038-99.816 58.186-141.542 0.096-4.976 0.287-9.857 0.479-14.929 2.297-47.946-1.627-66.129-11.963-114.65-2.010-8.996-4.115-19.14-6.603-30.911-14.355-115.224 9.379-208.245 70.436-276.384 121.253-135.034 351.988-132.45 354.285-132.546 1.244 0.096 2.488-0.096 3.732-0.191 2.201 0.479 4.402 0.766 6.699 0.67 11.867-0.096 294.089-2.967 352.562 269.207 8.039 41.343 10.527 89.48 4.307 139.245-2.488 11.771-4.594 21.916-6.603 30.911-10.336 48.52-14.259 66.704-11.963 114.65 0.191 5.072 0.383 9.953 0.479 14.929 1.148 41.726 2.297 84.791 58.282 141.733-17.705 11.484-50.817 20.671-103.644-8.9-13.015-7.369-29.572-2.68-36.941 10.431s-2.68 29.667 10.431 37.036c34.452 19.236 64.981 26.605 91.107 26.605 51.87 0 86.609-28.806 100.964-51.2 7.273-11.388 5.168-26.318-4.976-35.122-58.952-51.391-59.717-81.059-60.866-122.114z"></path>
</svg>
