<svg id="SvgjsSvg1000" xmlns="http://www.w3.org/2000/svg" version="1.1" xmlns:xlink="http://www.w3.org/1999/xlink" xmlns:svgjs="http://svgjs.com/svgjs" width="34" height="34" viewBox="0 0 34 34"><title>Fill 1</title><desc>Created with Avocode.</desc><defs id="SvgjsDefs1001"></defs><path id="SvgjsPath1007" d="M535.12 346.92C535.12 355.09000000000003 541.8 361.73 550 361.73C558.2 361.73 564.87 355.09000000000003 564.87 346.92C564.87 338.76 558.2 332.12 550 332.12C541.8 332.12 535.12 338.76 535.12 346.92ZM533 346.92C533 337.59000000000003 540.63 330 550 330C559.37 330 567 337.59 567 346.92C567 356.25 559.37 363.85 550 363.85C540.63 363.85 533 356.25 533 346.92Z " fill="#70b129" fill-opacity="1" transform="matrix(1,0,0,1,-533,-330)"></path><path id="SvgjsPath1008" d="M548.56 352.27L544.31 348.03999999999996C543.9 347.61999999999995 543.9 346.96 544.31 346.53999999999996C544.7299999999999 346.12999999999994 545.4 346.12999999999994 545.81 346.53999999999996L549.26 349.96999999999997L555.95 342.35999999999996C556.34 341.91999999999996 557.01 341.87999999999994 557.45 342.25999999999993C557.8900000000001 342.6499999999999 557.94 343.30999999999995 557.5500000000001 343.74999999999994L550.11 352.21999999999997C549.92 352.44 549.64 352.57 549.35 352.58C549.03 352.58 548.76 352.46999999999997 548.5600000000001 352.27Z " fill="#71b12a" fill-opacity="1" transform="matrix(1,0,0,1,-533,-330)"></path></svg>