<svg id="SvgjsSvg1009" xmlns="http://www.w3.org/2000/svg" version="1.1" xmlns:xlink="http://www.w3.org/1999/xlink" xmlns:svgjs="http://svgjs.com/svgjs" width="43.75" height="56.375" viewBox="0 0 43.75 56.375"><title>Page 1</title><desc>Created with Avocode.</desc><defs id="SvgjsDefs1010"></defs><path id="SvgjsPath1011" d="M378.43 651.04L368.09000000000003 607.05C367.56000000000006 604.77 365.40000000000003 603 363.19000000000005 603C360.96000000000004 603 358.82000000000005 604.79 358.32000000000005 607.07L348.56000000000006 651.0400000000001L345.7900000000001 651.0400000000001C343.7000000000001 651.0400000000001 342.00000000000006 652.7400000000001 342.00000000000006 654.82C342.00000000000006 656.9100000000001 343.70000000000005 658.61 345.7900000000001 658.61L381.2100000000001 658.61C383.30000000000007 658.61 385.0000000000001 656.91 385.0000000000001 654.82C385.0000000000001 652.74 383.3000000000001 651.0400000000001 381.22000000000014 651.0400000000001ZM368.45 619.61L370.22999999999996 627.19L356.43999999999994 627.19L358.11999999999995 619.61ZM370.68 629.08L371.71 633.5L355.03999999999996 633.5L356.02 629.08ZM368.01 617.72L358.53999999999996 617.72L359.52 613.3100000000001L366.96999999999997 613.3100000000001ZM365.63 607.62L366.53 611.41L359.94 611.41L360.78 607.62C361.02 606.5 362.15 605.52 363.19 605.52C364.23 605.52 365.37 606.5 365.63 607.62ZM345.79 656.08C345.09000000000003 656.08 344.52000000000004 655.5200000000001 344.52000000000004 654.82C344.52000000000004 654.13 345.09000000000003 653.5600000000001 345.79 653.5600000000001L350.58000000000004 653.5600000000001L354.61 635.3900000000001L372.16 635.3900000000001L375.85 651.1200000000001L358.56 651.9800000000001L358.56 652.6100000000001L376.42 653.5100000000001L376.43 653.5600000000001L381.22 653.5600000000001C381.91 653.5600000000001 382.48 654.1300000000001 382.48 654.82C382.48 655.5200000000001 381.91 656.08 381.22 656.08Z " fill="#d40072" fill-opacity="1" transform="matrix(1,0,0,1,-341.625,-602.8125)"></path><path id="SvgjsPath1012" d="M378.43 651.04L368.09000000000003 607.05C367.56000000000006 604.77 365.40000000000003 603 363.19000000000005 603C360.96000000000004 603 358.82000000000005 604.79 358.32000000000005 607.07L348.56000000000006 651.0400000000001L345.7900000000001 651.0400000000001C343.7000000000001 651.0400000000001 342.00000000000006 652.7400000000001 342.00000000000006 654.82C342.00000000000006 656.9100000000001 343.70000000000005 658.61 345.7900000000001 658.61L381.2100000000001 658.61C383.30000000000007 658.61 385.0000000000001 656.91 385.0000000000001 654.82C385.0000000000001 652.74 383.3000000000001 651.0400000000001 381.22000000000014 651.0400000000001ZM368.45 619.61L370.22999999999996 627.19L356.43999999999994 627.19L358.11999999999995 619.61ZM370.68 629.08L371.71 633.5L355.03999999999996 633.5L356.02 629.08ZM368.01 617.72L358.53999999999996 617.72L359.52 613.3100000000001L366.96999999999997 613.3100000000001ZM365.63 607.62L366.53 611.41L359.94 611.41L360.78 607.62C361.02 606.5 362.15 605.52 363.19 605.52C364.23 605.52 365.37 606.5 365.63 607.62ZM345.79 656.08C345.09000000000003 656.08 344.52000000000004 655.5200000000001 344.52000000000004 654.82C344.52000000000004 654.13 345.09000000000003 653.5600000000001 345.79 653.5600000000001L350.58000000000004 653.5600000000001L354.61 635.3900000000001L372.16 635.3900000000001L375.85 651.1200000000001L358.56 651.9800000000001L358.56 652.6100000000001L376.42 653.5100000000001L376.43 653.5600000000001L381.22 653.5600000000001C381.91 653.5600000000001 382.48 654.1300000000001 382.48 654.82C382.48 655.5200000000001 381.91 656.08 381.22 656.08Z " fill-opacity="0" fill="#ffffff" stroke-dasharray="0" stroke-linejoin="miter" stroke-linecap="butt" stroke-opacity="1" stroke="#d40072" stroke-miterlimit="50" stroke-width="0.75" transform="matrix(1,0,0,1,-341.625,-602.8125)"></path></svg>