<?xml version="1.0" encoding="utf-8"?>
<!-- Generated by IcoMoon.io -->
<!DOCTYPE svg PUBLIC "-//W3C//DTD SVG 1.1//EN" "http://www.w3.org/Graphics/SVG/1.1/DTD/svg11.dtd">
<svg version="1.1" xmlns="http://www.w3.org/2000/svg" xmlns:xlink="http://www.w3.org/1999/xlink" width="1414" height="1024" viewBox="0 0 1414 1024">
<g id="icomoon-ignore">
</g>
<path d="M335.726 718.263c90.453-90.453 112.64-112.64 118.735-118.979v0.244c6.095-6.095 12.922-9.021 19.992-9.021 12.434 0 25.112 9.021 30.232 21.455 2.682 6.339 5.364 18.773-6.827 30.72l-118.735 118.735c-5.851 5.851-13.41 9.021-21.699 9.021s-15.848-3.17-21.699-9.021c-5.851-5.851-9.021-13.41-9.021-21.699 0-8.046 3.17-15.848 9.021-21.455zM354.255 489.082c6.095-6.095 12.922-9.021 19.992-9.021 12.434 0 25.112 9.021 30.232 21.455 2.682 6.339 5.364 18.773-6.827 30.964l-113.615 113.371c-5.608 5.608-13.41 8.533-21.699 8.533s-16.335-2.926-21.699-8.533c-11.947-11.947-11.947-31.208 0-43.154zM455.436 808.716c2.682-2.438 6.583-6.339 12.922-12.678l28.038-28.038c25.6-25.6 36.084-36.084 40.472-40.96l0.488 0.244c5.851-6.095 12.678-9.021 19.749-9.021 12.434 0 25.112 9.021 30.232 21.455 2.682 6.339 5.364 18.773-6.827 30.964l-1.463 1.219c-6.583 6.827-36.815 37.059-57.539 57.783-16.823 16.823-21.211 21.211-22.674 22.43-5.608 5.851-13.41 9.021-21.699 9.021-14.629 0-23.893-9.996-27.794-19.261-3.657-9.265-4.145-22.674 6.095-32.914zM636.343 925.257c-6.095 6.095-12.678 9.021-19.992 9.021-12.19 0-24.869-8.777-29.989-21.211-2.682-6.339-5.364-18.773 6.339-30.72l40.229-40.229c5.851-5.851 13.653-9.021 21.699-9.021 14.629 0 24.137 9.752 27.794 19.017 3.901 9.265 4.389 22.918-6.095 33.402-0.975 0.731-39.985 39.741-39.985 39.741zM821.638 882.103c11.947 12.19 9.265 24.625 6.583 30.72-5.12 12.434-17.798 21.455-30.232 21.455-7.070 0-13.897-2.926-19.749-9.021l-15.604-15.36c11.459-26.331 12.434-56.076 3.17-83.383zM690.469 751.177c-4.389-1.463-9.021-2.682-13.897-3.413 0-3.901-0.244-7.558-0.731-11.215zM1266.59 595.627c-5.12-20.968-15.604-39.741-30.72-54.857l-321.097-320.61c-8.29-8.29-19.261-12.922-30.964-12.922h-186.514c-19.017 0-31.695 12.922-41.935 22.918-2.682 2.682-5.12 5.364-7.558 7.558-14.629 12.678-28.77 22.918-43.398 31.451-23.162 13.41-46.080 21.699-68.023 24.137-13.166 1.707-25.6 0.975-36.571-1.463-14.872-3.413-26.819-12.19-29.257-21.455-1.95-6.339 0.975-13.41 8.29-20.968l149.943-149.455c6.583-6.827 14.141-12.434 36.084-12.434h298.91c10.728 0 25.6 13.166 35.352 21.699 1.707 1.463 3.413 2.926 4.876 4.145 11.947 10.484 23.893 21.699 35.352 32.427 7.070 6.583 14.141 13.166 21.211 19.505 39.010 35.84 81.676 70.705 134.583 70.705h172.373c28.038 0 42.667-21.943 42.667-43.642 0-21.943-14.629-43.886-42.667-43.886h-172.373c-14.629 0-29.989-10.728-43.398-20.724-18.286-13.653-35.352-29.745-52.175-45.592l-6.583-6.339c-2.682-2.438-5.364-4.876-8.046-7.558-32.183-30.476-72.168-68.267-121.173-68.267h-517.364c-49.25 0-89.234 38.034-121.417 68.51-2.682 2.438-5.12 4.876-7.802 7.314l-6.095 5.851c-15.604 14.629-31.451 29.745-48.274 42.667-12.922 10.24-30.964 24.137-47.543 24.137h-172.373c-28.282 0-42.91 21.943-42.91 43.886 0 21.699 14.629 43.642 42.91 43.642h172.373c52.419 0 95.086-34.865 134.339-70.705 7.314-6.583 14.385-13.166 21.455-19.749 11.459-10.728 23.162-21.943 35.109-32.183 1.463-1.219 3.17-2.682 4.632-3.901 9.996-8.777 24.869-21.943 35.596-21.943h70.705l-100.206 99.962c-34.377 34.621-45.105 80.701-27.55 120.442 15.36 34.865 51.2 61.196 95.573 70.217 12.19 2.682 25.112 3.901 38.034 3.901 83.627 0 154.819-53.15 192.122-87.040h150.674l307.931 307.688c12.19 11.947 9.509 24.381 6.827 30.72-5.12 12.678-17.798 21.699-29.989 21.699-7.314 0-13.897-3.17-19.992-9.021l-200.899-200.655c-8.29-8.533-18.53-12.922-29.501-12.922-17.798 0-34.865 11.947-41.935 29.013-6.583 16.091-3.17 33.158 9.509 45.836l228.45 228.206c12.19 11.947 9.509 24.625 6.827 30.964-5.12 12.434-17.798 21.455-29.989 21.455-7.314 0-14.141-2.926-19.992-9.021l-228.693-228.45c-8.29-8.29-18.53-12.678-29.745-12.678-17.554 0-34.621 11.947-41.691 29.013-6.827 15.848-3.17 33.158 9.509 45.592l196.267 196.267c10.484 10.484 10.24 24.137 6.339 33.402s-13.166 19.017-27.794 19.017c-8.29 0-15.848-3.17-21.699-9.021l-196.51-196.267c-8.29-8.533-18.773-12.922-29.745-12.922-17.31 0-34.377 11.703-41.691 28.526-14.141-16.335-32.914-29.013-54.37-35.352 3.901-30.476-4.389-61.196-23.406-86.309-18.773-24.869-46.080-40.96-76.312-45.349-1.219-27.55-12.19-53.15-31.208-73.143-22.918-24.137-55.345-38.034-88.747-38.034-30.476 0-59.246 12.19-81.189 33.89l-113.615 113.615c-15.116 15.116-25.844 33.89-30.964 54.857h-105.082c-28.038 0-42.667 22.187-42.667 43.886s14.629 43.642 42.667 43.642h117.516c17.31 29.989 46.080 50.712 79.482 57.051 0 29.257 10.728 56.564 30.72 78.75 23.406 25.6 57.051 39.985 91.672 38.522 12.434 52.663 60.221 90.941 116.053 90.941 8.777 0 17.554-0.975 26.088-2.926 17.067 44.861 61.44 76.312 110.446 76.312 31.695 0 61.196-12.19 83.627-34.621l9.021-8.777 8.777 8.777c21.943 21.943 51.2 33.89 82.408 33.89 50.469 0 94.842-30.476 111.665-75.581 8.777 1.95 17.554 2.926 26.331 2.926 50.225 0 94.354-30.72 111.421-76.312 8.777 2.194 17.554 3.17 26.575 3.17 36.328 0 71.68-18.042 94.11-48.030 19.992-26.819 27.794-59.49 21.943-91.429 26.819-9.265 49.25-27.794 63.634-52.419h113.128c28.282-0.244 42.91-22.187 42.91-43.886 0-21.943-14.872-43.886-42.91-43.886z"></path>
</svg>
