<?xml version="1.0" encoding="utf-8"?>
<!-- Generated by IcoMoon.io -->
<!DOCTYPE svg PUBLIC "-//W3C//DTD SVG 1.1//EN" "http://www.w3.org/Graphics/SVG/1.1/DTD/svg11.dtd">
<svg version="1.1" xmlns="http://www.w3.org/2000/svg" xmlns:xlink="http://www.w3.org/1999/xlink" width="1075" height="1024" viewBox="0 0 1075 1024">
<g id="icomoon-ignore">
</g>
<path d="M409.6 25.6h512c40.96 0 76.8 35.84 76.8 76.8v819.2c0 40.96-35.84 76.8-76.8 76.8h-512c-40.96 0-76.8-35.84-76.8-76.8v-148.48c0-10.24 10.24-20.48 20.48-20.48s20.48 10.24 20.48 20.48v148.48c0 20.48 15.36 35.84 35.84 35.84h512c20.48 0 35.84-15.36 35.84-35.84v-819.2c0-20.48-15.36-35.84-35.84-35.84h-512c-20.48 0-35.84 15.36-35.84 35.84v158.72c0 10.24-10.24 20.48-20.48 20.48s-20.48-10.24-20.48-20.48v-158.72c0-40.96 35.84-76.8 76.8-76.8zM921.6 1024h-512c-56.32 0-102.4-46.080-102.4-102.4v-148.48c0-25.6 20.48-46.080 46.080-46.080s46.080 20.48 46.080 46.080v148.48c0 5.12 5.12 10.24 10.24 10.24h512c5.12 0 10.24-5.12 10.24-10.24v-819.2c0-5.12-5.12-10.24-10.24-10.24h-512c-5.12 0-10.24 5.12-10.24 10.24v158.72c0 25.6-20.48 46.080-46.080 46.080s-46.080-20.48-46.080-46.080v-158.72c0-56.32 46.080-102.4 102.4-102.4h512c56.32 0 102.4 46.080 102.4 102.4v819.2c0 56.32-46.080 102.4-102.4 102.4zM46.080 486.4h619.52c10.24 0 20.48 10.24 20.48 20.48s-10.24 20.48-20.48 20.48h-619.52c-10.24 0-20.48-10.24-20.48-20.48s10.24-20.48 20.48-20.48zM665.6 552.96h-619.52c-25.6 0-46.080-20.48-46.080-46.080s20.48-46.080 46.080-46.080h619.52c25.6 0 46.080 20.48 46.080 46.080s-20.48 46.080-46.080 46.080zM721.92 486.4c5.12 0 10.24 0 15.36 5.12s5.12 20.48 0 25.6l-163.84 163.84c-10.24 5.12-20.48 5.12-25.6 0-10.24-10.24-10.24-20.48 0-25.6l163.84-163.84c0-5.12 5.12-5.12 10.24-5.12zM558.080 716.8c-10.24 0-20.48-5.12-30.72-10.24-20.48-20.48-20.48-46.080 0-66.56l163.84-163.84c15.36-15.36 46.080-15.36 61.44 0 20.48 20.48 20.48 46.080 0 66.56l-163.84 163.84c-10.24 5.12-20.48 10.24-30.72 10.24zM727.040 512v0c0 0 0 0 0 0zM558.080 332.8c5.12 0 10.24 0 15.36 5.12l163.84 163.84c5.12 10.24 5.12 20.48 0 25.6-10.24 5.12-20.48 5.12-25.6 0l-163.84-163.84c-10.24-5.12-10.24-20.48 0-25.6 0-5.12 5.12-5.12 10.24-5.12zM721.92 563.2c-10.24 0-20.48-5.12-30.72-10.24l-163.84-163.84c-15.36-15.36-15.36-46.080 0-61.44 20.48-20.48 46.080-15.36 61.44 0l163.84 163.84c15.36 20.48 15.36 46.080 0 61.44-10.24 5.12-20.48 10.24-30.72 10.24z"></path>
</svg>
