<?xml version="1.0" encoding="utf-8"?>
<!-- Generated by IcoMoon.io -->
<!DOCTYPE svg PUBLIC "-//W3C//DTD SVG 1.1//EN" "http://www.w3.org/Graphics/SVG/1.1/DTD/svg11.dtd">
<svg version="1.1" xmlns="http://www.w3.org/2000/svg" xmlns:xlink="http://www.w3.org/1999/xlink" width="838" height="1024" viewBox="0 0 838 1024">
<g id="icomoon-ignore">
</g>
<path d="M86.342 1024c-47.709 0-86.342-39.564-86.342-88.204v-847.593c0-48.64 38.865-88.204 86.342-88.204h493.615c7.68 0 15.36 3.258 20.945 8.844l197.818 202.007c5.585 5.818 8.611 13.498 8.611 21.411v703.535c0 48.64-38.633 88.204-86.342 88.204zM86.342 60.276c-15.127 0-27.462 12.567-27.462 27.927v847.593c0 15.36 12.335 27.927 27.462 27.927h634.647c14.895 0 27.462-12.8 27.462-27.927v-690.967l-180.596-184.553zM588.102 262.516c-16.291 0-29.556-13.731-29.556-30.255v-202.24c0-12.102 7.215-23.040 18.153-27.695s23.738-2.095 32.116 6.516l197.818 202.007c8.378 8.611 10.938 21.644 6.284 32.815-4.655 11.404-15.127 18.851-27.229 18.851zM617.425 202.24h97.28l-97.28-99.375zM454.749 737.513c21.411 0 44.916-3.025 64.698-9.076l-19.782-64.931c-14.895 5.353-30.487 8.145-44.916 8.145-59.811 0-95.651-26.531-113.804-62.371h92.625l10.705-51.433h-117.76c-0.465-3.956-0.465-8.145-0.465-12.335 0-5.353 0-10.705 0.465-16.058h126.138l11.869-52.131h-121.949c19.316-34.444 55.622-61.207 112.175-61.207 11.869 0 23.738 1.164 35.375 4.422l22.342-63.069c-18.618-5.818-37.935-8.378-57.716-8.378-104.727 0-162.444 55.389-183.855 128.233h-38.167v52.131h29.556c-0.698 5.353-0.698 10.705-0.698 16.058v12.335h-28.858v51.433h36.305c19.549 74.007 76.102 128.233 185.716 128.233z"></path>
</svg>
