<?xml version="1.0" encoding="utf-8"?>
<!-- Generated by IcoMoon.io -->
<!DOCTYPE svg PUBLIC "-//W3C//DTD SVG 1.1//EN" "http://www.w3.org/Graphics/SVG/1.1/DTD/svg11.dtd">
<svg version="1.1" xmlns="http://www.w3.org/2000/svg" xmlns:xlink="http://www.w3.org/1999/xlink" width="827" height="1024" viewBox="0 0 827 1024">
<g id="icomoon-ignore">
</g>
<path d="M83.495 1024c-46.080 0-83.495-38.203-83.495-84.677v-814.868c0-46.868 37.415-85.071 83.495-85.071h477.342c7.483 0 14.966 3.151 20.086 8.665l191.409 194.166c5.514 5.514 8.271 12.997 8.271 20.48v676.628c0 46.474-37.415 84.677-83.495 84.677zM83.495 97.28c-14.572 0-26.388 12.209-26.388 26.782v815.262c0 14.572 11.815 26.782 26.388 26.782h613.612c14.572 0 26.388-12.209 26.388-26.782v-664.418l-174.474-177.625zM579.742 291.84c-15.754 0-28.357-12.997-28.357-29.145v-194.166c0-11.815 7.089-22.449 17.723-26.782 10.634-4.726 22.843-2.363 31.114 6.302l191.015 194.166c8.271 8.271 10.634 20.874 6.302 31.508-4.726 11.028-14.966 18.117-26.388 18.117zM608.492 233.945h93.735l-93.735-95.705zM192.591 836.135h-35.052v-205.982h77.588c46.868 0 73.649 27.569 73.649 65.378 0 40.172-26.782 64.197-73.649 64.197h-42.535zM192.591 730.978h42.535c27.175 0 38.597-14.572 38.597-35.052 0-19.298-11.422-37.022-38.597-37.022h-42.535zM315.077 836.135v-205.982h59.865c53.957 0 91.372 38.597 91.372 98.068v10.24c0 59.077-37.022 97.674-92.948 97.674zM350.129 658.905v148.48h23.237c38.203 0 57.502-25.994 57.502-68.923v-10.634c0-44.505-19.692-68.923-55.926-68.923zM628.578 748.702h-81.526v87.434h-35.052v-205.982h128.788v28.751h-93.735v61.44h81.526z"></path>
</svg>
