<svg id="SvgjsSvg1000" xmlns="http://www.w3.org/2000/svg" version="1.1" xmlns:xlink="http://www.w3.org/1999/xlink" xmlns:svgjs="http://svgjs.com/svgjs" width="19" height="14" viewBox="0 0 19 14"><title>Page 1 Copy 3</title><desc>Created with Avocode.</desc><defs id="SvgjsDefs1001"></defs><path id="SvgjsPath1007" d="M533.96 1121.93C533.96 1121.76 533.86 1121.53 533.75 1121.43L527.92 1115.23C527.65 1114.95 527.2099999999999 1114.91 526.89 1115.2C526.61 1115.46 526.6 1115.95 526.86 1116.23L531.54 1121.2L515.73 1121.2C515.33 1121.2 515 1121.52 515 1121.93C515 1122.3300000000002 515.33 1122.66 515.73 1122.66L531.54 1122.66L526.86 1127.6200000000001C526.6 1127.9 526.62 1128.39 526.89 1128.66C527.18 1128.94 527.65 1128.91 527.92 1128.63L533.75 1122.43C533.93 1122.26 533.96 1122.1000000000001 533.96 1121.93Z " fill="#d40072" fill-opacity="1" transform="matrix(1,0,0,1,-515,-1115)"></path></svg>