<?xml version="1.0" encoding="UTF-8" standalone="no"?>
<!-- Created with Inkscape (http://www.inkscape.org/) -->

<svg
   xmlns:dc="http://purl.org/dc/elements/1.1/"
   xmlns:cc="http://creativecommons.org/ns#"
   xmlns:rdf="http://www.w3.org/1999/02/22-rdf-syntax-ns#"
   xmlns:svg="http://www.w3.org/2000/svg"
   xmlns="http://www.w3.org/2000/svg"
   xmlns:sodipodi="http://sodipodi.sourceforge.net/DTD/sodipodi-0.dtd"
   xmlns:inkscape="http://www.inkscape.org/namespaces/inkscape"
   id="svg5092"
   version="1.1"
   inkscape:version="0.91 r13725"
   width="58"
   height="59"
   viewBox="0 0 58 59"
   sodipodi:docname="roda.svg">
  <metadata
     id="metadata5098">
    <rdf:RDF>
      <cc:Work
         rdf:about="">
        <dc:format>image/svg+xml</dc:format>
        <dc:type
           rdf:resource="http://purl.org/dc/dcmitype/StillImage" />
        <dc:title></dc:title>
      </cc:Work>
    </rdf:RDF>
  </metadata>
  <defs
     id="defs5096" />
  <sodipodi:namedview
     pagecolor="#ffffff"
     bordercolor="#666666"
     borderopacity="1"
     objecttolerance="10"
     gridtolerance="10"
     guidetolerance="10"
     inkscape:pageopacity="0"
     inkscape:pageshadow="2"
     inkscape:window-width="1855"
     inkscape:window-height="1056"
     id="namedview5094"
     showgrid="false"
     inkscape:zoom="15.576271"
     inkscape:cx="27.857521"
     inkscape:cy="25.391573"
     inkscape:window-x="65"
     inkscape:window-y="24"
     inkscape:window-maximized="1"
     inkscape:current-layer="svg5092" />
  <path
     style="fill:#000000"
     d="M 19.077671,56.68458 C -0.36007167,49.738293 -5.7887767,23.719042 9.1706873,9.2013762 19.780366,-1.0949672 36.588912,-1.5007419 47.690726,8.2714652 54.27203,14.064561 57.173062,20.578874 57.173062,29.5642 c 0,16.38628 -11.945349,28.53052 -27.980462,28.446338 -3.575,-0.01877 -8.126718,-0.615449 -10.114929,-1.325958 z M 39.898653,51.890187 C 44.73595,49.633902 49.780082,44.295744 51.924563,39.163276 55.441479,30.746113 52.95856,18.984006 46.248333,12.273779 41.609565,7.6350112 37.67301,5.8724572 30.70154,5.3128542 7.2459133,3.4300622 -4.6649637,32.311998 12.989475,48.261724 c 7.473088,6.751485 17.356486,8.084174 26.909178,3.628463 z M 27.6926,51.564886 C 27.1426,51.379591 25.078326,50.959481 23.105325,50.631308 18.476181,49.861332 11.452998,43.847219 9.0787283,38.620007 2.6262293,24.414142 13.316822,8.0642002 29.057984,8.0642002 c 6.093749,0 10.155442,1.802998 15.414937,6.8427398 10.342856,9.910708 7.315343,27.931597 -5.780321,34.406638 -3.160979,1.56292 -9.308638,2.821126 -11,2.251308 z m 7.373903,-5.044002 C 36.035322,45.547815 31.22346,42.0642 28.910557,42.0642 c -2.056231,0 -5.717957,2.616276 -5.717957,4.085437 0,1.709944 10.222823,2.029569 11.873903,0.371247 z m 2.728096,-4.614523 C 36.9135,40.648416 36.1926,38.348307 36.1926,36.795009 c 0,-2.821419 -0.0024,-2.822423 -2.468575,-1.027494 -2.788283,2.029376 -3.214021,3.296685 -1.107483,3.296685 0.783167,0 2.470667,1.290697 3.75,2.868216 2.712086,3.344221 3.775105,3.324826 1.428057,-0.02605 z M 21.374969,41.5642 c 1.634095,-1.375 3.611555,-2.5 4.394356,-2.5 0.782801,0 1.423275,-0.45 1.423275,-1 0,-0.55 -0.43247,-1 -0.961045,-1 -0.528575,0 -1.878575,-0.984853 -3,-2.188561 l -2.038955,-2.188562 0,3.053703 c 0,1.679536 -0.932661,4.239389 -2.07258,5.688561 -2.613265,3.322229 -1.604707,3.382546 2.254949,0.134859 z M 44.50485,38.710399 c 0.848248,-1.294591 1.850084,-3.994591 2.226301,-6 0.56336,-3.002969 0.391763,-3.646199 -0.972715,-3.646199 -1.788926,0 -6.565836,4.284809 -6.565836,5.889446 0,1.913727 1.964458,6.110554 2.860239,6.110554 0.500358,0 1.603763,-1.059211 2.452011,-2.353801 z M 17.1926,34.941755 c 0,-2.791041 -2.970906,-6.877555 -5,-6.877555 -1.538974,0 -1.185008,5.741553 0.562273,9.120423 1.273008,2.461726 1.828478,2.800172 3,1.827895 0.79075,-0.656264 1.437727,-2.488107 1.437727,-4.070763 z M 32.585358,31.8142 c 1.60856,-2.566043 -0.437251,-5.25 -4.001744,-5.25 -2.25737,0 -2.962633,0.505213 -3.217778,2.305042 -0.670725,4.731399 4.720967,6.930756 7.219522,2.944958 z m -9.130782,-7.5 c 3.878603,-4.182229 11.775835,-2.219804 13.153321,3.268539 0.59986,2.390034 0.757173,2.451848 2.303776,0.905245 0.912973,-0.912973 2.924671,-2.100835 4.470439,-2.639693 1.545769,-0.538858 2.810488,-1.374582 2.810488,-1.857165 0,-0.482584 -1.156229,-0.437827 -2.569398,0.09946 C 37.871356,26.277434 30.1926,21.295628 30.1926,15.37711 c 0,-1.8221 -0.45,-3.312909 -1,-3.312909 -0.55,0 -1,1.289314 -1,2.865141 0,6.037939 -7.868937,11.275785 -13.642255,9.080774 -1.623965,-0.617431 -2.260656,-0.597839 -1.855877,0.05711 0.338891,0.548335 1.230382,0.996975 1.981091,0.996975 0.750708,0 2.41165,1.275195 3.690983,2.833766 2.189308,2.667169 2.345909,2.711261 2.66372,0.75 0.185714,-1.146071 1.276656,-3.096266 2.424314,-4.333766 z M 22.9426,18.318337 c 0.6875,-0.900018 1.25,-2.691221 1.25,-3.98045 0,-2.107129 -0.227419,-2.227073 -2.25,-1.186684 -4.157741,2.138687 -7.879935,6.210025 -6.502469,7.112405 1.731616,1.134385 5.994262,0.02915 7.502469,-1.945271 z m 20.002469,1.920007 c 1.567355,-0.99516 -2.93205,-5.548093 -7.002469,-7.085775 -2.435466,-0.920046 -2.75,-0.807748 -2.75,0.981836 0,4.276601 6.36054,8.257577 9.752469,6.103939 z"
     id="path5104"
     inkscape:connector-curvature="0" />
</svg>
