<?xml version="1.0" encoding="utf-8"?>
<!-- Generated by IcoMoon.io -->
<!DOCTYPE svg PUBLIC "-//W3C//DTD SVG 1.1//EN" "http://www.w3.org/Graphics/SVG/1.1/DTD/svg11.dtd">
<svg version="1.1" xmlns="http://www.w3.org/2000/svg" xmlns:xlink="http://www.w3.org/1999/xlink" width="1038" height="1024" viewBox="0 0 1038 1024">
<g id="icomoon-ignore">
</g>
<path d="M216.723 433.587c-12.625-42.643-10.38-88.653 6.312-129.753 5.611-13.887-1.262-29.738-15.15-35.349-13.607-5.611-29.878 1.403-35.349 15.009-21.181 52.322-23.987 111.097-7.996 165.383 8.276 28.616 21.742 55.268 39.557 79.255 5.19 6.873 13.326 10.941 21.883 10.941 5.892 0 11.502-1.824 16.272-5.33 12.064-8.978 14.448-26.091 5.611-38.155-14.168-18.797-24.548-39.698-31.141-62.001zM1006.325 849.078l-230.47-230.33c-15.15-15.29-34.227-25.109-55.128-28.616 96.929-151.215 76.169-349.703-51.901-477.773-72.522-72.522-168.89-112.359-271.29-112.359-102.54 0-198.908 39.838-271.29 112.359-149.672 149.672-149.672 393.048 0 542.58 72.381 72.522 168.75 112.359 271.29 112.359 73.924 0 144.903-20.761 206.483-60.318 3.507 20.761 13.326 39.978 28.476 55.128l230.47 230.47c19.077 19.218 44.747 29.878 71.82 29.878h0.14c27.073 0 52.603-10.521 71.68-29.598 19.077-19.218 29.598-44.747 29.598-71.82-0.14-27.213-10.661-52.743-29.878-71.961zM630.251 616.504c-62.141 62.141-144.903 96.368-232.855 96.368s-170.573-34.227-232.715-96.368c-128.351-128.491-128.351-337.359 0-465.569 62.141-62.282 144.903-96.508 232.855-96.508 87.812 0 170.573 34.227 232.715 96.368 62.001 62.141 96.228 144.763 96.228 232.715 0 88.092-34.227 170.854-96.228 232.995zM968.031 954.284c-8.837 8.697-20.62 13.607-33.245 13.607s-24.408-4.91-33.385-13.887l-230.47-230.47c-8.978-8.978-13.887-20.761-13.887-33.385 0-12.484 4.91-24.267 13.747-33.105s20.62-13.747 33.105-13.747v-9.539l0.14 9.539c12.484 0 24.408 4.91 33.245 13.887l230.47 230.33c8.978 8.978 13.887 20.901 13.887 33.525 0.14 12.484-4.769 24.408-13.607 33.245z"></path>
</svg>
