<?xml version="1.0" encoding="utf-8"?>
<!-- Generated by IcoMoon.io -->
<!DOCTYPE svg PUBLIC "-//W3C//DTD SVG 1.1//EN" "http://www.w3.org/Graphics/SVG/1.1/DTD/svg11.dtd">
<svg version="1.1" xmlns="http://www.w3.org/2000/svg" xmlns:xlink="http://www.w3.org/1999/xlink" width="1024" height="1024" viewBox="0 0 1024 1024">
<g id="icomoon-ignore">
</g>
<path d="M512 15.515c-273.067 0-496.485 223.418-496.485 496.485s223.418 496.485 496.485 496.485 496.485-223.418 496.485-496.485-223.418-496.485-496.485-496.485zM512 74.473c242.036 0 437.527 195.491 437.527 437.527s-195.491 437.527-437.527 437.527-437.527-195.491-437.527-437.527 195.491-437.527 437.527-437.527zM539.927 220.315v279.273l176.873 176.873c12.412 12.412 12.412 31.030 0 40.339-12.412 12.412-31.030 12.412-40.339 0l-186.182-186.182c-6.206-6.206-9.309-12.412-9.309-21.721v-288.582c0-15.515 12.412-27.927 27.927-27.927s31.030 12.412 31.030 27.927zM512 1024c-282.376 0-512-229.624-512-512s229.624-512 512-512c282.376 0 512 229.624 512 512s-229.624 512-512 512zM512 31.030c-263.758 0-480.97 217.212-480.97 480.97s217.212 480.97 480.97 480.97 480.97-217.212 480.97-480.97c0-263.758-217.212-480.97-480.97-480.97zM512 965.042c-251.345 0-453.042-204.8-453.042-453.042 0-251.345 204.8-453.042 453.042-453.042s453.042 204.8 453.042 453.042c0 251.345-201.697 453.042-453.042 453.042zM512 89.988c-232.727 0-422.012 189.285-422.012 422.012s189.285 422.012 422.012 422.012c232.727 0 422.012-189.285 422.012-422.012s-189.285-422.012-422.012-422.012zM698.182 741.624c-12.412 0-21.721-3.103-31.030-12.412l-186.182-186.182c-9.309-9.309-12.412-18.618-12.412-31.030v-291.685c0-24.824 18.618-43.442 43.442-43.442s43.442 18.618 43.442 43.442v273.067l173.77 173.77c18.618 18.618 18.618 46.545 0 62.061-9.309 9.309-21.721 12.412-31.030 12.412zM512 204.8c-6.206 0-12.412 6.206-12.412 12.412v291.685c0 3.103 0 9.309 3.103 9.309l186.182 186.182c6.206 6.206 15.515 6.206 18.618 0 6.206-6.206 6.206-12.412 0-18.618l-183.079-183.079v-282.376c0-9.309-6.206-15.515-12.412-15.515z"></path>
</svg>
